<svg width="1024" height="2155" viewBox="0 0 1024 2155" fill="none" xmlns="http://www.w3.org/2000/svg">
<g clip-path="url(#clip0)">
<rect width="1024" height="2155" fill="white"/>
<rect width="1024" height="936" fill="#F9F9F9"/>
<g filter="url(#filter0_d)">
<path d="M392.972 435.72C611.968 413.843 888.89 361.833 1021.93 293.313V506.717L125.419 643.757C128.408 610.735 127.168 462.273 392.972 435.72Z" fill="#61B46C"/>
</g>
<g filter="url(#filter1_d)">
<path d="M395.962 473.282C606.437 433.656 922.35 415.081 1024 141V2175H1.32062C0.324053 2118.86 -1.07115 695.354 1.32061 668.936C4.31032 635.914 132.868 522.815 395.962 473.282Z" fill="#63D673"/>
</g>
<path d="M506.768 2116.81C348.01 2147.98 103.147 2178.31 0 2100V2815H1024V2154.35C918.735 2135.99 665.525 2085.63 506.768 2116.81Z" fill="#F9F9F9"/>
</g>
<defs>
<filter id="filter0_d" x="113.419" y="279.313" width="932.513" height="386.444" filterUnits="userSpaceOnUse" color-interpolation-filters="sRGB">
<feFlood flood-opacity="0" result="BackgroundImageFix"/>
<feColorMatrix in="SourceAlpha" type="matrix" values="0 0 0 0 0 0 0 0 0 0 0 0 0 0 0 0 0 0 127 0"/>
<feOffset dx="6" dy="4"/>
<feGaussianBlur stdDeviation="9"/>
<feColorMatrix type="matrix" values="0 0 0 0 0 0 0 0 0 0 0 0 0 0 0 0 0 0 0.33 0"/>
<feBlend mode="normal" in2="BackgroundImageFix" result="effect1_dropShadow"/>
<feBlend mode="normal" in="SourceGraphic" in2="effect1_dropShadow" result="shape"/>
</filter>
<filter id="filter1_d" x="-12" y="127" width="1060" height="2070" filterUnits="userSpaceOnUse" color-interpolation-filters="sRGB">
<feFlood flood-opacity="0" result="BackgroundImageFix"/>
<feColorMatrix in="SourceAlpha" type="matrix" values="0 0 0 0 0 0 0 0 0 0 0 0 0 0 0 0 0 0 127 0"/>
<feOffset dx="6" dy="4"/>
<feGaussianBlur stdDeviation="9"/>
<feColorMatrix type="matrix" values="0 0 0 0 0 0 0 0 0 0 0 0 0 0 0 0 0 0 0.33 0"/>
<feBlend mode="normal" in2="BackgroundImageFix" result="effect1_dropShadow"/>
<feBlend mode="normal" in="SourceGraphic" in2="effect1_dropShadow" result="shape"/>
</filter>
<clipPath id="clip0">
<rect width="1024" height="2155" fill="white"/>
</clipPath>
</defs>
</svg>
