<svg width="30" height="22" viewBox="0 0 30 22" fill="none" xmlns="http://www.w3.org/2000/svg">
<path d="M29.6189 9.38284L26.1746 5.50394C25.8892 5.18261 25.4798 4.99915 25.0501 5.00003H20.5V2.00003C20.4991 1.17198 19.8281 0.500909 19 0.500031H1.5C0.671953 0.500909 0.000878955 1.17198 4.88301e-08 2.00003V15C-5.85449e-05 15.1326 0.0526172 15.2599 0.146426 15.3537C0.240176 15.4474 0.367383 15.5001 0.500039 15.5001H1.00002V17.0001C1.0009 17.8281 1.67197 18.4992 2.50002 18.5001H3.53994C3.78639 20.2216 5.26096 21.5001 7.00002 21.5001C8.73908 21.5001 10.2137 20.2216 10.4601 18.5001H19.54C19.7865 20.2216 21.261 21.5001 23.0001 21.5001C24.7392 21.5001 26.2137 20.2216 26.4602 18.5001H28.5C29.328 18.4992 29.9991 17.8281 30 17.0001V10.3799C29.9996 10.012 29.864 9.65718 29.6189 9.38284ZM1.00002 14.5V2.00003C1.00031 1.724 1.22396 1.50028 1.5 1.50005H19C19.2761 1.50034 19.4998 1.724 19.5 2.00003V14.5H1.00002ZM3.53994 17.5H2.50002C2.22398 17.4997 2.00027 17.2761 2.00004 17V15.5H4.55531C4.00605 16.0369 3.64916 16.7398 3.53994 17.5ZM7.00002 20.5C5.61932 20.5 4.5 19.3807 4.5 18C4.5 16.6193 5.61932 15.5 7.00002 15.5C8.38072 15.5 9.50004 16.6193 9.50004 18C9.4984 19.38 8.38002 20.4984 7.00002 20.5ZM12 17.5H10.46C10.3508 16.7398 9.99398 16.0368 9.44473 15.5H12V17.5ZM16.5 17.5H13V15.5H16.5V17.5ZM19.54 17.5H17.5V15.5H20.5553C20.006 16.0369 19.6492 16.7398 19.54 17.5ZM23 20.5C21.6193 20.5 20.5 19.3807 20.5 18C20.5 16.6193 21.6192 15.5 23 15.5C24.3807 15.5 25.5 16.6193 25.5 18C25.4984 19.3801 24.38 20.4984 23 20.5ZM29 17C28.9997 17.2761 28.776 17.4998 28.5 17.5H26.4601C26.2107 15.7801 24.7379 14.5031 23 14.5H20.5V6.00005H22.5V11C22.5009 11.8281 23.172 12.4992 24 12.5H29V17ZM29 11.5H24C23.724 11.4997 23.5003 11.2761 23.5 11V6.00005H25.0501C25.1936 5.99923 25.3306 6.06005 25.4263 6.16704L28.8718 10.0474C28.9539 10.1388 28.9995 10.2571 29 10.3799V11.5H29Z" fill="#696969"/>
</svg>
