<svg width="19" height="19" viewBox="0 0 19 19" fill="none" xmlns="http://www.w3.org/2000/svg">
<g clip-path="url(#clip0)">
<path d="M18.4057 8.90658H10.885C10.5573 8.90658 10.2913 8.64059 10.2913 8.31285C10.2913 7.98511 10.5573 7.71912 10.885 7.71912H18.4057C18.7334 7.71912 18.9994 7.98511 18.9994 8.31285C18.9994 8.64059 18.7334 8.90658 18.4057 8.90658Z" fill="white"/>
<path d="M15.437 11.8752C15.285 11.8752 15.1331 11.8174 15.0174 11.7011C14.7855 11.4691 14.7855 11.093 15.0174 10.8611L17.5666 8.3121L15.0174 5.76294C14.7855 5.53101 14.7855 5.155 15.0174 4.92308C15.2495 4.69101 15.6255 4.69101 15.8574 4.92308L18.8261 7.89173C19.058 8.12366 19.058 8.49967 18.8261 8.7316L15.8574 11.7003C15.741 11.8174 15.5891 11.8752 15.437 11.8752V11.8752Z" fill="white"/>
<path d="M6.33319 19.0001C6.16373 19.0001 6.00298 18.9764 5.84237 18.9265L1.07817 17.3393C0.429934 17.1128 0 16.5088 0 15.8336V1.58406C0 0.710862 0.71013 0.000732422 1.58333 0.000732422C1.75264 0.000732422 1.91339 0.0245049 2.07415 0.0743691L6.8382 1.66162C7.48658 1.88803 7.91637 2.49206 7.91637 3.16725V17.4168C7.91637 18.29 7.20639 19.0001 6.33319 19.0001ZM1.58333 1.1882C1.36561 1.1882 1.18746 1.36634 1.18746 1.58406V15.8336C1.18746 16.0022 1.30067 16.1589 1.46215 16.2151L6.20403 17.7953C6.2381 17.8063 6.28245 17.8127 6.33319 17.8127C6.55091 17.8127 6.72891 17.6345 6.72891 17.4168V3.16725C6.72891 2.99867 6.6157 2.84198 6.45422 2.78573L1.71234 1.20559C1.67828 1.19457 1.63392 1.1882 1.58333 1.1882V1.1882Z" fill="white"/>
<path d="M12.0725 6.33379C11.7447 6.33379 11.4788 6.0678 11.4788 5.74006V2.17767C11.4788 1.63221 11.0348 1.18807 10.4893 1.18807H1.58333C1.25558 1.18807 0.989594 0.922083 0.989594 0.594342C0.989594 0.266601 1.25558 0.000610352 1.58333 0.000610352H10.4893C11.6902 0.000610352 12.6662 0.97673 12.6662 2.17767V5.74006C12.6662 6.0678 12.4002 6.33379 12.0725 6.33379Z" fill="white"/>
<path d="M10.4893 16.6251H7.32264C6.9949 16.6251 6.72891 16.3591 6.72891 16.0313C6.72891 15.7036 6.9949 15.4376 7.32264 15.4376H10.4893C11.0348 15.4376 11.4788 14.9935 11.4788 14.448V10.8856C11.4788 10.5579 11.7448 10.2919 12.0725 10.2919C12.4002 10.2919 12.6662 10.5579 12.6662 10.8856V14.448C12.6662 15.6489 11.6903 16.6251 10.4893 16.6251V16.6251Z" fill="white"/>
</g>
<defs>
<clipPath id="clip0">
<rect width="19" height="19" fill="white"/>
</clipPath>
</defs>
</svg>
