<svg width="18" height="16" viewBox="0 0 18 16" fill="none" xmlns="http://www.w3.org/2000/svg">
<path d="M17.1043 11.4263C16.9854 10.9654 16.622 10.6223 16.1776 10.5514V3.62264H16.7453C16.902 3.62264 17.0291 3.48747 17.0291 3.32075V0.301887C17.0291 0.135024 16.902 0 16.7453 0H4.25727C4.10053 0 3.97345 0.135024 3.97345 0.301887V3.32075C3.97345 3.48747 4.10053 3.62264 4.25727 3.62264H4.8249V9.66038H4.54108C3.83667 9.65861 3.14666 9.87338 2.55436 10.2789V8.75472C2.55436 8.58785 2.42728 8.45283 2.27054 8.45283H0.283818C0.127081 8.45283 0 8.58785 0 8.75472V15.6981C0 15.8648 0.127081 16 0.283818 16H2.27054C2.42728 16 2.55436 15.8648 2.55436 15.6981V14.1741C3.1468 14.5793 3.83667 14.7941 4.54108 14.7925H9.20135C9.52425 14.7919 9.84562 14.7468 10.1576 14.6583L16.3025 12.9074C16.9071 12.7322 17.2654 12.0706 17.1043 11.4263ZM4.54108 0.603774H16.4614V3.01887H4.54108V0.603774ZM5.39254 3.62264H15.61V10.6033L12.316 11.5429C12.1803 11.1989 11.9036 10.9404 11.5653 10.8418L7.7411 9.75089C7.52574 9.6906 7.30401 9.66008 7.08131 9.66038H5.39254V3.62264ZM1.98672 15.3962H0.567636V9.0566H1.98672V15.3962ZM16.1552 12.3241L10.0114 14.075C9.74709 14.1501 9.47491 14.1882 9.20135 14.1887H4.54108C3.86535 14.1903 3.2075 13.9571 2.66786 13.5245L2.55436 13.434V11.0189L2.66786 10.9282C3.2075 10.4956 3.86535 10.2622 4.54108 10.2642H7.08131C7.25468 10.264 7.42749 10.2879 7.59531 10.3351L11.4183 11.4251C11.6442 11.4913 11.8095 11.6972 11.8353 11.945C11.8383 11.9574 11.842 11.9696 11.8466 11.9816C11.8433 11.9945 11.8408 12.0077 11.8391 12.0211C11.8394 12.0702 11.8332 12.1191 11.8204 12.1663C11.7536 12.4294 11.5295 12.6123 11.2733 12.6128C11.2233 12.6132 11.1737 12.6064 11.1254 12.5929L8.71299 11.9048C8.61404 11.8735 8.50691 11.9018 8.43319 11.9788C8.3596 12.0557 8.33091 12.1691 8.35849 12.2749C8.38607 12.3806 8.46548 12.4623 8.56595 12.4878L10.9784 13.1762C11.0747 13.2031 11.1741 13.2167 11.2739 13.2165C11.7841 13.2162 12.2313 12.8532 12.3662 12.3296C12.382 12.269 12.3926 12.2071 12.3983 12.1446L15.8583 11.1577C15.883 11.1511 15.9097 11.1443 15.935 11.1399C16.2175 11.1011 16.4832 11.2911 16.5562 11.5839C16.569 11.6349 16.5753 11.6875 16.5749 11.7403C16.5753 12.0136 16.4032 12.2529 16.1552 12.3241Z" fill="#63D673"/>
</svg>
