<svg width="19" height="19" viewBox="0 0 19 19" fill="none" xmlns="http://www.w3.org/2000/svg">
<path d="M16.3666 7.85396H16.3195V6.70173C16.3195 3.00047 13.3191 0 9.61779 0C5.91649 0 2.91606 3.00047 2.91606 6.70173V7.85396H2.6339C1.59924 7.85396 0.799745 8.77101 0.799745 9.82922V12.7686C0.773685 13.7942 1.58402 14.6467 2.60964 14.6728C2.61774 14.673 2.6258 14.6732 2.6339 14.6733H4.37399C4.62046 14.6617 4.81089 14.4524 4.79928 14.206C4.79887 14.1971 4.7982 14.1882 4.79725 14.1794V8.41828C4.79725 8.13612 4.63265 7.85391 4.37399 7.85391H3.85666V6.70169C3.85666 3.51992 6.43602 0.94055 9.61779 0.94055C12.7996 0.94055 15.3789 3.51992 15.3789 6.70169V7.85391H14.8616C14.6029 7.85391 14.4383 8.13607 14.4383 8.41828V14.1794C14.4121 14.4248 14.5897 14.6449 14.835 14.6712C14.8439 14.6721 14.8527 14.6728 14.8616 14.6732H15.4024L15.3554 14.7437C14.6498 15.6815 13.5426 16.2307 12.369 16.2252C12.1121 14.9654 10.8825 14.1524 9.62279 14.4094C8.5455 14.6291 7.76878 15.5725 7.7601 16.672C7.77297 17.9615 8.82203 19 10.1116 18.9999C10.7499 18.9896 11.3584 18.7276 11.8046 18.2709C12.1057 17.9626 12.303 17.568 12.369 17.1422C13.8386 17.1478 15.2246 16.4592 16.1078 15.2846L16.5546 14.6261C17.5658 14.5556 18.2007 13.9207 18.2007 13.0036V10.0643C18.2007 9.05322 17.4483 7.85396 16.3666 7.85396ZM3.85666 13.7327H2.6339C2.12755 13.7203 1.72706 13.2999 1.73939 12.7935C1.73962 12.7852 1.73993 12.7769 1.74034 12.7685V9.82917C1.74034 9.28834 2.11657 8.79451 2.6339 8.79451H3.85666V13.7327V13.7327ZM11.1228 17.6126C10.8622 17.8952 10.496 18.057 10.1116 18.0594C9.34657 18.0473 8.72572 17.4367 8.70074 16.672C8.70042 15.9058 9.32132 15.2844 10.0875 15.2841C10.8538 15.2838 11.4752 15.9046 11.4755 16.6709C11.4755 16.6712 11.4755 16.6716 11.4755 16.672C11.4951 17.0211 11.3671 17.3624 11.1228 17.6126ZM17.2601 13.0037C17.2601 13.6386 16.6487 13.7327 16.3666 13.7327H15.3789V8.79455H16.3666C16.8839 8.79455 17.2601 9.52352 17.2601 10.0643V13.0037Z" fill="white"/>
</svg>
