<svg width="30" height="30" viewBox="0 0 30 30" fill="none" xmlns="http://www.w3.org/2000/svg">
<g clip-path="url(#clip0)">
<path d="M6.99999 20.5C6.1716 20.5 5.5 21.1716 5.5 22C5.5 22.8284 6.17154 23.5 6.99999 23.5C7.82845 23.5 8.49999 22.8285 8.49999 22C8.49905 21.172 7.82804 20.5009 6.99999 20.5ZM6.99999 22.5C6.72384 22.5 6.50001 22.2762 6.50001 22C6.50001 21.7239 6.72384 21.5 6.99999 21.5C7.27614 21.5 7.49997 21.7239 7.49997 22C7.49968 22.276 7.27603 22.4997 6.99999 22.5Z" fill="#61B46C"/>
<path d="M23 20.5C22.1716 20.5 21.5 21.1716 21.5 22C21.5 22.8284 22.1716 23.5 23 23.5C23.8284 23.5 24.5 22.8285 24.5 22C24.4991 21.172 23.828 20.5009 23 20.5ZM23 22.5C22.7238 22.5 22.5 22.2762 22.5 22C22.5 21.7239 22.7239 21.5 23 21.5C23.2761 21.5 23.5 21.7239 23.5 22C23.4997 22.276 23.276 22.4997 23 22.5Z" fill="#61B46C"/>
<path d="M29.6189 13.3828L26.1746 9.50391C25.8892 9.18258 25.4798 8.99912 25.0501 9H20.5V6C20.4991 5.17195 19.8281 4.50088 19 4.5H1.5C0.671953 4.50088 0.000878955 5.17195 4.88301e-08 6V19C-5.85449e-05 19.1326 0.0526172 19.2598 0.146426 19.3536C0.240176 19.4474 0.367383 19.5001 0.500039 19.5001H1.00002V21.0001C1.0009 21.8281 1.67197 22.4992 2.50002 22.5001H3.53994C3.78639 24.2215 5.26096 25.5001 7.00002 25.5001C8.73908 25.5001 10.2137 24.2215 10.4601 22.5001H19.54C19.7865 24.2215 21.261 25.5001 23.0001 25.5001C24.7392 25.5001 26.2137 24.2215 26.4602 22.5001H28.5C29.328 22.4992 29.9991 21.8281 30 21.0001V14.3799C29.9996 14.012 29.864 13.6571 29.6189 13.3828ZM1.00002 18.5V6C1.00031 5.72396 1.22396 5.50025 1.5 5.50002H19C19.2761 5.50031 19.4998 5.72396 19.5 6V18.5H1.00002ZM3.53994 21.5H2.50002C2.22398 21.4997 2.00027 21.276 2.00004 21V19.5H4.55531C4.00605 20.0368 3.64916 20.7398 3.53994 21.5ZM7.00002 24.5C5.61932 24.5 4.5 23.3807 4.5 22C4.5 20.6193 5.61932 19.5 7.00002 19.5C8.38072 19.5 9.50004 20.6193 9.50004 22C9.4984 23.38 8.38002 24.4984 7.00002 24.5ZM12 21.5H10.46C10.3508 20.7398 9.99398 20.0368 9.44473 19.5H12V21.5ZM16.5 21.5H13V19.5H16.5V21.5ZM19.54 21.5H17.5V19.5H20.5553C20.006 20.0368 19.6492 20.7398 19.54 21.5ZM23 24.5C21.6193 24.5 20.5 23.3807 20.5 22C20.5 20.6193 21.6192 19.4999 23 19.4999C24.3807 19.4999 25.5 20.6193 25.5 22C25.4984 23.38 24.38 24.4984 23 24.5ZM29 21C28.9997 21.276 28.776 21.4997 28.5 21.5H26.4601C26.2107 19.7801 24.7379 18.5031 23 18.5H20.5V10H22.5V15C22.5009 15.828 23.172 16.4991 24 16.5H29V21ZM29 15.5H24C23.724 15.4997 23.5003 15.276 23.5 15V10H25.0501C25.1936 9.9992 25.3306 10.06 25.4263 10.167L28.8718 14.0474C28.9539 14.1388 28.9995 14.2571 29 14.3799V15.5H29Z" fill="#61B46C"/>
</g>
<defs>
<clipPath id="clip0">
<rect width="30" height="30" fill="white"/>
</clipPath>
</defs>
</svg>
