<svg width="15" height="19" viewBox="0 0 15 19" fill="none" xmlns="http://www.w3.org/2000/svg">
<path d="M14.134 4.07431L10.1757 0.115967C10.1015 0.041748 10.001 0 9.89581 0H1.58331C0.710496 0 0 0.710088 0 1.58335V17.4167C0 18.2899 0.710496 19 1.58335 19H12.6667C13.5395 19 14.25 18.2899 14.25 17.4167V4.35415C14.25 4.24902 14.2083 4.14853 14.134 4.07431ZM10.2917 1.35141L12.8986 3.95835H11.0833C10.6465 3.95835 10.2917 3.6031 10.2917 3.16669V1.35141V1.35141ZM13.4583 17.4167C13.4583 17.8531 13.1035 18.2083 12.6667 18.2083H1.58335C1.14653 18.2083 0.791691 17.8531 0.791691 17.4167V1.58335C0.791691 1.14694 1.14657 0.791691 1.58335 0.791691H9.5V3.16669C9.5 4.03991 10.2105 4.75 11.0833 4.75H13.4583V17.4167Z" fill="white"/>
<path d="M11.4792 11.0834H2.77085C2.55205 11.0834 2.375 11.2604 2.375 11.4792C2.375 11.698 2.55205 11.8751 2.77085 11.8751H11.4792C11.698 11.8751 11.875 11.698 11.875 11.4792C11.875 11.2604 11.698 11.0834 11.4792 11.0834Z" fill="white"/>
<path d="M11.4792 8.70837H2.77085C2.55205 8.70837 2.375 8.88542 2.375 9.10422C2.375 9.32302 2.55205 9.50006 2.77085 9.50006H11.4792C11.698 9.50006 11.875 9.32302 11.875 9.10422C11.875 8.88542 11.698 8.70837 11.4792 8.70837Z" fill="white"/>
<path d="M11.4792 13.4584H2.77085C2.55205 13.4584 2.375 13.6354 2.375 13.8542C2.375 14.073 2.55205 14.2501 2.77085 14.2501H11.4792C11.698 14.2501 11.875 14.073 11.875 13.8542C11.875 13.6354 11.698 13.4584 11.4792 13.4584Z" fill="white"/>
<path d="M7.52085 15.8334H2.77085C2.55205 15.8334 2.375 16.0104 2.375 16.2292C2.375 16.448 2.55205 16.6251 2.77085 16.6251H7.52085C7.73964 16.6251 7.91669 16.448 7.91669 16.2292C7.91665 16.0104 7.73964 15.8334 7.52085 15.8334Z" fill="white"/>
<path d="M6.33337 6.7291C6.33337 6.94789 6.51042 7.12494 6.72922 7.12494H11.4792C11.698 7.12494 11.8751 6.94789 11.8751 6.7291C11.8751 6.5103 11.698 6.33325 11.4792 6.33325H6.72922C6.51042 6.33329 6.33337 6.51034 6.33337 6.7291Z" fill="white"/>
<path d="M3.5625 6.33333H2.77085C2.55205 6.33333 2.375 6.51037 2.375 6.72917C2.375 6.94797 2.55205 7.12502 2.77085 7.12502H3.16669C3.16669 7.34381 3.34374 7.52086 3.56254 7.52086C3.78133 7.52086 3.95838 7.34381 3.95838 7.12502V7.0521C4.41809 6.88811 4.75 6.45286 4.75 5.93748C4.75 5.28265 4.21733 4.74998 3.5625 4.74998C3.34448 4.74998 3.16665 4.57256 3.16665 4.35413C3.16665 4.13575 3.34448 3.95829 3.5625 3.95829H4.35415C4.57295 3.95829 4.75 3.78124 4.75 3.56244C4.75 3.34365 4.57295 3.1666 4.35415 3.1666H3.95831C3.95831 2.9478 3.78126 2.77075 3.56246 2.77075C3.34367 2.77075 3.16662 2.9478 3.16662 3.1666V3.23952C2.70691 3.4035 2.375 3.83876 2.375 4.35413C2.375 5.00897 2.90767 5.54163 3.5625 5.54163C3.78052 5.54163 3.95835 5.71905 3.95835 5.93748C3.95835 6.15591 3.78052 6.33333 3.5625 6.33333Z" fill="white"/>
</svg>
