<svg width="35" height="35" viewBox="0 0 35 35" fill="none" xmlns="http://www.w3.org/2000/svg">
<g clip-path="url(#clip0)">
<path d="M7.32672 18.9583C5.37247 18.9583 3.78125 20.5946 3.78125 22.6041C3.78125 24.6137 5.37247 26.25 7.32672 26.25C9.28097 26.25 10.8722 24.6138 10.8722 22.6042C10.8722 20.5946 9.28097 18.9583 7.32672 18.9583ZM7.32672 24.7917C6.15385 24.7917 5.19942 23.8103 5.19942 22.6042C5.19942 21.3981 6.15385 20.4167 7.32672 20.4167C8.49959 20.4167 9.45401 21.3981 9.45401 22.6042C9.45401 23.8102 8.49959 24.7917 7.32672 24.7917Z" fill="#696969"/>
<path d="M28.5997 18.9583C26.6454 18.9583 25.0542 20.5946 25.0542 22.6041C25.0542 24.6137 26.6454 26.25 28.5997 26.25C30.5539 26.25 32.1451 24.6138 32.1451 22.6042C32.1451 20.5946 30.5539 18.9583 28.5997 18.9583ZM28.5997 24.7917C27.4268 24.7917 26.4724 23.8103 26.4724 22.6042C26.4724 21.3981 27.4268 20.4167 28.5997 20.4167C29.7725 20.4167 30.727 21.3981 30.727 22.6042C30.727 23.8102 29.7725 24.7917 28.5997 24.7917Z" fill="#696969"/>
<path d="M30.7269 14.5833H29.5271C29.0889 14.5833 28.6592 14.4288 28.316 14.1458L22.7283 9.54912C22.1015 9.03438 21.3144 8.75 20.5131 8.75H10.2624C9.07394 8.75 7.97201 9.35669 7.31255 10.3731L6.10564 12.2369C5.744 12.7925 5.13985 13.125 4.49029 13.125C2.53604 13.125 0.944824 14.7612 0.944824 16.7708V19.6875C0.944824 21.6971 2.53604 23.3333 4.49029 23.3333C4.88171 23.3333 5.19941 23.0066 5.19941 22.6041C5.19941 22.2016 4.88171 21.875 4.49029 21.875C3.31742 21.875 2.363 20.8936 2.363 19.6875V16.7708C2.363 15.5647 3.31742 14.5833 4.49029 14.5833C5.61636 14.5833 6.66013 14.0088 7.28555 13.0447L8.49246 11.1824C8.88814 10.5729 9.55046 10.2082 10.2624 10.2082H20.5131C20.9952 10.2082 21.4661 10.3789 21.8434 10.6881L27.431 15.2832C28.0224 15.7718 28.7684 16.0416 29.5285 16.0416H30.7269C32.8074 16.0416 33.5633 18.2217 33.5633 19.6874C33.5633 21.1238 32.4941 21.8749 31.4361 21.8749C31.0446 21.8749 30.7269 22.2016 30.7269 22.6041C30.7269 23.0066 31.0446 23.3332 31.4361 23.3332C33.457 23.3333 34.9815 21.7656 34.9815 19.6875C34.9815 17.2127 33.491 14.5833 30.7269 14.5833Z" fill="#696969"/>
<path d="M25.7633 21.875H10.1632C9.7718 21.875 9.4541 22.2017 9.4541 22.6042C9.4541 23.0067 9.7718 23.3334 10.1632 23.3334H25.7634C26.1548 23.3334 26.4725 23.0067 26.4725 22.6042C26.4725 22.2017 26.1548 21.875 25.7633 21.875Z" fill="#696969"/>
<path d="M24.345 14.5833H17.9632V12.3958C17.9632 11.9933 17.6455 11.6666 17.254 11.6666C16.8626 11.6666 16.5449 11.9933 16.5449 12.3958V15.3125C16.5449 15.715 16.8626 16.0417 17.254 16.0417H24.345C24.7365 16.0417 25.0542 15.715 25.0542 15.3125C25.0542 14.91 24.7365 14.5833 24.345 14.5833Z" fill="#696969"/>
<path d="M14.4179 14.5833H9.89244L10.7987 12.7225C10.9731 12.3623 10.8313 11.9248 10.481 11.7439C10.1292 11.5646 9.70524 11.7089 9.52934 12.0706L8.11117 14.9873C8.00055 15.2119 8.01331 15.4817 8.14235 15.6961C8.27138 15.9104 8.49973 16.0417 8.7451 16.0417H14.4179C14.8093 16.0417 15.127 15.715 15.127 15.3125C15.127 14.91 14.8094 14.5833 14.4179 14.5833Z" fill="#696969"/>
<path d="M20.0907 17.5H18.6725C18.2811 17.5 17.9634 17.8267 17.9634 18.2292C17.9634 18.6317 18.2811 18.9584 18.6725 18.9584H20.0907C20.4821 18.9584 20.7998 18.6317 20.7998 18.2292C20.7998 17.8267 20.4821 17.5 20.0907 17.5Z" fill="#696969"/>
</g>
<defs>
<clipPath id="clip0">
<rect x="0.944824" width="34.0367" height="35" fill="white"/>
</clipPath>
</defs>
</svg>
