<svg width="59" height="64" viewBox="0 0 59 64" fill="none" xmlns="http://www.w3.org/2000/svg">
<path d="M34.0384 44.5137C34.2435 44.0363 34.3575 43.5108 34.3575 42.9591C34.3575 40.7807 32.586 39.0083 30.4084 39.0083H24.7483L26.6339 35.8347C27.1889 34.9007 27.3301 33.7676 27.0214 32.7259C26.7125 31.6842 25.9766 30.8113 25.0027 30.3313C23.9065 29.7908 22.6011 29.798 21.5108 30.35C18.3867 31.9325 15.5437 34.0956 13.169 36.6778C12.9578 36.3008 12.5551 36.0456 12.0924 36.0456H1.23392C0.55255 36.0456 0 36.5983 0 37.28V44.0695C0 44.7512 0.55255 45.304 1.23392 45.304C1.91529 45.304 2.46784 44.7512 2.46784 44.0695V38.5145H10.8585V60.7347H2.46784V55.1796C2.46784 54.498 1.91529 53.9452 1.23392 53.9452C0.55255 53.9452 0 54.498 0 55.1796V61.9692C0 62.6508 0.55255 63.2036 1.23392 63.2036H12.0924C12.7738 63.2036 13.3263 62.6508 13.3263 61.9692V61.9248C14.794 62.7506 16.4657 63.2036 18.1633 63.2036H29.5524C31.7287 63.2036 33.499 61.4323 33.499 59.2552C33.499 58.7322 33.3959 58.2331 33.2105 57.7758H33.2873C35.465 57.7758 37.2366 56.0035 37.2366 53.825C37.2366 52.7733 36.823 51.8172 36.151 51.1085C36.823 50.3998 37.2366 49.4436 37.2366 48.392C37.2365 46.4704 35.858 44.8656 34.0384 44.5137ZM33.2872 55.3068H25.2358C24.5544 55.3068 24.0019 55.8596 24.0019 56.5413C24.0019 57.2229 24.5544 57.7757 25.2358 57.7757H29.5521C30.3675 57.7757 31.0309 58.4394 31.0309 59.2551C31.0309 60.0708 30.3676 60.7347 29.5523 60.7347H18.1632C16.3929 60.7347 14.6597 60.0792 13.3262 58.924V40.3358L13.4105 40.2252C15.8497 37.0237 19.0362 34.3708 22.6257 32.5528C23.0271 32.3493 23.5077 32.3466 23.9118 32.5459C24.2759 32.7252 24.54 33.0385 24.6553 33.4279C24.7708 33.8172 24.72 34.2239 24.5127 34.573L21.5186 39.6119C21.2918 39.9934 21.2874 40.4673 21.5066 40.853C21.726 41.2389 22.1355 41.4772 22.5791 41.4772H30.4082C31.225 41.4772 31.8896 42.142 31.8896 42.9591C31.8896 43.7762 31.225 44.4411 30.4082 44.4411H25.2358C24.5544 44.4411 24.0019 44.9939 24.0019 45.6756C24.0019 46.3572 24.5544 46.91 25.2358 46.91H33.2872C34.1041 46.91 34.7687 47.5749 34.7687 48.392C34.7687 49.2092 34.1041 49.8741 33.2872 49.8741H25.2358C24.5544 49.8741 24.0019 50.4269 24.0019 51.1085C24.0019 51.7902 24.5544 52.343 25.2358 52.343H33.2872C34.1041 52.343 34.7687 53.0079 34.7687 53.825C34.7687 54.642 34.1042 55.3068 33.2872 55.3068Z" fill="#61B46C"/>
<path d="M40.3565 15.2744L35.0624 14.505L32.6947 9.70558C32.4868 9.28427 32.0579 9.01751 31.5882 9.01751C31.1184 9.01751 30.6895 9.28427 30.4816 9.70558L28.1139 14.505L22.8198 15.2744C22.3549 15.3421 21.9689 15.6678 21.8237 16.1147C21.6785 16.5616 21.7996 17.0521 22.1358 17.3801L25.9668 21.1158L25.0624 26.3908C24.983 26.8539 25.1734 27.3219 25.5534 27.598C25.9335 27.8742 26.4373 27.9105 26.8529 27.6921L31.5882 25.2015L36.3234 27.6921C36.504 27.7872 36.7011 27.8338 36.8975 27.8338C37.1533 27.8338 37.4079 27.7542 37.6229 27.598C38.0028 27.3219 38.1932 26.8539 38.1139 26.3908L37.2095 21.1158L41.0405 17.3801C41.3768 17.0521 41.4978 16.5616 41.3527 16.1147C41.2075 15.6678 40.8214 15.3421 40.3565 15.2744ZM35.0224 19.8008C34.7317 20.0845 34.5989 20.493 34.6675 20.8935L35.2589 24.3429L32.1624 22.7143C31.9828 22.6197 31.7855 22.5726 31.5883 22.5726C31.3911 22.5726 31.1938 22.6199 31.0141 22.7143L27.9176 24.3429L28.509 20.8935C28.5776 20.4931 28.4449 20.0845 28.1542 19.8008L25.6491 17.358L29.1109 16.8549C29.5129 16.7963 29.8603 16.5438 30.0401 16.1795L31.5883 13.0411L33.1365 16.1795C33.3163 16.5438 33.6636 16.7963 34.0656 16.8549L37.5275 17.358L35.0224 19.8008Z" fill="#61B46C"/>
<path d="M58.5306 18.222C58.3853 17.7751 57.9992 17.4494 57.5344 17.3817L53.4784 16.7923L51.6645 13.1152C51.4566 12.6939 51.0277 12.4271 50.5579 12.4271C50.0882 12.4271 49.6593 12.6939 49.4514 13.1152L47.6375 16.7923L43.5815 17.3817C43.1165 17.4494 42.7306 17.7751 42.5853 18.222C42.4402 18.6688 42.5613 19.1594 42.8975 19.4874L45.8325 22.3495L45.1397 26.3908C45.0602 26.8539 45.2506 27.3219 45.6307 27.598C46.0107 27.8744 46.5145 27.9105 46.9301 27.6921L50.5579 25.7841L54.1858 27.6921C54.3663 27.787 54.5635 27.8338 54.7598 27.8338C55.0156 27.8338 55.2703 27.7542 55.4852 27.598C55.8652 27.3219 56.0556 26.8539 55.9762 26.3908L55.2834 22.3495L58.2184 19.4874C58.5546 19.1594 58.6755 18.6688 58.5306 18.222ZM53.0961 21.0345C52.8054 21.3182 52.6726 21.7266 52.7412 22.1272L53.1212 24.3429L51.1321 23.2967C50.9523 23.2021 50.7551 23.155 50.5579 23.155C50.3608 23.155 50.1636 23.2023 49.9838 23.2967L47.9947 24.3429L48.3746 22.1272C48.4433 21.7268 48.3105 21.3182 48.0198 21.0345L46.4105 19.4653L48.6343 19.1421C49.0363 19.0836 49.3836 18.831 49.5634 18.4668L50.5579 16.4507L51.5525 18.4668C51.7323 18.831 52.0796 19.0836 52.4816 19.1421L54.7054 19.4653L53.0961 21.0345Z" fill="#61B46C"/>
<path d="M7.89335 22.3495L7.2005 26.3908C7.12104 26.8539 7.31143 27.3219 7.69148 27.598C8.07152 27.8744 8.57521 27.9105 8.99092 27.6921L12.6188 25.7841L16.2466 27.6921C16.4271 27.787 16.6243 27.8338 16.8206 27.8338C17.0764 27.8338 17.3311 27.7542 17.546 27.598C17.926 27.3219 18.1164 26.8539 18.037 26.3908L17.3442 22.3495L20.2792 19.4874C20.6155 19.1594 20.7365 18.6688 20.5914 18.222C20.4461 17.7751 20.06 17.4494 19.5952 17.3817L15.5392 16.7923L13.7253 13.1152C13.5174 12.6939 13.0885 12.4271 12.6188 12.4271C12.149 12.4271 11.7201 12.6939 11.5122 13.1152L9.69832 16.7923L5.64231 17.3817C5.17737 17.4494 4.7914 17.7751 4.64616 18.222C4.50106 18.6688 4.6221 19.1594 4.95835 19.4874L7.89335 22.3495ZM10.6951 19.1421C11.0971 19.0836 11.4444 18.831 11.6242 18.4668L12.6188 16.4507L13.6133 18.4668C13.7931 18.831 14.1404 19.0836 14.5424 19.1421L16.7662 19.4653L15.1569 21.0345C14.8662 21.3182 14.7335 21.7266 14.8021 22.1272L15.182 24.3429L13.1929 23.2967C13.0131 23.2021 12.8159 23.155 12.6188 23.155C12.4216 23.155 12.2244 23.2023 12.0446 23.2967L10.0555 24.3429L10.4355 22.1272C10.5041 21.7268 10.3713 21.3182 10.0806 21.0345L8.47131 19.4653L10.6951 19.1421Z" fill="#61B46C"/>
<path d="M31.5752 6.11304C32.2566 6.11304 32.8091 5.56024 32.8091 4.87856V1.23448C32.8091 0.552802 32.2566 0 31.5752 0C30.8938 0 30.3413 0.552802 30.3413 1.23448V4.87856C30.3413 5.56024 30.8938 6.11304 31.5752 6.11304Z" fill="#61B46C"/>
<path d="M22.4732 8.75855C22.7142 8.99896 23.0299 9.11929 23.3457 9.11929C23.6615 9.11929 23.9772 8.99896 24.2182 8.75855C24.7001 8.27759 24.7001 7.49772 24.2182 7.01664L22.0808 4.88321C21.5988 4.40238 20.8178 4.40238 20.3357 4.88321C19.8538 5.36416 19.8538 6.14403 20.3357 6.62511L22.4732 8.75855Z" fill="#61B46C"/>
<path d="M39.8308 9.11929C40.1466 9.11929 40.4624 8.99896 40.7034 8.75854L42.8409 6.62508C43.3227 6.14412 43.3227 5.36437 42.8409 4.88316C42.359 4.40245 41.578 4.40233 41.0957 4.88316L38.9582 7.01675C38.4764 7.49771 38.4764 8.27746 38.9582 8.75867C39.1993 8.99896 39.515 9.11929 39.8308 9.11929Z" fill="#61B46C"/>
<path d="M2.10672 50.4932C2.33623 50.2642 2.46826 49.9462 2.46826 49.6221C2.46826 49.298 2.33636 48.9801 2.10672 48.7509C1.87598 48.5217 1.55886 48.3898 1.23434 48.3898C0.909824 48.3898 0.591474 48.5216 0.360731 48.7509C0.131346 48.9801 0.000427246 49.298 0.000427246 49.6221C0.000427246 49.9462 0.131346 50.2642 0.360731 50.4932C0.591474 50.7224 0.90859 50.8544 1.23434 50.8544C1.55886 50.8544 1.87722 50.7226 2.10672 50.4932Z" fill="#61B46C"/>
</svg>
