<svg width="138" height="137" viewBox="0 0 138 137" fill="none" xmlns="http://www.w3.org/2000/svg">
<g filter="url(#filter0_d)">
<ellipse cx="68.9745" cy="68.5" rx="46.9745" ry="46.5" fill="white"/>
</g>
<path d="M69.9235 40.0306C53.9641 40.0306 40.9796 53.0151 40.9796 68.9745C40.9796 84.9339 53.9641 97.9184 69.9235 97.9184C85.8829 97.9184 98.8674 84.9339 98.8674 68.9745C98.8674 53.0151 85.8829 40.0306 69.9235 40.0306ZM71.1295 95.4453V91.8883C71.1295 91.2217 70.5901 90.6823 69.9235 90.6823C69.2569 90.6823 68.7175 91.2217 68.7175 91.8883V95.4453C55.0519 94.8265 44.0714 83.8461 43.4526 70.1804H47.0096C47.6762 70.1805 48.2156 69.6411 48.2156 68.9745C48.2156 68.3079 47.6762 67.7685 47.0096 67.7685H43.4526C44.0714 54.1029 55.0518 43.1224 68.7175 42.5036V46.0606C68.7175 46.7272 69.2569 47.2666 69.9235 47.2666C70.5901 47.2666 71.1295 46.7272 71.1295 46.0606V42.5036C84.7951 43.1224 95.7756 54.1028 96.3944 67.7685H92.8374C92.1708 67.7685 91.6314 68.3079 91.6314 68.9745C91.6314 69.6411 92.1708 70.1805 92.8374 70.1805H96.3944C95.7756 83.8461 84.7951 94.8266 71.1295 95.4453Z" fill="#61B46C"/>
<path d="M72.2165 69.5622C72.2664 69.3692 72.3354 69.1829 72.3354 68.9745C72.3354 68.4697 72.1435 68.0268 71.8772 67.6391L79.4584 51.3946C79.7399 50.7916 79.4796 50.0731 78.8754 49.7917C78.2736 49.5148 77.5552 49.7728 77.2725 50.3747L69.6968 66.6085C68.4785 66.7286 67.5115 67.7253 67.5115 68.9745C67.5115 70.3041 68.5939 71.3865 69.9235 71.3865C70.1318 71.3865 70.3182 71.3174 70.5112 71.2675L79.9247 80.6811C80.1602 80.9166 80.4689 81.0344 80.7774 81.0344C81.086 81.0344 81.3945 80.9166 81.6302 80.6811C82.1013 80.2099 82.1013 79.4468 81.6302 78.9757L72.2165 69.5622Z" fill="#61B46C"/>
<defs>
<filter id="filter0_d" x="0" y="0" width="137.949" height="137" filterUnits="userSpaceOnUse" color-interpolation-filters="sRGB">
<feFlood flood-opacity="0" result="BackgroundImageFix"/>
<feColorMatrix in="SourceAlpha" type="matrix" values="0 0 0 0 0 0 0 0 0 0 0 0 0 0 0 0 0 0 127 0"/>
<feOffset/>
<feGaussianBlur stdDeviation="11"/>
<feColorMatrix type="matrix" values="0 0 0 0 0 0 0 0 0 0 0 0 0 0 0 0 0 0 0.2 0"/>
<feBlend mode="normal" in2="BackgroundImageFix" result="effect1_dropShadow"/>
<feBlend mode="normal" in="SourceGraphic" in2="effect1_dropShadow" result="shape"/>
</filter>
</defs>
</svg>
