<svg width="19" height="19" viewBox="0 0 19 19" fill="none" xmlns="http://www.w3.org/2000/svg">
<path d="M9.75823 19H8.60571C7.67356 19 6.91515 18.2154 6.91515 17.2509V16.8475C6.51885 16.7165 6.13382 16.5512 5.76392 16.3531L5.4876 16.639C4.81836 17.3323 3.74632 17.3119 3.09652 16.6387L2.28194 15.796C1.63099 15.1232 1.61226 14.0144 2.28215 13.3221L2.55826 13.0364C2.36684 12.6537 2.20705 12.2554 2.0804 11.8453H1.69053C0.758411 11.8453 0 11.0607 0 10.0962V8.90376C0 7.93933 0.758411 7.15469 1.69056 7.15469H2.08044C2.20708 6.74463 2.36687 6.3463 2.5583 5.96359L2.28198 5.67773C1.61248 4.98579 1.63095 3.87689 2.28219 3.20384L3.09684 2.36101C3.74815 1.68621 4.81993 1.66937 5.48789 2.36123L5.76396 2.64686C6.13385 2.44885 6.51889 2.28349 6.91518 2.15246V1.74908C6.91518 0.784641 7.67356 0 8.60575 0H9.75826C10.6904 0 11.4488 0.784641 11.4488 1.74908V2.15249C11.8451 2.28349 12.2301 2.44885 12.6 2.6469L12.8763 2.36101C13.5456 1.66773 14.6176 1.68807 15.2674 2.36127L16.082 3.20402C16.733 3.87678 16.7517 4.98557 16.0818 5.67792L15.8057 5.96359C15.9971 6.3463 16.1569 6.74459 16.2835 7.15469H16.6734C17.6056 7.15469 18.364 7.93933 18.364 8.90376V10.0962C18.364 11.0607 17.6056 11.8453 16.6734 11.8453H16.2835C16.1569 12.2554 15.9971 12.6537 15.8057 13.0364L16.082 13.3223C16.7515 14.0142 16.733 15.1231 16.0818 15.7962L15.2671 16.639C14.6158 17.3138 13.544 17.3307 12.8761 16.6388L12.6 16.3532C12.2301 16.5512 11.8451 16.7165 11.4488 16.8476V17.251C11.4488 18.2154 10.6904 19 9.75823 19V19ZM5.94379 15.184C6.45766 15.4985 7.01073 15.736 7.58762 15.89C7.82521 15.9535 7.9912 16.1752 7.9912 16.429V17.2509C7.9912 17.6015 8.26691 17.8867 8.60575 17.8867H9.75826C10.0971 17.8867 10.3728 17.6015 10.3728 17.2509V16.429C10.3728 16.1752 10.5388 15.9535 10.7764 15.89C11.3533 15.736 11.9063 15.4985 12.4202 15.184C12.6317 15.0547 12.9008 15.0899 13.0745 15.2696L13.6372 15.8518C13.8798 16.1031 14.2694 16.0973 14.5061 15.852L15.3212 15.0087C15.5573 14.7647 15.5652 14.3616 15.3214 14.1097L14.7585 13.5273C14.5848 13.3476 14.5508 13.0691 14.6758 12.8503C14.9797 12.3187 15.2093 11.7465 15.3582 11.1496C15.4195 10.9038 15.6338 10.7321 15.8791 10.7321H16.6734C17.0123 10.7321 17.288 10.4468 17.288 10.0963V8.9038C17.288 8.55323 17.0123 8.26801 16.6734 8.26801H15.8791C15.6337 8.26801 15.4195 8.09626 15.3582 7.85049C15.2093 7.25358 14.9797 6.68136 14.6758 6.14973C14.5508 5.93101 14.5848 5.65246 14.7585 5.47278L15.3212 4.89057C15.5645 4.63919 15.5581 4.23618 15.3214 3.9916L14.5064 3.14829C14.2701 2.90351 13.8804 2.89635 13.6375 3.14806L13.0746 3.73049C12.9009 3.91021 12.6316 3.94539 12.4203 3.81603C11.9064 3.5016 11.3533 3.26407 10.7764 3.11003C10.5388 3.04661 10.3728 2.82491 10.3728 2.57105V1.74908C10.3728 1.3985 10.0971 1.11328 9.7583 1.11328H8.60578C8.26695 1.11328 7.99123 1.3985 7.99123 1.74908V2.57097C7.99123 2.82484 7.82524 3.04653 7.58766 3.10995C7.01077 3.26399 6.4577 3.50153 5.94383 3.81596C5.73236 3.94528 5.46318 3.9101 5.28951 3.73042L4.72682 3.14821C4.48422 2.89691 4.09459 2.90273 3.85798 3.14795L3.04282 3.9913C2.80675 4.23526 2.79886 4.63837 3.04261 4.89027L3.60554 5.47271C3.77921 5.65239 3.81322 5.93093 3.68822 6.14965C3.38432 6.68128 3.15477 7.25351 3.00588 7.85041C2.94455 8.09623 2.73028 8.26793 2.48495 8.26793H1.69056C1.35172 8.26797 1.07601 8.55319 1.07601 8.90376V10.0962C1.07601 10.4468 1.35172 10.732 1.69056 10.732H2.48491C2.73028 10.732 2.94451 10.9038 3.00585 11.1495C3.15473 11.7465 3.38432 12.3187 3.68818 12.8503C3.81318 13.069 3.77918 13.3476 3.60551 13.5273L3.04279 14.1095C2.79954 14.3608 2.80589 14.7639 3.04257 15.0084L3.85765 15.8518C4.09391 16.0965 4.48357 16.1037 4.72654 15.852L5.28943 15.2695C5.41741 15.1372 5.68365 15.0248 5.94379 15.184V15.184Z" fill="#696969"/>
<path d="M9.18206 13.6338C6.97885 13.6338 5.18646 11.7793 5.18646 9.49982C5.18646 7.22035 6.97885 5.36584 9.18206 5.36584C11.3853 5.36584 13.1777 7.22035 13.1777 9.49982C13.1777 11.7793 11.3853 13.6338 9.18206 13.6338V13.6338ZM9.18206 6.47912C7.57216 6.47912 6.26248 7.83421 6.26248 9.49982C6.26248 11.1654 7.5722 12.5205 9.18206 12.5205C10.7919 12.5205 12.1016 11.1654 12.1016 9.49982C12.1016 7.83421 10.792 6.47912 9.18206 6.47912V6.47912Z" fill="#696969"/>
</svg>
