<svg width="17" height="17" viewBox="0 0 17 17" fill="none" xmlns="http://www.w3.org/2000/svg">
<path d="M13.2812 6.24219H12.0847V3.51189C12.0847 1.57542 10.4761 0 8.49877 0C6.52149 0 4.91283 1.57542 4.91283 3.51189V6.24219H3.71875C2.62026 6.24219 1.72656 7.13588 1.72656 8.23438V15.0078C1.72656 16.1063 2.62026 17 3.71875 17H13.2812C14.3797 17 15.2734 16.1063 15.2734 15.0078V8.23438C15.2734 7.13588 14.3797 6.24219 13.2812 6.24219ZM6.24096 3.51189C6.24096 2.30775 7.25382 1.32812 8.49877 1.32812C9.74372 1.32812 10.7566 2.30775 10.7566 3.51189V6.24219H6.24096V3.51189ZM13.9453 15.0078C13.9453 15.374 13.6474 15.6719 13.2812 15.6719H3.71875C3.35259 15.6719 3.05469 15.374 3.05469 15.0078V8.23438C3.05469 7.86821 3.35259 7.57031 3.71875 7.57031H13.2812C13.6474 7.57031 13.9453 7.86821 13.9453 8.23438V15.0078Z" fill="#61B46C"/>
<path d="M8.5 9.49609C7.82149 9.49609 7.27148 10.0461 7.27148 10.7246C7.27148 11.1578 7.49594 11.5384 7.83471 11.7572V13.2148C7.83471 13.5816 8.13201 13.8789 8.49877 13.8789C8.8655 13.8789 9.16283 13.5816 9.16283 13.2148V11.7587C9.50297 11.5402 9.72852 11.1589 9.72852 10.7246C9.72852 10.0461 9.17851 9.49609 8.5 9.49609Z" fill="#61B46C"/>
</svg>
