<svg width="24" height="26" viewBox="0 0 24 26" fill="none" xmlns="http://www.w3.org/2000/svg">
<path d="M14.7118 4.31312V6.46974C14.7118 8.13467 13.404 9.48898 11.7964 9.48898C10.1888 9.48898 8.88096 8.13467 8.88096 6.46974V4.31312H8.04797V6.46974C8.04797 8.60995 9.72977 10.3516 11.7964 10.3516C13.8634 10.3516 15.5448 8.60995 15.5448 6.46974V4.31312H14.7118Z" fill="#61B46C"/>
<path d="M23.5039 22.1256L21.2624 12.8317C21.0241 11.8776 20.1949 11.2285 19.2753 11.2155L14.2949 10.8153V9.05764H13.4619V11.2142C13.4619 11.4394 13.6293 11.6266 13.8463 11.6443L19.244 12.0769H19.2465C19.8163 12.0769 20.3135 12.4758 20.4555 13.0439L22.6962 22.3353C22.7375 22.5065 22.7587 22.6829 22.7587 22.8598C22.7583 24.0489 21.8241 25.0164 20.6759 25.0164V25.8789C22.2831 25.8789 23.5913 24.5246 23.5917 22.8597C23.5918 22.6122 23.5622 22.365 23.5039 22.1256Z" fill="#61B46C"/>
<path d="M9.29744 9.05764V10.8152L4.35038 11.2142H4.34623C3.39707 11.2142 2.56783 11.8788 2.32917 12.835L0.0888596 22.1251C-0.100659 22.9075 0.0151604 23.7192 0.415381 24.4111C0.815211 25.1029 1.45161 25.592 2.20671 25.7878C2.43869 25.8482 2.67736 25.8788 2.91681 25.8788V25.0162C2.74603 25.0162 2.57569 24.9942 2.40994 24.951C1.87018 24.8108 1.41579 24.4619 1.13007 23.9676C0.844349 23.4733 0.761474 22.8936 0.896817 22.3342L3.13668 13.0472C3.27954 12.4748 3.77806 12.0754 4.382 12.0754L9.74637 11.6441C9.96293 11.6269 10.1304 11.4392 10.1304 11.2141V9.05764H9.29744Z" fill="#61B46C"/>
<path d="M13.4623 0H10.1304C8.98214 0 8.04797 0.967434 8.04797 2.15661V4.74452C8.04797 4.98259 8.23456 5.17582 8.46444 5.17582H15.1283C15.3581 5.17582 15.5447 4.98259 15.5447 4.74452V2.15661C15.5448 0.967434 14.6106 0 13.4623 0ZM14.7118 4.31312H8.88096V2.15661C8.88096 1.44322 9.44157 0.862654 10.1304 0.862654H13.4624C14.1512 0.862654 14.7118 1.44322 14.7118 2.15661L14.7118 4.31312Z" fill="#61B46C"/>
<path d="M13.4623 2.58791H10.1304C8.98213 2.58791 8.04797 3.55511 8.04797 4.74452C8.04797 4.98259 8.23456 5.17582 8.46444 5.17582H15.1283C15.3581 5.17582 15.5447 4.98259 15.5447 4.74452C15.5448 3.55511 14.6106 2.58791 13.4623 2.58791ZM8.95255 4.31352C9.12416 3.81135 9.58729 3.45069 10.1304 3.45069H13.4623C14.0054 3.45069 14.4686 3.81135 14.6406 4.31352H8.95255Z" fill="#61B46C"/>
<path d="M11.7964 6.46974V4.74463H10.9634V6.90106C10.9634 7.13911 11.15 7.33233 11.3798 7.33233H12.2128V6.46974H11.7964Z" fill="#61B46C"/>
<path d="M8.04795 23.291H4.71602V22.4283C4.71602 21.7149 4.15542 21.1344 3.46655 21.1344C2.77769 21.1344 2.21709 21.7149 2.21709 22.4283V25.4475C2.21709 25.686 2.40368 25.8788 2.63356 25.8788H6.38196C7.5302 25.8788 8.46442 24.9114 8.46442 23.7222C8.46442 23.4837 8.27783 23.291 8.04795 23.291ZM6.38201 25.0162H3.05008V22.4283C3.05008 22.1903 3.23706 21.997 3.46655 21.997C3.69605 21.997 3.88303 22.1903 3.88303 22.4283V23.7223C3.88303 23.9608 4.06962 24.1536 4.2995 24.1536H7.56017C7.38822 24.6556 6.92509 25.0162 6.38201 25.0162Z" fill="#61B46C"/>
<path d="M4.29912 18.5465H1.38371V19.4076H4.29912V18.5465Z" fill="#61B46C"/>
<path d="M22.2082 18.5465H19.2928V19.4076H22.2082V18.5465Z" fill="#61B46C"/>
<path d="M19.2932 12.9395H4.29958C4.06969 12.9395 3.8831 13.1327 3.8831 13.3707L3.88303 23.7223C3.88303 23.9608 4.06962 24.1536 4.2995 24.1536L19.2932 24.1535C19.5231 24.1535 19.7097 23.9607 19.7097 23.7222V13.3707C19.7097 13.1327 19.5235 12.9395 19.2932 12.9395ZM18.8767 23.2909L4.71602 23.291L4.71605 13.8021H18.8767L18.8767 23.2909Z" fill="#61B46C"/>
<path d="M18.0433 21.5657H17.2103V22.4269H18.0433V21.5657Z" fill="#61B46C"/>
<path d="M16.3773 21.5657H15.5443V22.4269H16.3773V21.5657Z" fill="#61B46C"/>
<path d="M13.5839 10.9093L11.7964 12.7609L10.0084 10.9093L9.41945 11.5192L11.5019 13.6757C11.5798 13.7568 11.686 13.8021 11.7964 13.8021C11.9067 13.8021 12.0129 13.7568 12.0908 13.6757L14.1728 11.5192L13.5839 10.9093Z" fill="#61B46C"/>
<path d="M20.1262 21.1344C19.4373 21.1344 18.8767 21.7149 18.8767 22.4283L18.8767 23.2909L15.5448 23.291C15.3145 23.291 15.1283 23.4838 15.1283 23.7223C15.1283 24.9114 16.0625 25.8789 17.2108 25.8789H20.9592C21.189 25.8789 21.3756 25.6861 21.3756 25.4476V22.4284C21.3756 21.7149 20.815 21.1344 20.1262 21.1344ZM20.5426 25.0163H17.2107C16.6676 25.0163 16.2045 24.6557 16.0325 24.1536L19.2932 24.1535C19.5231 24.1535 19.7097 23.9607 19.7097 23.7222L19.7096 22.4283C19.7096 22.1903 19.8962 21.997 20.1261 21.997C20.356 21.997 20.5425 22.1903 20.5425 22.4283L20.5426 25.0163Z" fill="#61B46C"/>
<path d="M19.2927 15.9586H4.29911V16.8196H19.2927V15.9586Z" fill="#61B46C"/>
</svg>
