<svg width="10" height="12" viewBox="0 0 10 12" fill="none" xmlns="http://www.w3.org/2000/svg">
<path d="M9.77052 2.68222L9.50557 1.888C9.40468 1.58551 9.1226 1.38226 8.80382 1.38226H6.57698V0.657257C6.57698 0.294891 6.28236 0 5.92009 0H3.88084C3.51866 0 3.22395 0.294891 3.22395 0.657257V1.38226H0.997205C0.678327 1.38226 0.396253 1.58551 0.295362 1.888L0.0304084 2.68222C-0.0299249 2.86304 0.000653766 3.06326 0.112073 3.2179C0.223493 3.37253 0.40376 3.4649 0.594373 3.4649H0.87132L1.48088 11.0025C1.5262 11.5618 2.00081 12 2.56157 12H7.36305C7.92372 12 8.39842 11.5618 8.44365 11.0024L9.05321 3.4649H9.20656C9.39717 3.4649 9.57744 3.37253 9.68886 3.21799C9.80027 3.06335 9.83085 2.86304 9.77052 2.68222ZM3.92708 0.703125H5.87385V1.38226H3.92708V0.703125ZM7.74281 10.9458C7.72688 11.1427 7.56007 11.2969 7.36305 11.2969H2.56157C2.36455 11.2969 2.19774 11.1427 2.18181 10.9458L1.57673 3.4649H8.34779L7.74281 10.9458ZM0.745161 2.76178L0.962415 2.11047C0.967359 2.09546 0.981367 2.08539 0.997205 2.08539H8.80382C8.81965 2.08539 8.83357 2.09546 8.83861 2.11047L9.05586 2.76178H0.745161Z" fill="#D6152B"/>
<path d="M6.62149 10.9206C6.62771 10.9209 6.63385 10.921 6.64007 10.921C6.82584 10.921 6.98111 10.7754 6.99082 10.5878L7.32096 4.25029C7.33103 4.05638 7.18198 3.89095 6.98816 3.88088C6.79379 3.87053 6.6289 4.01976 6.61874 4.21367L6.28869 10.5511C6.27862 10.745 6.42758 10.9105 6.62149 10.9206Z" fill="#D6152B"/>
<path d="M2.82584 10.589C2.8361 10.7764 2.99118 10.9214 3.17658 10.9214C3.18299 10.9214 3.18958 10.9213 3.19608 10.9209C3.38989 10.9104 3.53848 10.7446 3.52795 10.5507L3.18216 4.21327C3.17163 4.01936 3.00592 3.87077 2.81202 3.88139C2.6182 3.89192 2.46961 4.05763 2.48014 4.25154L2.82584 10.589Z" fill="#D6152B"/>
<path d="M4.90454 10.9214C5.09872 10.9214 5.2561 10.7641 5.2561 10.5699V4.23242C5.2561 4.03824 5.09872 3.88086 4.90454 3.88086C4.71036 3.88086 4.55298 4.03824 4.55298 4.23242V10.5699C4.55298 10.7641 4.71036 10.9214 4.90454 10.9214Z" fill="#D6152B"/>
</svg>
