<svg width="63" height="61" viewBox="0 0 63 61" fill="none" xmlns="http://www.w3.org/2000/svg">
<path d="M56.3718 48.7486C57.0165 47.8528 57.3959 46.7653 57.3959 45.5929V44.5074C57.3959 41.4563 54.8328 38.974 51.6825 38.974C48.5322 38.974 45.9691 41.4563 45.9691 44.5074V45.5929C45.9691 46.7653 46.3485 47.8528 46.9932 48.7486C44.7609 48.8131 42.7948 49.9185 41.5952 51.5809C40.3956 49.9185 38.4296 48.8132 36.1971 48.7486C36.8418 47.8528 37.2212 46.7653 37.2212 45.5929V44.5074C37.2212 41.4563 34.6581 38.974 31.5078 38.974C28.3575 38.974 25.7944 41.4563 25.7944 44.5074V45.5929C25.7944 46.7653 26.1738 47.8528 26.8185 48.7486C24.5812 48.8132 22.6115 49.9231 21.4127 51.5915C20.2139 49.9231 18.2441 48.8133 16.0069 48.7486C16.6516 47.8528 17.031 46.7653 17.031 45.5929V44.5074C17.031 41.4563 14.468 38.974 11.3176 38.974C8.1673 38.974 5.60426 41.4563 5.60426 44.5074V45.5929C5.60426 46.7653 5.98364 47.8528 6.62837 48.7486C2.95498 48.8548 0 51.7797 0 55.3625V59.8086C0 60.4665 0.550867 61 1.23016 61H61.7698C62.4491 61 63 60.4665 63 59.8086V55.3625C63 51.7797 60.045 48.8548 56.3718 48.7486ZM48.4294 44.5074C48.4294 42.7702 49.8888 41.3568 51.6825 41.3568C53.4762 41.3568 54.9355 42.7702 54.9355 44.5074V45.5929C54.9355 47.3301 53.4762 48.7435 51.6825 48.7435C49.8888 48.7435 48.4294 47.3301 48.4294 45.5929V44.5074ZM28.2548 44.5074C28.2548 42.7702 29.7141 41.3568 31.5078 41.3568C33.3015 41.3568 34.7609 42.7702 34.7609 44.5074V45.5929C34.7609 47.3301 33.3015 48.7435 31.5078 48.7435C29.7141 48.7435 28.2548 47.3301 28.2548 45.5929V44.5074ZM8.06446 44.5074C8.06446 42.7702 9.5238 41.3568 11.3175 41.3568C13.1112 41.3568 14.5705 42.7702 14.5705 44.5074V45.5929C14.5705 47.3301 13.1112 48.7435 11.3175 48.7435C9.5238 48.7435 8.06446 47.3301 8.06446 45.5929V44.5074ZM20.1747 58.6172H2.46033V55.3625C2.46033 53.0268 4.42244 51.1263 6.8343 51.1263H15.8008C18.2126 51.1263 20.1748 53.0266 20.1748 55.3625L20.1747 58.6172ZM22.6506 55.3625C22.6506 53.0268 24.6127 51.1263 27.0246 51.1263H35.9911C38.4029 51.1263 40.3651 53.0266 40.3651 55.3625V58.6172H22.6508L22.6506 55.3625ZM60.5397 58.6172H42.8253V55.3625C42.8253 53.0268 44.7874 51.1263 47.1993 51.1263H56.1658C58.5776 51.1263 60.5398 53.0266 60.5398 55.3625L60.5397 58.6172Z" fill="#61B46C"/>
<path d="M23.0041 32.0227C22.6806 32.0227 22.3632 32.1498 22.1344 32.3712C21.9056 32.5923 21.774 32.8981 21.774 33.2121C21.774 33.5249 21.9055 33.8318 22.1344 34.0529C22.3632 34.2741 22.6806 34.4015 23.0041 34.4015C23.3276 34.4015 23.645 34.2743 23.8737 34.0529C24.1025 33.8305 24.2343 33.5249 24.2343 33.2121C24.2343 32.8992 24.1026 32.5923 23.8737 32.3712C23.645 32.1498 23.3276 32.0227 23.0041 32.0227Z" fill="#61B46C"/>
<path d="M7.87311 34.4055H18.0835C18.7628 34.4055 19.3136 33.872 19.3136 33.2141C19.3136 32.5562 18.7628 32.0226 18.0835 32.0226H9.10327V23.5862C9.10327 21.3714 10.9638 19.5696 13.2505 19.5696H15.2846V25.1393C15.2846 25.617 15.5791 26.0483 16.0327 26.2355C16.4864 26.4225 17.0115 26.3293 17.3672 25.9985L21.774 21.8976V25.4845C21.774 26.1424 22.3248 26.6759 23.0041 26.6759C23.6834 26.6759 24.2343 26.1424 24.2343 25.4845V21.8976L28.6411 25.9985C28.8749 26.2159 29.1819 26.3308 29.4937 26.3308C29.6563 26.3308 29.8201 26.2996 29.9756 26.2355C30.4293 26.0483 30.7237 25.617 30.7237 25.1393V19.5696H32.7577C35.0445 19.5696 36.905 21.3714 36.905 23.5862V32.0226H27.9248C27.2455 32.0226 26.6946 32.5562 26.6946 33.2141C26.6946 33.872 27.2455 34.4055 27.9248 34.4055H38.1352C38.8145 34.4055 39.3653 33.872 39.3653 33.2141V23.5862C39.3653 20.0576 36.4011 17.1868 32.7577 17.1868H28.7196C30.0642 15.8162 30.892 13.9655 30.892 11.9302V7.63936C30.892 3.42711 27.3535 0 23.0041 0C18.6548 0 15.1163 3.42711 15.1163 7.63936V11.9302C15.1163 13.9655 15.9441 15.8162 17.2887 17.1868H13.2505C9.60715 17.1868 6.64294 20.0576 6.64294 23.5862V33.2141C6.64294 33.872 7.19381 34.4055 7.87311 34.4055ZM17.7449 19.5696H20.7245L17.7449 22.3423V19.5696ZM28.2633 22.3424L25.2838 19.5697H28.2633V22.3424ZM17.5766 7.63948C17.5766 4.741 20.0114 2.38295 23.0041 2.38295C25.8065 2.38295 28.1197 4.45053 28.4026 7.09333L25.8313 5.63027C25.3133 5.33552 24.6512 5.44632 24.2653 5.89227C23.1062 7.23189 21.4064 8.00024 19.6017 8.00024H17.5766V7.63948ZM17.5766 11.9302V10.3831H19.6016C21.7822 10.3831 23.8534 9.58458 25.4262 8.16334L28.4317 9.8735V11.9302C28.4317 14.8287 25.997 17.1868 23.0043 17.1868C20.0115 17.1868 17.5766 14.8287 17.5766 11.9302Z" fill="#61B46C"/>
<path d="M39.7119 19.3839C39.9123 19.5071 40.1414 19.5696 40.3715 19.5696C40.5494 19.5696 40.728 19.5322 40.8943 19.4567L45.0641 17.5602H60.3446C61.8001 17.5602 62.9844 16.4133 62.9844 15.0035V2.55665C62.9844 1.14685 61.8001 0 60.3446 0H41.7812C40.3256 0 39.1414 1.14685 39.1414 2.55665V18.3781C39.1414 18.7858 39.3566 19.1653 39.7119 19.3839ZM41.6017 2.55665C41.6017 2.46074 41.6821 2.38282 41.7812 2.38282H60.3446C60.4436 2.38282 60.5241 2.46074 60.5241 2.55665V15.0034C60.5241 15.0993 60.4436 15.1772 60.3446 15.1772H44.7897C44.6088 15.1772 44.4303 15.2158 44.2667 15.2902L41.6017 16.5023V2.55665Z" fill="#61B46C"/>
<path d="M45.2004 7.44688H56.9253C57.6046 7.44688 58.1555 6.91437 58.1555 6.25771C58.1555 5.60105 57.6046 5.06854 56.9253 5.06854H45.2004C44.5211 5.06854 43.9702 5.60105 43.9702 6.25771C43.9702 6.91437 44.521 7.44688 45.2004 7.44688Z" fill="#61B46C"/>
<path d="M45.2004 12.2166H53.2891C53.9684 12.2166 54.5192 11.684 54.5192 11.0273C54.5192 10.3706 53.9684 9.83802 53.2891 9.83802H45.2004C44.5211 9.83802 43.9702 10.3706 43.9702 11.0273C43.9702 11.684 44.521 12.2166 45.2004 12.2166Z" fill="#61B46C"/>
</svg>
