<svg width="17" height="17" viewBox="0 0 17 17" fill="none" xmlns="http://www.w3.org/2000/svg">
<path d="M14.5104 2.48957C12.905 0.884133 10.7704 0 8.5 0C6.22957 0 4.09501 0.884133 2.48957 2.48957C0.884166 4.09501 0 6.22957 0 8.5C0 10.7704 0.884166 12.905 2.48957 14.5104C4.09501 16.1159 6.22957 17 8.5 17C10.7704 17 12.905 16.1159 14.5104 14.5104C16.1158 12.905 17 10.7704 17 8.5C17 6.22957 16.1158 4.09501 14.5104 2.48957ZM8.5 16.0039C4.36233 16.0039 0.996094 12.6377 0.996094 8.5C0.996094 4.36233 4.36233 0.996094 8.5 0.996094C12.6377 0.996094 16.0039 4.36233 16.0039 8.5C16.0039 12.6377 12.6377 16.0039 8.5 16.0039Z" fill="#63D673"/>
<path d="M9.03356 8.00199H7.9666C7.35875 8.00199 6.86426 7.5075 6.86426 6.89968C6.86426 6.29183 7.35879 5.79734 7.9666 5.79734H10.1005C10.3755 5.79734 10.5985 5.57434 10.5985 5.29929C10.5985 5.02423 10.3755 4.80124 10.1005 4.80124H8.99813V3.6989C8.99813 3.42384 8.77514 3.20085 8.50008 3.20085C8.22502 3.20085 8.00203 3.42384 8.00203 3.6989V4.80124H7.96664C6.80954 4.80124 5.86819 5.74262 5.86819 6.89968C5.86819 8.05674 6.80957 8.99809 7.96664 8.99809H9.03359C9.64141 8.99809 10.1359 9.49261 10.1359 10.1004C10.1359 10.7082 9.64141 11.2028 9.03359 11.2028H6.89972C6.62466 11.2028 6.40167 11.4258 6.40167 11.7008C6.40167 11.9759 6.62466 12.1989 6.89972 12.1989H8.00203V13.3012C8.00203 13.5763 8.22502 13.7993 8.50008 13.7993C8.77514 13.7993 8.99813 13.5763 8.99813 13.3012V12.1989H9.03356C10.1906 12.1989 11.132 11.2575 11.132 10.1004C11.132 8.94337 10.1906 8.00199 9.03356 8.00199Z" fill="#63D673"/>
</svg>
