<svg width="15" height="19" viewBox="0 0 15 19" fill="none" xmlns="http://www.w3.org/2000/svg">
<path d="M14.134 4.07431L10.1757 0.115967C10.1015 0.041748 10.001 0 9.89581 0H1.58331C0.710496 0 0 0.710088 0 1.58335V17.4167C0 18.2899 0.710496 19 1.58335 19H12.6667C13.5395 19 14.25 18.2899 14.25 17.4167V4.35415C14.25 4.24902 14.2083 4.14853 14.134 4.07431ZM10.2917 1.35141L12.8986 3.95835H11.0833C10.6465 3.95835 10.2917 3.6031 10.2917 3.16669V1.35141ZM13.4583 17.4167C13.4583 17.8531 13.1035 18.2083 12.6667 18.2083H1.58335C1.14653 18.2083 0.791691 17.8531 0.791691 17.4167V1.58335C0.791691 1.14694 1.14657 0.791691 1.58335 0.791691H9.5V3.16669C9.5 4.03991 10.2105 4.75 11.0833 4.75H13.4583V17.4167Z" fill="#696969"/>
<path d="M11.4792 11.0833H2.77085C2.55205 11.0833 2.375 11.2604 2.375 11.4792C2.375 11.698 2.55205 11.875 2.77085 11.875H11.4792C11.698 11.875 11.875 11.698 11.875 11.4792C11.875 11.2604 11.698 11.0833 11.4792 11.0833Z" fill="#696969"/>
<path d="M11.4792 8.70835H2.77085C2.55205 8.70835 2.375 8.8854 2.375 9.10419C2.375 9.32299 2.55205 9.50004 2.77085 9.50004H11.4792C11.698 9.50004 11.875 9.32299 11.875 9.10419C11.875 8.8854 11.698 8.70835 11.4792 8.70835Z" fill="#696969"/>
<path d="M11.4792 13.4583H2.77085C2.55205 13.4583 2.375 13.6354 2.375 13.8542C2.375 14.073 2.55205 14.25 2.77085 14.25H11.4792C11.698 14.25 11.875 14.073 11.875 13.8542C11.875 13.6354 11.698 13.4583 11.4792 13.4583Z" fill="#696969"/>
<path d="M7.52085 15.8333H2.77085C2.55205 15.8333 2.375 16.0104 2.375 16.2292C2.375 16.448 2.55205 16.625 2.77085 16.625H7.52085C7.73964 16.625 7.91669 16.448 7.91669 16.2292C7.91666 16.0104 7.73964 15.8333 7.52085 15.8333Z" fill="#696969"/>
<path d="M6.33325 6.72915C6.33325 6.94795 6.5103 7.125 6.7291 7.125H11.4791C11.6979 7.125 11.875 6.94795 11.875 6.72915C11.875 6.51036 11.6979 6.33331 11.4791 6.33331H6.7291C6.5103 6.33335 6.33325 6.51039 6.33325 6.72915Z" fill="#696969"/>
<path d="M3.5625 6.33334H2.77085C2.55205 6.33334 2.375 6.51039 2.375 6.72918C2.375 6.94798 2.55205 7.12503 2.77085 7.12503H3.16669C3.16669 7.34383 3.34374 7.52087 3.56254 7.52087C3.78133 7.52087 3.95838 7.34383 3.95838 7.12503V7.05211C4.41809 6.88812 4.75 6.45287 4.75 5.93749C4.75 5.28266 4.21733 4.74999 3.5625 4.74999C3.34448 4.74999 3.16665 4.57257 3.16665 4.35415C3.16665 4.13576 3.34448 3.9583 3.5625 3.9583H4.35415C4.57295 3.9583 4.75 3.78125 4.75 3.56245C4.75 3.34366 4.57295 3.16661 4.35415 3.16661H3.95831C3.95831 2.94781 3.78126 2.77076 3.56246 2.77076C3.34367 2.77076 3.16662 2.94781 3.16662 3.16661V3.23953C2.70691 3.40352 2.375 3.83877 2.375 4.35415C2.375 5.00898 2.90767 5.54165 3.5625 5.54165C3.78052 5.54165 3.95835 5.71907 3.95835 5.93749C3.95835 6.15592 3.78052 6.33334 3.5625 6.33334Z" fill="#696969"/>
</svg>
