<svg width="34" height="35" viewBox="0 0 34 35" fill="none" xmlns="http://www.w3.org/2000/svg">
<g clip-path="url(#clip0)">
<path d="M33.8104 23.4765C33.8104 22.2348 33.4412 21.081 32.8118 20.1252C32.7788 20.0402 32.7239 19.9701 32.6575 19.9117C31.6065 18.459 29.9364 17.5132 28.053 17.5132H27.3258L22.4884 12.8078C21.4904 11.8378 20.1871 11.3035 18.8186 11.3035H2.82444C1.27726 11.3035 0.0185547 12.6072 0.0185547 14.2101V22.8563C0.0185547 22.938 0.0244802 23.0181 0.0304057 23.0979C0.0282226 23.1186 0.0185547 23.137 0.0185547 23.1583C0.0185547 23.2387 0.0357075 23.3143 0.0650231 23.3838C0.307969 24.8558 1.54577 25.9809 3.03526 25.9809H3.05116C3.46158 27.6024 4.88433 28.8034 6.57652 28.8034C8.26904 28.8034 9.69147 27.6024 10.1022 25.9809H24.7753C25.186 27.6024 26.6088 28.8034 28.301 28.8034C30.0097 28.8034 31.444 27.5788 31.8382 25.9337C32.9834 25.7121 33.8104 24.691 33.8104 23.4765ZM6.57652 27.6744C5.16563 27.6744 4.01827 26.4861 4.01827 25.0244C4.01827 23.5631 5.16594 22.3747 6.57652 22.3747C7.98711 22.3747 9.13509 23.5631 9.13509 25.0244C9.13509 26.4861 7.98711 27.6744 6.57652 27.6744ZM28.3007 27.6744C26.8898 27.6744 25.7424 26.4861 25.7424 25.0244C25.7424 23.5631 26.8901 22.3747 28.3007 22.3747C29.7112 22.3747 30.8592 23.5631 30.8592 25.0244C30.8592 26.4861 29.7116 27.6744 28.3007 27.6744ZM31.9349 24.7279C31.7877 22.7826 30.2158 21.2454 28.3007 21.2454C26.3452 21.2454 24.7488 22.8482 24.6608 24.8519H10.2167C10.1287 22.8485 8.53225 21.2454 6.57652 21.2454C4.62454 21.2454 3.03027 22.8427 2.93702 24.8416C2.21847 24.8035 1.60659 24.359 1.30782 23.723H1.78623C2.08718 23.723 2.33106 23.4704 2.33106 23.1583C2.33106 22.8463 2.08718 22.594 1.78623 22.594H1.10853V14.2101C1.10853 13.2297 1.87823 12.4325 2.82444 12.4325H18.8186C19.9089 12.4325 20.9471 12.8582 21.7421 13.6312L26.7366 18.4891C26.8377 18.5876 26.9712 18.6422 27.1099 18.6422H28.053C29.1945 18.6422 30.2405 19.0705 31.0526 19.7779C30.7675 19.7967 30.5402 20.0357 30.5402 20.3358C30.5402 20.6478 30.7844 20.9004 31.0853 20.9004H31.9954C32.4519 21.6472 32.7205 22.5291 32.7205 23.4765C32.7205 24.0327 32.4033 24.5118 31.9349 24.7279Z" fill="#696969"/>
<path d="M23.4547 20.9004H10.9192C10.6179 20.9004 10.374 21.1527 10.374 21.4647C10.374 21.7768 10.6179 22.0294 10.9192 22.0294H23.4547C23.7557 22.0294 23.9999 21.7768 23.9999 21.4647C23.9999 21.1527 23.7557 20.9004 23.4547 20.9004Z" fill="#696969"/>
<path d="M21.14 14.0902C20.4214 13.3928 19.4827 13.0088 18.4975 13.0088H16.9145C16.6135 13.0088 16.3696 13.261 16.3696 13.5731V18.6422C16.3696 18.9542 16.6135 19.2068 16.9145 19.2068H25.0365C25.2604 19.2068 25.4612 19.065 25.5436 18.8496C25.6259 18.6341 25.5722 18.3886 25.4091 18.2304L21.14 14.0902ZM17.4596 18.0779V14.1377H18.4975C19.2048 14.1377 19.8788 14.4132 20.3946 14.9139L23.6567 18.0779H17.4596Z" fill="#696969"/>
<path d="M6.5767 23.0963C5.55003 23.0963 4.71484 23.961 4.71484 25.0244C4.71484 26.0881 5.55003 26.9528 6.5767 26.9528C7.60337 26.9528 8.43855 26.0881 8.43855 25.0244C8.43855 23.961 7.60337 23.0963 6.5767 23.0963ZM6.5767 25.8239C6.151 25.8239 5.80482 25.4656 5.80482 25.0244C5.80482 24.5835 6.151 24.2252 6.5767 24.2252C7.00209 24.2252 7.34857 24.5835 7.34857 25.0244C7.34857 25.4656 7.00209 25.8239 6.5767 25.8239Z" fill="#696969"/>
<path d="M28.3008 23.0963C27.2741 23.0963 26.439 23.961 26.439 25.0244C26.439 26.0881 27.2741 26.9528 28.3008 26.9528C29.3275 26.9528 30.1627 26.0881 30.1627 25.0244C30.1627 23.961 29.3278 23.0963 28.3008 23.0963ZM28.3008 25.8239C27.8754 25.8239 27.5289 25.4656 27.5289 25.0244C27.5289 24.5835 27.8754 24.2252 28.3008 24.2252C28.7265 24.2252 29.0727 24.5835 29.0727 25.0244C29.0727 25.4656 28.7265 25.8239 28.3008 25.8239Z" fill="#696969"/>
</g>
<defs>
<clipPath id="clip0">
<rect x="0.0185547" width="33.7918" height="35" fill="white"/>
</clipPath>
</defs>
</svg>
