<svg width="34" height="35" viewBox="0 0 34 35" fill="none" xmlns="http://www.w3.org/2000/svg">
<g clip-path="url(#clip0)">
<path d="M33.7919 23.4765C33.7919 22.2348 33.4226 21.081 32.7933 20.1252C32.7602 20.0402 32.7053 19.9701 32.6389 19.9117C31.5879 18.459 29.9179 17.5132 28.0345 17.5132H27.3072L22.4698 12.8078C21.4718 11.8378 20.1685 11.3035 18.8001 11.3035H2.80588C1.2587 11.3035 0 12.6072 0 14.2101V22.8563C0 22.938 0.00592551 23.0181 0.011851 23.0979C0.00966794 23.1186 0 23.137 0 23.1583C0 23.2387 0.0171528 23.3143 0.0464684 23.3838C0.289414 24.8558 1.52722 25.9809 3.0167 25.9809H3.03261C3.44303 27.6024 4.86577 28.8034 6.55797 28.8034C8.25048 28.8034 9.67291 27.6024 10.0836 25.9809H24.7567C25.1675 27.6024 26.5902 28.8034 28.2824 28.8034C29.9911 28.8034 31.4254 27.5788 31.8196 25.9337C32.9648 25.7121 33.7919 24.691 33.7919 23.4765V23.4765ZM6.55797 27.6744C5.14708 27.6744 3.99971 26.4861 3.99971 25.0244C3.99971 23.5631 5.14739 22.3747 6.55797 22.3747C7.96855 22.3747 9.11654 23.5631 9.11654 25.0244C9.11654 26.4861 7.96855 27.6744 6.55797 27.6744ZM28.2821 27.6744C26.8712 27.6744 25.7238 26.4861 25.7238 25.0244C25.7238 23.5631 26.8715 22.3747 28.2821 22.3747C29.6927 22.3747 30.8407 23.5631 30.8407 25.0244C30.8407 26.4861 29.693 27.6744 28.2821 27.6744V27.6744ZM31.9163 24.7279C31.7691 22.7826 30.1973 21.2454 28.2821 21.2454C26.3267 21.2454 24.7302 22.8482 24.6423 24.8519H10.1981C10.1102 22.8485 8.5137 21.2454 6.55797 21.2454C4.60599 21.2454 3.01171 22.8427 2.91847 24.8416C2.19992 24.8035 1.58803 24.359 1.28926 23.723H1.76767C2.06862 23.723 2.3125 23.4704 2.3125 23.1583C2.3125 22.8463 2.06862 22.594 1.76767 22.594H1.08998V14.2101C1.08998 13.2297 1.85967 12.4325 2.80588 12.4325H18.8001C19.8903 12.4325 20.9286 12.8582 21.7235 13.6312L26.7181 18.4891C26.8191 18.5876 26.9526 18.6422 27.0914 18.6422H28.0345C29.1759 18.6422 30.2219 19.0705 31.034 19.7779C30.749 19.7967 30.5216 20.0357 30.5216 20.3358C30.5216 20.6478 30.7658 20.9004 31.0668 20.9004H31.9768C32.4334 21.6472 32.7019 22.5291 32.7019 23.4765C32.7019 24.0327 32.3847 24.5118 31.9163 24.7279Z" fill="#61B46C"/>
<path d="M23.4363 20.9004H10.9007C10.5995 20.9004 10.3556 21.1527 10.3556 21.4647C10.3556 21.7767 10.5995 22.0293 10.9007 22.0293H23.4363C23.7372 22.0293 23.9814 21.7767 23.9814 21.4647C23.9814 21.1527 23.7372 20.9004 23.4363 20.9004Z" fill="#61B46C"/>
<path d="M21.1213 14.0902C20.4027 13.3928 19.464 13.0087 18.4788 13.0087H16.8958C16.5948 13.0087 16.3509 13.261 16.3509 13.573V18.6422C16.3509 18.9542 16.5948 19.2068 16.8958 19.2068H25.0178C25.2417 19.2068 25.4425 19.065 25.5249 18.8496C25.6072 18.6341 25.5536 18.3886 25.3904 18.2303L21.1213 14.0902ZM17.4409 18.0779V14.1377H18.4788C19.1861 14.1377 19.8601 14.4132 20.3759 14.9139L23.6381 18.0779H17.4409Z" fill="#61B46C"/>
<path d="M6.55797 23.0963C5.5313 23.0963 4.69612 23.961 4.69612 25.0244C4.69612 26.0881 5.5313 26.9528 6.55797 26.9528C7.58465 26.9528 8.41983 26.0881 8.41983 25.0244C8.41983 23.961 7.58465 23.0963 6.55797 23.0963ZM6.55797 25.8239C6.13227 25.8239 5.7861 25.4657 5.7861 25.0244C5.7861 24.5835 6.13227 24.2253 6.55797 24.2253C6.98336 24.2253 7.32985 24.5835 7.32985 25.0244C7.32985 25.4657 6.98336 25.8239 6.55797 25.8239Z" fill="#61B46C"/>
<path d="M28.2821 23.0963C27.2554 23.0963 26.4202 23.961 26.4202 25.0244C26.4202 26.0881 27.2554 26.9528 28.2821 26.9528C29.3088 26.9528 30.144 26.0881 30.144 25.0244C30.144 23.961 29.3091 23.0963 28.2821 23.0963ZM28.2821 25.8239C27.8567 25.8239 27.5102 25.4657 27.5102 25.0244C27.5102 24.5835 27.8567 24.2253 28.2821 24.2253C28.7078 24.2253 29.054 24.5835 29.054 25.0244C29.054 25.4657 28.7078 25.8239 28.2821 25.8239V25.8239Z" fill="#61B46C"/>
</g>
<defs>
<clipPath id="clip0">
<rect width="33.7918" height="35" fill="white"/>
</clipPath>
</defs>
</svg>
