<svg width="102" height="102" viewBox="0 0 102 102" fill="none" xmlns="http://www.w3.org/2000/svg">
<path d="M8.11219 48.7082L1.59375 16.0044L89.6723 1.59375L93.228 22.8416L8.11219 48.7082Z" fill="#606060"/>
<path d="M8.40707 45.7805L8.21582 20.7188L97.4387 22.9468L95.794 40.7203L8.40707 45.7805Z" fill="#548258"/>
<path d="M1.59375 83.3101L12.0663 27.7153L100.406 41.4375L89.0237 100.605L1.59375 83.3101Z" fill="#63D673"/>
<path d="M28.3858 56.6781C29.0403 52.9942 26.6006 49.4801 22.9367 48.8292C19.2727 48.1782 15.7719 50.6369 15.1174 54.3208C14.4629 58.0047 16.9026 61.5188 20.5665 62.1697C24.2305 62.8207 27.7313 60.362 28.3858 56.6781Z" fill="#548258"/>
<path d="M88.9834 69.4138C89.6379 65.7299 87.1983 62.2158 83.5343 61.5648C79.8704 60.9139 76.3696 63.3726 75.7151 67.0565C75.0606 70.7404 77.5002 74.2544 81.1642 74.9054C84.8281 75.5564 88.3289 73.0977 88.9834 69.4138Z" fill="#548258"/>
<path d="M68.5858 66.8591C70.3039 57.1886 63.8994 47.9637 54.2809 46.2549C44.6624 44.546 35.4722 51.0002 33.7541 60.6707C32.036 70.3412 38.4405 79.5661 48.059 81.2749C57.6776 82.9838 66.8677 76.5296 68.5858 66.8591Z" fill="#DCDBDE"/>
<path d="M50.5633 74.9302C49.9859 74.9306 49.413 74.8269 48.8724 74.6242L46.1502 73.6057C45.554 73.3828 45.0076 73.0446 44.5422 72.6104C44.0768 72.1762 43.7015 71.6545 43.4377 71.0752C43.174 70.4959 43.0269 69.8704 43.0051 69.2342C42.9832 68.5981 43.0869 67.9639 43.3102 67.3678L43.8967 65.8012C43.9666 65.6008 44.0759 65.4165 44.2181 65.259C44.3602 65.1014 44.5324 64.9739 44.7245 64.8838C44.9166 64.7936 45.1248 64.7428 45.3368 64.7342C45.5489 64.7257 45.7605 64.7595 45.9592 64.8338C46.158 64.9081 46.3399 65.0213 46.4943 65.1668C46.6488 65.3124 46.7726 65.4873 46.8585 65.6813C46.9444 65.8753 46.9908 66.0845 46.9948 66.2967C46.9987 66.5088 46.9603 66.7197 46.8818 66.9168L46.2953 68.4834C46.2189 68.6875 46.1834 68.9046 46.1909 69.1224C46.1984 69.3401 46.2487 69.5543 46.339 69.7526C46.4293 69.9509 46.5577 70.1295 46.717 70.2782C46.8764 70.4269 47.0634 70.5427 47.2675 70.6191L49.988 71.6375C50.4002 71.7909 50.8563 71.7747 51.2566 71.5925C51.6569 71.4103 51.9687 71.0769 52.1236 70.6653L52.5555 69.5114C52.6477 69.2646 52.6798 68.9994 52.649 68.7378C52.6182 68.4761 52.5255 68.2256 52.3786 68.0069L47.6452 61.7913C47.0511 60.9444 46.7438 59.9297 46.768 58.8955C46.7922 57.8614 47.1468 56.8621 47.7798 56.044C48.4129 55.2259 49.2911 54.6319 50.2861 54.3489C51.2811 54.0659 52.3405 54.1087 53.3094 54.4712L56.0331 55.4912C56.6291 55.7141 57.1753 56.0523 57.6405 56.4864C58.1058 56.9205 58.4809 57.4421 58.7445 58.0212C59.0081 58.6004 59.155 59.2258 59.1768 59.8617C59.1986 60.4977 59.0949 61.1317 58.8715 61.7275L58.7122 62.1371C58.6389 62.3333 58.5277 62.5132 58.385 62.6664C58.2422 62.8197 58.0706 62.9433 57.8801 63.0303C57.6896 63.1172 57.4838 63.1658 57.2744 63.1732C57.0651 63.1806 56.8564 63.1467 56.6602 63.0735C56.464 63.0002 56.2841 62.889 56.1309 62.7463C55.9776 62.6035 55.854 62.4319 55.7671 62.2414C55.6801 62.0509 55.6316 61.8451 55.6241 61.6357C55.6167 61.4264 55.6506 61.2177 55.7239 61.0215L55.8833 60.6055C55.9604 60.4016 55.9966 60.1845 55.9896 59.9665C55.9826 59.7486 55.9327 59.5342 55.8427 59.3357C55.7526 59.1371 55.6243 58.9582 55.465 58.8094C55.3056 58.6606 55.1185 58.5446 54.9143 58.4683L52.1905 57.4483C51.8615 57.3247 51.5017 57.3089 51.1632 57.4032C50.8246 57.4974 50.5247 57.6969 50.3069 57.9727C50.0891 58.2485 49.9646 58.5864 49.9514 58.9377C49.9382 59.2889 50.0369 59.6352 50.2334 59.9266L54.9668 66.1422C55.4156 66.7875 55.702 67.5317 55.8016 68.3113C55.9012 69.091 55.8111 69.8832 55.539 70.6207L55.1071 71.7761C54.7605 72.7016 54.1398 73.4994 53.3279 74.063C52.5161 74.6265 51.5516 74.9291 50.5633 74.9302Z" fill="#548258"/>
<path d="M54.0775 57.8993C53.8199 57.8995 53.5662 57.8372 53.3379 57.7178C53.1096 57.5985 52.9137 57.4255 52.7669 57.2139C52.6201 57.0022 52.5268 56.7581 52.495 56.5025C52.4632 56.2469 52.4938 55.9874 52.5842 55.7462L53.6998 52.7611C53.8541 52.374 54.1539 52.0627 54.5349 51.894C54.9159 51.7252 55.3479 51.7124 55.7382 51.8583C56.1286 52.0042 56.4462 52.2972 56.6232 52.6744C56.8002 53.0517 56.8223 53.4833 56.6849 53.8767L55.5693 56.8618C55.4559 57.1661 55.2523 57.4286 54.9857 57.614C54.7191 57.7994 54.4023 57.899 54.0775 57.8993Z" fill="#548258"/>
<path d="M46.8164 77.2969C46.5588 77.2971 46.3051 77.2348 46.0768 77.1154C45.8485 76.996 45.6526 76.8231 45.5058 76.6114C45.359 76.3998 45.2657 76.1557 45.2339 75.9001C45.2021 75.6444 45.2327 75.3849 45.3231 75.1437L46.4387 72.1586C46.5087 71.9583 46.6179 71.774 46.7601 71.6164C46.9023 71.4589 47.0744 71.3313 47.2666 71.2412C47.4587 71.1511 47.6668 71.1003 47.8789 71.0917C48.0909 71.0831 48.3025 71.117 48.5013 71.1913C48.7 71.2655 48.882 71.3788 49.0364 71.5243C49.1908 71.6698 49.3146 71.8447 49.4005 72.0388C49.4865 72.2328 49.5328 72.442 49.5368 72.6542C49.5408 72.8663 49.5024 73.0771 49.4238 73.2743L48.3082 76.2594C48.1948 76.5637 47.9912 76.8261 47.7246 77.0115C47.458 77.197 47.1412 77.2965 46.8164 77.2969Z" fill="#548258"/>
</svg>
