<svg width="35" height="35" viewBox="0 0 35 35" fill="none" xmlns="http://www.w3.org/2000/svg">
<path d="M30.8045 20.8799C30.3317 20.8799 29.8774 20.9586 29.453 21.1016L28.8751 19.9613C29.4792 19.7359 30.1302 19.6122 30.8045 19.6122C31.5662 19.6122 32.3033 19.7632 32.9951 20.0612C33.2819 20.1846 33.6163 20.0554 33.7415 19.7724C33.8668 19.4893 33.7357 19.1596 33.4487 19.036C32.6129 18.6761 31.7233 18.4937 30.8045 18.4937C29.9498 18.4937 29.1258 18.6581 28.3661 18.9571L26.2657 14.8132C26.3651 14.8303 26.467 14.8397 26.5713 14.8397H27.7808C28.0939 14.8397 28.3477 14.5893 28.3477 14.2804V11.8941C28.3477 11.5852 28.0939 11.3348 27.7808 11.3348H26.5713C25.8814 11.3348 25.2826 11.725 24.9884 12.2932L24.3889 11.1104C24.086 10.5128 23.4771 10.1417 22.8 10.1417H21.7333C21.4202 10.1417 21.1663 10.392 21.1663 10.701C21.1663 11.0099 21.4202 11.2603 21.7333 11.2603H22.8C23.0449 11.2603 23.2652 11.3946 23.3747 11.6107L24.843 14.5075L24.5674 14.6436C23.9616 14.9423 23.5853 15.5429 23.5853 16.211V22.0731H18.7095C17.6883 22.0731 16.8575 21.2535 16.8575 20.2461V17.8225H16.8952C17.8748 17.8225 18.6717 17.0364 18.6717 16.0701C18.6717 15.1038 17.8748 14.3177 16.8952 14.3177H12.0572C11.5715 14.3177 11.131 14.5111 10.8099 14.8238V6.52499C10.8099 5.88763 10.2843 5.36914 9.63823 5.36914H1.17171C0.525605 5.36914 0 5.88763 0 6.52499V14.877C0 15.5143 0.525605 16.0328 1.17171 16.0328H2.44425C2.41749 16.1474 2.40291 16.2656 2.40487 16.3863C2.41757 17.1782 3.08106 17.8225 3.88394 17.8225H6.93204C6.5487 18.064 6.22032 18.3195 5.94705 18.5618C4.69091 19.6754 4.01963 21.0023 3.81031 21.8728C3.69745 22.3422 3.80578 22.8269 4.10762 23.2028C4.40531 23.5737 4.85124 23.7861 5.33141 23.7861C5.33247 23.7861 5.33346 23.7861 5.33451 23.7861L5.63326 23.7855C5.50785 24.1828 5.44276 24.5987 5.44276 25.0186C5.44276 27.3007 7.32483 29.1573 9.63823 29.1573C11.7592 29.1573 13.5166 27.5963 13.7943 25.5779H24.757C25.0701 25.5779 25.324 25.3276 25.324 25.0186C25.324 24.6542 25.3609 24.2902 25.4337 23.9367C25.7365 22.4651 26.641 21.2312 27.8615 20.4627L28.4393 21.6026C27.3352 22.3489 26.6091 23.6016 26.6091 25.0186C26.6091 27.3007 28.4911 29.1573 30.8045 29.1573C33.1179 29.1573 35 27.3007 35 25.0186C35 22.7365 33.1179 20.8799 30.8045 20.8799ZM12.0572 15.4363H16.8952C17.2496 15.4363 17.5378 15.7206 17.5378 16.0701C17.5378 16.4196 17.2496 16.704 16.8952 16.704H12.0572C11.7029 16.704 11.4147 16.4196 11.4147 16.0701C11.4147 15.7206 11.7029 15.4363 12.0572 15.4363ZM1.13391 6.52499C1.13391 6.50449 1.15084 6.48771 1.17171 6.48771H9.63823C9.65909 6.48771 9.67603 6.50449 9.67603 6.52499V7.75542H1.13391V6.52499ZM1.17171 14.9143C1.15084 14.9143 1.13391 14.8975 1.13391 14.877V8.87399H9.67603V14.877C9.67603 14.8975 9.65909 14.9143 9.63823 14.9143H1.17171ZM3.88394 16.704C3.69654 16.704 3.54165 16.5536 3.5387 16.3687C3.53719 16.2766 3.57257 16.1897 3.63811 16.1241C3.68422 16.078 3.74152 16.0474 3.80374 16.0328L10.2818 16.0346C10.2815 16.0465 10.2809 16.0582 10.2809 16.0701C10.2809 16.2936 10.3239 16.5072 10.4016 16.704H3.88394ZM5.3324 22.6676C5.3321 22.6676 5.33179 22.6676 5.33149 22.6676C5.15135 22.6676 5.04431 22.5679 4.99653 22.5084C4.91164 22.4026 4.88148 22.2651 4.91368 22.131C5.33149 20.3935 7.5064 17.8225 10.8477 17.8225C13.4416 17.8225 14.4082 20.2679 14.4082 21.8094C14.4082 22.2274 14.1742 22.6512 13.727 22.652L5.3324 22.6676ZM10.2808 25.0186C10.2808 25.3682 9.99254 25.6525 9.63823 25.6525C9.28392 25.6525 8.99568 25.3682 8.99568 25.0186C8.99568 24.6691 9.28392 24.3848 9.63823 24.3848C9.99254 24.3848 10.2808 24.6691 10.2808 25.0186ZM9.63823 28.0388C7.95007 28.0388 6.57667 26.684 6.57667 25.0186C6.57667 24.591 6.66996 24.1698 6.84549 23.7833L8.38231 23.7805C8.06089 24.0978 7.86177 24.5357 7.86177 25.0186C7.86177 25.9849 8.65868 26.7711 9.63823 26.7711C10.6178 26.7711 11.4147 25.9849 11.4147 25.0186C11.4147 24.5333 11.2135 24.0934 10.8892 23.7758L12.4262 23.7729C12.6048 24.1621 12.6998 24.587 12.6998 25.0186C12.6998 26.684 11.3264 28.0388 9.63823 28.0388ZM24.3224 23.7142C24.2719 23.9593 24.2358 24.2084 24.2141 24.4594H13.795C13.7627 24.2255 13.7101 23.9951 13.6383 23.7707L13.729 23.7705C14.7626 23.7687 15.542 22.9256 15.542 21.8094C15.542 20.5992 15.1338 19.3728 14.4218 18.4448C14.2656 18.2412 14.076 18.0277 13.8494 17.8225H15.7235V20.2461C15.7235 21.8703 17.0631 23.1917 18.7095 23.1917H24.1523C24.2779 23.1917 24.3936 23.1509 24.4876 23.0826C24.4227 23.2888 24.3667 23.4991 24.3224 23.7142ZM26.5713 12.4534H27.2138V13.7211H26.5713C26.217 13.7211 25.9287 13.4368 25.9287 13.0873C25.9287 12.7377 26.217 12.4534 26.5713 12.4534ZM24.7192 22.4618V16.2109C24.7192 15.9693 24.8553 15.7521 25.0744 15.6439L25.3501 15.5079L27.3526 19.4586C26.195 20.1597 25.264 21.2039 24.7192 22.4618ZM30.8045 28.0388C29.1164 28.0388 27.743 26.684 27.743 25.0186C27.743 23.3533 29.1164 21.9985 30.8045 21.9985C32.4927 21.9985 33.8661 23.3533 33.8661 25.0186C33.8661 26.684 32.4927 28.0388 30.8045 28.0388Z" fill="#61B46C"/>
<path d="M30.8045 23.2662C29.825 23.2662 29.0281 24.0524 29.0281 25.0187C29.0281 25.985 29.825 26.7711 30.8045 26.7711C31.7841 26.7711 32.581 25.985 32.581 25.0187C32.581 24.0524 31.7841 23.2662 30.8045 23.2662ZM30.8045 25.6525C30.4502 25.6525 30.162 25.3682 30.162 25.0187C30.162 24.6691 30.4502 24.3848 30.8045 24.3848C31.1588 24.3848 31.4471 24.6691 31.4471 25.0187C31.4471 25.3682 31.1588 25.6525 30.8045 25.6525Z" fill="#61B46C"/>
</svg>
