<svg width="17" height="17" viewBox="0 0 17 17" fill="none" xmlns="http://www.w3.org/2000/svg">
<path d="M15.2777 7.02251H9.85553V1.60038C9.85553 0.852123 9.24959 0.24482 8.49996 0.24482C7.75033 0.24482 7.14439 0.852123 7.14439 1.60038V7.02251H1.72227C0.972637 7.02251 0.366699 7.62982 0.366699 8.37808C0.366699 9.12634 0.972637 9.73365 1.72227 9.73365H7.14439V15.1558C7.14439 15.904 7.75033 16.5113 8.49996 16.5113C9.24959 16.5113 9.85553 15.904 9.85553 15.1558V9.73365H15.2777C16.0273 9.73365 16.6332 9.12634 16.6332 8.37808C16.6332 7.62982 16.0273 7.02251 15.2777 7.02251Z" fill="#A5A5A5"/>
</svg>
