<svg width="18" height="18" viewBox="0 0 18 18" fill="none" xmlns="http://www.w3.org/2000/svg">
<path d="M9 0C4.02574 0 0 4.02528 0 9C0 13.9743 4.02528 18 9 18C13.9743 18 18 13.9747 18 9C18 4.02574 13.9747 0 9 0ZM9 16.8C4.69909 16.8 1.19999 13.3009 1.19999 9C1.19999 4.69905 4.69909 1.19999 9 1.19999C13.3009 1.19999 16.8 4.69909 16.8 9C16.8 13.3009 13.3009 16.8 9 16.8Z" fill="white"/>
<path d="M11.9763 5.22295L7.60565 7.32487C7.48295 7.38386 7.38395 7.48283 7.32496 7.60556L5.22304 11.9763C4.97793 12.486 5.51388 13.0223 6.02379 12.777L10.3945 10.6751C10.5172 10.6161 10.6162 10.5171 10.6752 10.3944L12.7771 6.0237C13.0221 5.51411 12.4864 4.97759 11.9763 5.22295ZM9.68482 9.68477L7.04634 10.9537L8.31524 8.31519L10.9537 7.04629L9.68482 9.68477Z" fill="white"/>
</svg>
