<svg width="138" height="137" viewBox="0 0 138 137" fill="none" xmlns="http://www.w3.org/2000/svg">
<g filter="url(#filter0_d)">
<ellipse cx="68.9745" cy="68.5" rx="46.9745" ry="46.5" fill="white"/>
</g>
<path d="M93.6911 41.2918C93.4932 41.105 93.2249 41 92.9451 41L66.9997 41.0013C66.4173 41.0013 65.9451 41.4473 65.9451 41.9974V44.8459L55.9476 47.3759C55.3849 47.5183 55.051 48.0645 55.2018 48.5958L60.3833 66.8583L55.9009 71.0916C55.3304 70.3049 54.3725 69.7876 53.289 69.7876H43.164C41.4193 69.7876 40 71.1281 40 72.7757V89.0116C40 90.6594 41.4193 91.9999 43.164 91.9999H53.2891C54.7713 91.9999 56.0182 91.0321 56.3599 89.7308L57.6139 90.7636C58.5821 91.5609 59.8224 92 61.1069 92H92.9453C93.5277 92 94 91.554 94 91.0039V41.9961C93.9998 41.7319 93.8888 41.4785 93.6911 41.2918ZM54.3436 89.0117C54.3436 89.5609 53.8704 90.0078 53.2889 90.0078H43.1639C42.5824 90.0078 42.1092 89.561 42.1092 89.0117V72.7758C42.1092 72.2266 42.5824 71.7797 43.1639 71.7797H47.1717V83.2542C47.1717 83.8043 47.644 84.2503 48.2265 84.2503C48.8089 84.2503 49.2812 83.8043 49.2812 83.2542V71.7797H53.289C53.8705 71.7797 54.3437 72.2266 54.3437 72.7758L54.3436 89.0117ZM57.5123 49.0423L65.9451 46.9083V50.5993L65.2383 50.7782C64.9679 50.8467 64.7377 51.0135 64.5978 51.2423C64.458 51.4711 64.42 51.743 64.4925 51.9981C64.8978 53.4266 63.997 54.9002 62.4844 55.283C62.2139 55.3515 61.9832 55.5186 61.8434 55.7479C61.7037 55.9771 61.666 56.2495 61.7391 56.5049L65.8503 70.8823H63.7335L62.6426 66.8517C62.6079 66.7234 62.5472 66.6051 62.4658 66.5023L57.5123 49.0423ZM65.9451 55.1673V63.5724L64.0214 56.8453C64.825 56.4535 65.4826 55.8672 65.9451 55.1673ZM81.0976 90.0077H61.1067C60.332 90.0077 59.5839 89.743 59 89.2621L56.453 87.1643V73.3876L61.0577 69.0389L61.8928 72.1248C62.0122 72.5658 62.4327 72.8741 62.9146 72.8741L83.6507 72.8753C84.465 72.8753 85.1273 73.5009 85.1273 74.2699C85.1273 75.0388 84.465 75.6644 83.6507 75.6644H73.0255C72.4431 75.6644 71.9708 76.1104 71.9708 76.6605C71.9708 77.2105 72.4431 77.6566 73.0255 77.6566H86.952C87.7662 77.6566 88.4286 78.2821 88.4286 79.0511C88.4286 79.8201 87.7662 80.4456 86.952 80.4456H73.0255C72.4431 80.4456 71.9708 80.8917 71.9708 81.4417C71.9708 81.9918 72.4431 82.4378 73.0255 82.4378H84.6952C85.5094 82.4378 86.1718 83.0634 86.1718 83.8323C86.1718 84.6013 85.5094 85.2269 84.6952 85.2269H73.0255C72.4431 85.2269 71.9708 85.6729 71.9708 86.223C71.9708 86.773 72.4431 87.2191 73.0255 87.2191H81.0976C81.9118 87.2191 82.5742 87.8446 82.5742 88.6136C82.5741 89.3822 81.9117 90.0077 81.0976 90.0077ZM91.8906 90.0077H84.3641C84.5686 89.5821 84.6835 89.1102 84.6835 88.6132C84.6835 88.1161 84.5686 87.6443 84.3641 87.2187H84.6952C86.6725 87.2187 88.2811 85.6994 88.2811 83.8321C88.2811 83.2874 88.1435 82.7727 87.9005 82.3163C89.4188 81.9224 90.5378 80.6081 90.5378 79.0509C90.5378 78.2955 90.2743 77.5971 89.83 77.0333V64.4089C89.83 63.8588 89.3577 63.4128 88.7753 63.4128C88.1929 63.4128 87.7205 63.8588 87.7205 64.4089V75.7436C87.4727 75.6923 87.2157 75.6644 86.9518 75.6644H86.9172C87.1217 75.2388 87.2365 74.7669 87.2365 74.2699C87.2365 72.4024 85.6279 70.8833 83.6506 70.8833H81.9552C83.7555 70.1541 85.0198 68.4641 85.0198 66.5C85.0198 63.8714 82.7556 61.7329 79.9723 61.7329C77.1891 61.7329 74.9248 63.8714 74.9248 66.5C74.9248 68.4641 76.1893 70.1541 77.9894 70.8833H72.2241V51.9434C74.1082 51.5556 75.5949 50.1516 76.0054 48.3721H83.9391C84.3496 50.1516 85.8363 51.5556 87.7204 51.9434V55.0402C87.7204 55.5903 88.1927 56.0363 88.7752 56.0363C89.3576 56.0363 89.8299 55.5903 89.8299 55.0402V51.0541C89.8299 50.504 89.3576 50.058 88.7752 50.058C87.2092 50.058 85.9354 48.8548 85.9354 47.376C85.9354 46.8259 85.4631 46.3799 84.8807 46.3799H75.0639C74.4815 46.3799 74.0092 46.8259 74.0092 47.376C74.0092 48.8549 72.7353 50.058 71.1694 50.058C70.587 50.058 70.1147 50.504 70.1147 51.0541V70.8832H68.0547V42.9933L91.8906 42.9922V90.0077ZM79.9725 69.2749C78.3524 69.2749 77.0344 68.03 77.0344 66.5001C77.0344 64.9701 78.3525 63.7251 79.9725 63.7251C81.5926 63.7251 82.9106 64.97 82.9106 66.5C82.9106 68.0299 81.5927 69.2749 79.9725 69.2749Z" fill="#5A9F63"/>
<defs>
<filter id="filter0_d" x="0" y="0" width="137.949" height="137" filterUnits="userSpaceOnUse" color-interpolation-filters="sRGB">
<feFlood flood-opacity="0" result="BackgroundImageFix"/>
<feColorMatrix in="SourceAlpha" type="matrix" values="0 0 0 0 0 0 0 0 0 0 0 0 0 0 0 0 0 0 127 0"/>
<feOffset/>
<feGaussianBlur stdDeviation="11"/>
<feColorMatrix type="matrix" values="0 0 0 0 0 0 0 0 0 0 0 0 0 0 0 0 0 0 0.2 0"/>
<feBlend mode="normal" in2="BackgroundImageFix" result="effect1_dropShadow"/>
<feBlend mode="normal" in="SourceGraphic" in2="effect1_dropShadow" result="shape"/>
</filter>
</defs>
</svg>
