<svg width="19" height="19" viewBox="0 0 19 19" fill="none" xmlns="http://www.w3.org/2000/svg">
<g clip-path="url(#clip0)">
<path d="M18.4056 8.90657H10.885C10.5573 8.90657 10.2913 8.64057 10.2913 8.31283C10.2913 7.98509 10.5573 7.7191 10.885 7.7191H18.4056C18.7334 7.7191 18.9994 7.98509 18.9994 8.31283C18.9994 8.64057 18.7334 8.90657 18.4056 8.90657Z" fill="#696969"/>
<path d="M15.4371 11.8752C15.285 11.8752 15.1331 11.8174 15.0175 11.7011C14.7855 11.4691 14.7855 11.093 15.0175 10.8611L17.5666 8.3121L15.0175 5.76294C14.7855 5.53101 14.7855 5.155 15.0175 4.92308C15.2495 4.69101 15.6255 4.69101 15.8575 4.92308L18.8261 7.89173C19.058 8.12366 19.058 8.49967 18.8261 8.7316L15.8575 11.7003C15.7411 11.8174 15.5891 11.8752 15.4371 11.8752Z" fill="#696969"/>
<path d="M6.33319 19.0001C6.16373 19.0001 6.00298 18.9764 5.84237 18.9265L1.07817 17.3393C0.429934 17.1128 0 16.5088 0 15.8336V1.58406C0 0.710862 0.71013 0.000732422 1.58333 0.000732422C1.75264 0.000732422 1.91339 0.0245049 2.07415 0.0743691L6.8382 1.66162C7.48658 1.88803 7.91637 2.49206 7.91637 3.16725V17.4168C7.91637 18.29 7.20639 19.0001 6.33319 19.0001ZM1.58333 1.1882C1.36561 1.1882 1.18746 1.36634 1.18746 1.58406V15.8336C1.18746 16.0022 1.30067 16.1589 1.46215 16.2151L6.20403 17.7953C6.2381 17.8063 6.28245 17.8127 6.33319 17.8127C6.55091 17.8127 6.72891 17.6345 6.72891 17.4168V3.16725C6.72891 2.99867 6.6157 2.84198 6.45422 2.78573L1.71234 1.20559C1.67828 1.19457 1.63392 1.1882 1.58333 1.1882Z" fill="#696969"/>
<path d="M12.0724 6.33376C11.7447 6.33376 11.4787 6.06777 11.4787 5.74003V2.17764C11.4787 1.63218 11.0347 1.18804 10.4892 1.18804H1.58323C1.25549 1.18804 0.989502 0.922052 0.989502 0.594311C0.989502 0.26657 1.25549 0.000579834 1.58323 0.000579834H10.4892C11.6902 0.000579834 12.6661 0.9767 12.6661 2.17764V5.74003C12.6661 6.06777 12.4001 6.33376 12.0724 6.33376Z" fill="#696969"/>
<path d="M10.4894 16.6251H7.32274C6.99499 16.6251 6.729 16.3591 6.729 16.0313C6.729 15.7036 6.99499 15.4376 7.32274 15.4376H10.4894C11.0349 15.4376 11.4789 14.9935 11.4789 14.448V10.8856C11.4789 10.5579 11.7448 10.2919 12.0726 10.2919C12.4003 10.2919 12.6663 10.5579 12.6663 10.8856V14.448C12.6663 15.6489 11.6903 16.6251 10.4894 16.6251Z" fill="#696969"/>
</g>
<defs>
<clipPath id="clip0">
<rect width="19" height="19" fill="white"/>
</clipPath>
</defs>
</svg>
