<svg width="32" height="22" viewBox="0 0 32 22" fill="none" xmlns="http://www.w3.org/2000/svg">
<path d="M25.7248 9.62488C25.368 9.62488 25.022 9.67122 24.6828 9.73657L22.6364 2.50338L25.93 1.33915C26.2693 1.21966 26.4529 0.830226 26.3396 0.469671C26.2263 0.109826 25.8616 -0.0842447 25.5197 0.0352526L21.6298 1.41024C21.2974 1.52774 21.1131 1.9037 21.2138 2.25955L22.1304 5.49971H12.5109L11.2143 2.74966H12.7585C13.1168 2.74966 13.4068 2.44215 13.4068 2.06213C13.4068 1.68211 13.1168 1.3746 12.7585 1.3746H8.86854C8.51018 1.3746 8.2202 1.68211 8.2202 2.06213C8.2202 2.44215 8.51018 2.74966 8.86854 2.74966H9.76444L11.3653 6.14482L8.85274 10.2894C8.07202 9.87766 7.20481 9.62468 6.2753 9.62468C3.05774 9.62468 0.44043 12.4003 0.44043 15.8122C0.44043 19.2242 3.0578 21.9998 6.2753 21.9998C9.27084 21.9998 11.7173 19.585 12.0447 16.4998H14.1746C14.4431 17.2983 15.156 17.8748 16.0001 17.8748C17.0726 17.8748 17.9451 16.9496 17.9451 15.8122C17.9451 15.4003 17.8277 15.0182 17.6309 14.6959L22.7437 7.66735L23.4381 10.1219C21.3544 11.0673 19.8899 13.261 19.8899 15.8124C19.8899 19.2245 22.5073 22 25.7248 22C28.9423 22 31.5597 19.2244 31.5597 15.8124C31.5597 12.4004 28.9424 9.62488 25.7248 9.62488ZM6.27524 20.625C3.77311 20.625 1.73699 18.4658 1.73699 15.8124C1.73699 13.1591 3.77311 10.9999 6.27524 10.9999C6.94662 10.9999 7.57903 11.1651 8.15292 11.4438L5.73011 15.4405C5.60156 15.6519 5.59275 15.9212 5.70604 16.1421C5.82 16.3623 6.03778 16.4999 6.27524 16.4999H10.748C10.43 18.826 8.55534 20.625 6.27524 20.625ZM7.463 15.1249L9.2379 12.1969C10.0393 12.9364 10.5886 13.959 10.748 15.1249H7.463ZM14.1745 15.1249H12.0446C11.8698 13.4766 11.0933 12.0348 9.94058 11.0376L12.0396 7.57512L15.0737 14.0102C14.6576 14.2519 14.3358 14.6453 14.1745 15.1249ZM16 16.5C15.6423 16.5 15.3517 16.1918 15.3517 15.8124C15.3517 15.4331 15.6423 15.1249 16 15.1249C16.3578 15.1249 16.6484 15.4331 16.6484 15.8124C16.6484 16.1918 16.3577 16.5 16 16.5ZM16.6008 13.861C16.5429 13.8408 16.4863 13.8176 16.4259 13.8032L13.1592 6.87483H21.683L16.6008 13.861ZM25.7248 20.625C23.2227 20.625 21.1866 18.4658 21.1866 15.8124C21.1866 13.884 22.2686 12.2285 23.8169 11.4613L25.1037 16.0098C25.1879 16.3079 25.4456 16.4999 25.7248 16.4999C25.7862 16.4999 25.8489 16.4905 25.911 16.471C26.2542 16.3616 26.4485 15.9782 26.3459 15.615L25.0604 11.0711C25.2791 11.0366 25.4973 10.9999 25.7248 10.9999C28.2269 10.9999 30.2631 13.1591 30.2631 15.8124C30.2631 18.4658 28.2269 20.625 25.7248 20.625Z" fill="#696969"/>
</svg>
