<svg width="19" height="19" viewBox="0 0 19 19" fill="none" xmlns="http://www.w3.org/2000/svg">
<path d="M16.7225 11.4903C16.4658 11.4903 16.2191 11.5336 15.9888 11.6122L15.675 10.9847C16.003 10.8607 16.3564 10.7926 16.7225 10.7926C17.1359 10.7926 17.5361 10.8757 17.9116 11.0397C18.0673 11.1076 18.2488 11.0365 18.3168 10.8808C18.3848 10.725 18.3137 10.5435 18.1579 10.4755C17.7041 10.2775 17.2212 10.1771 16.7225 10.1771C16.2585 10.1771 15.8112 10.2676 15.3987 10.4321L14.2585 8.15172C14.3125 8.16111 14.3678 8.16628 14.4244 8.16628H15.081C15.251 8.16628 15.3888 8.02852 15.3888 7.85851V6.54533C15.3888 6.37532 15.251 6.23756 15.081 6.23756H14.4244C14.0499 6.23756 13.7248 6.45226 13.5651 6.76496L13.2397 6.11404C13.0753 5.78521 12.7447 5.58097 12.3771 5.58097H11.7981C11.6281 5.58097 11.4903 5.71873 11.4903 5.88875C11.4903 6.05876 11.6281 6.19652 11.7981 6.19652H12.3771C12.5101 6.19652 12.6297 6.27043 12.6891 6.38935L13.4862 7.98351L13.3366 8.05836C13.0077 8.22275 12.8035 8.55326 12.8035 8.92091V12.1468H10.1566C9.60222 12.1468 9.15119 11.6959 9.15119 11.1414V9.80775H9.17171C9.70346 9.80775 10.1361 9.37514 10.1361 8.84339C10.1361 8.31164 9.70346 7.87903 9.17171 7.87903H6.54536C6.2817 7.87903 6.04253 7.98548 5.86825 8.15754V3.59069C5.86825 3.23995 5.58292 2.95462 5.23218 2.95462H0.636069C0.285328 2.95462 0 3.23995 0 3.59069V8.1868C0 8.53754 0.285328 8.82287 0.636069 8.82287H1.32688C1.31235 8.88595 1.30443 8.95095 1.3055 9.01739C1.3124 9.4532 1.67257 9.80775 2.10843 9.80775H3.76311C3.55501 9.94063 3.37675 10.0813 3.2284 10.2146C2.54649 10.8274 2.18209 11.5576 2.06846 12.0366C2.00719 12.2949 2.06599 12.5617 2.22985 12.7686C2.39146 12.9726 2.63353 13.0895 2.8942 13.0895C2.89477 13.0895 2.8953 13.0895 2.89588 13.0895L3.05806 13.0892C2.98998 13.3078 2.95464 13.5367 2.95464 13.7678C2.95464 15.0236 3.97633 16.0453 5.23218 16.0453C6.38359 16.0453 7.33757 15.1863 7.48834 14.0756H13.4395C13.6095 14.0756 13.7473 13.9378 13.7473 13.7678C13.7473 13.5673 13.7673 13.3669 13.8068 13.1724C13.9712 12.3626 14.4622 11.6835 15.1248 11.2607L15.4385 11.8879C14.8391 12.2986 14.4449 12.988 14.4449 13.7678C14.4449 15.0236 15.4666 16.0453 16.7225 16.0453C17.9783 16.0453 19 15.0236 19 13.7678C19 12.512 17.9783 11.4903 16.7225 11.4903ZM6.54536 8.49458H9.17171C9.36405 8.49458 9.52052 8.65105 9.52052 8.84339C9.52052 9.03573 9.36405 9.1922 9.17171 9.1922H6.54536C6.35302 9.1922 6.19654 9.03573 6.19654 8.84339C6.19654 8.65105 6.35302 8.49458 6.54536 8.49458ZM0.615551 3.59069C0.615551 3.5794 0.624743 3.57017 0.636069 3.57017H5.23218C5.24351 3.57017 5.2527 3.5794 5.2527 3.59069V4.2678H0.615551V3.59069ZM0.636069 8.20732C0.624743 8.20732 0.615551 8.19809 0.615551 8.1868V4.88335H5.2527V8.1868C5.2527 8.19809 5.24351 8.20732 5.23218 8.20732H0.636069ZM2.10843 9.1922C2.0067 9.1922 1.92261 9.10943 1.92101 9.0077C1.92019 8.95702 1.9394 8.90921 1.97497 8.8731C2.00001 8.84774 2.03111 8.83092 2.06489 8.82287L5.58153 8.82386C5.5814 8.83038 5.58104 8.83682 5.58104 8.84339C5.58104 8.96638 5.60443 9.08395 5.64657 9.1922H2.10843ZM2.89473 12.474C2.89457 12.474 2.8944 12.474 2.89424 12.474C2.79645 12.474 2.73834 12.4191 2.7124 12.3864C2.66632 12.3282 2.64995 12.2525 2.66743 12.1787C2.89424 11.2226 4.0749 9.80775 5.88877 9.80775C7.29686 9.80775 7.8216 11.1535 7.8216 12.0017C7.8216 12.2318 7.69459 12.465 7.45182 12.4654L2.89473 12.474ZM5.58099 13.7678C5.58099 13.9601 5.42452 14.1166 5.23218 14.1166C5.03984 14.1166 4.88337 13.9601 4.88337 13.7678C4.88337 13.5755 5.03984 13.419 5.23218 13.419C5.42452 13.419 5.58099 13.5755 5.58099 13.7678ZM5.23218 15.4298C4.31575 15.4298 3.57019 14.6842 3.57019 13.7678C3.57019 13.5325 3.62083 13.3007 3.71612 13.088L4.5504 13.0864C4.37591 13.261 4.26782 13.502 4.26782 13.7678C4.26782 14.2996 4.70043 14.7322 5.23218 14.7322C5.76394 14.7322 6.19654 14.2996 6.19654 13.7678C6.19654 13.5007 6.08735 13.2587 5.9113 13.0838L6.74566 13.0822C6.84263 13.2964 6.89417 13.5303 6.89417 13.7678C6.89417 14.6842 6.14861 15.4298 5.23218 15.4298ZM13.2036 13.0499C13.1762 13.1848 13.1566 13.3219 13.1448 13.46H7.48871C7.47119 13.3313 7.44262 13.2045 7.40364 13.081L7.45288 13.081C8.01398 13.0799 8.43711 12.616 8.43711 12.0017C8.43711 11.3358 8.21547 10.6609 7.82898 10.1502C7.7442 10.0382 7.64124 9.92065 7.51825 9.80775H8.53564V11.1414C8.53564 12.0352 9.26281 12.7624 10.1566 12.7624H13.1112C13.1794 12.7624 13.2423 12.74 13.2933 12.7024C13.258 12.8159 13.2276 12.9316 13.2036 13.0499ZM14.4244 6.85311H14.7732V7.55073H14.4244C14.2321 7.55073 14.0756 7.39426 14.0756 7.20192C14.0756 7.00958 14.2321 6.85311 14.4244 6.85311ZM13.419 12.3608V8.92087C13.419 8.78791 13.4929 8.66837 13.6118 8.60887L13.7615 8.53401L14.8486 10.7081C14.2201 11.0939 13.7147 11.6685 13.419 12.3608ZM16.7225 15.4298C15.806 15.4298 15.0605 14.6842 15.0605 13.7678C15.0605 12.8514 15.806 12.1058 16.7225 12.1058C17.6389 12.1058 18.3844 12.8514 18.3844 13.7678C18.3844 14.6842 17.6389 15.4298 16.7225 15.4298Z" fill="#63D673"/>
<path d="M16.7225 12.8034C16.1907 12.8034 15.7581 13.236 15.7581 13.7678C15.7581 14.2995 16.1907 14.7321 16.7225 14.7321C17.2542 14.7321 17.6868 14.2995 17.6868 13.7678C17.6868 13.236 17.2542 12.8034 16.7225 12.8034ZM16.7225 14.1166C16.5301 14.1166 16.3736 13.9601 16.3736 13.7678C16.3736 13.5754 16.5301 13.419 16.7225 13.419C16.9148 13.419 17.0713 13.5754 17.0713 13.7678C17.0713 13.9601 16.9148 14.1166 16.7225 14.1166Z" fill="#63D673"/>
</svg>
