<svg width="18" height="18" viewBox="0 0 18 18" fill="none" xmlns="http://www.w3.org/2000/svg">
<path d="M9 0C4.0371 0 0 4.0371 0 9C0 13.9629 4.0371 18 9 18C13.9629 18 18 13.9622 18 9C18 4.0378 13.9629 0 9 0ZM9 16.6057C4.80674 16.6057 1.39426 13.194 1.39426 9C1.39426 4.80604 4.80674 1.39426 9 1.39426C13.1933 1.39426 16.6057 4.80604 16.6057 9C16.6057 13.194 13.194 16.6057 9 16.6057Z" fill="white"/>
<path d="M12.4857 8.24019H9.69714V5.45166C9.69714 5.06684 9.38551 4.75452 8.99999 4.75452C8.61447 4.75452 8.30284 5.06684 8.30284 5.45166V8.24019H5.51432C5.12879 8.24019 4.81717 8.55252 4.81717 8.93734C4.81717 9.32216 5.12879 9.63448 5.51432 9.63448H8.30284V12.423C8.30284 12.8078 8.61447 13.1202 8.99999 13.1202C9.38551 13.1202 9.69714 12.8078 9.69714 12.423V9.63448H12.4857C12.8712 9.63448 13.1828 9.32216 13.1828 8.93734C13.1828 8.55252 12.8712 8.24019 12.4857 8.24019Z" fill="white"/>
</svg>
