<svg width="62" height="62" viewBox="0 0 62 62" fill="none" xmlns="http://www.w3.org/2000/svg">
<path d="M48 25.6045C45.56 25.6045 43.23 26.2141 41.188 27.3328L39.467 24.7408C42.822 22.2198 45 18.254 45 13.787C45 6.18447 38.72 0 31 0C23.28 0 17 6.18447 17 13.787C17 18.195 19.087 22.1991 22.521 24.7596L20.808 27.3397C18.77 26.2249 16.441 25.6045 14 25.6045C6.28 25.6045 0 31.789 0 39.3915C0 46.9941 6.28 53.1786 14 53.1786C16.622 53.1786 19.134 52.4735 21.336 51.1342C21.874 52.0589 22.594 52.8782 23.472 53.5262L25 54.6558V61.0569H43V52.2667C44.589 52.8634 46.29 53.1786 48 53.1786C55.72 53.1786 62 46.9941 62 39.3915C62 31.789 55.72 25.6045 48 25.6045ZM60 39.3915C60 41.7058 59.311 43.8595 58.139 45.6843C56.848 43.0402 54.536 41.0204 51.77 40.0435C53.129 38.9592 54 37.3048 54 35.4524C54 32.1937 51.309 29.5437 48 29.5437C45.078 29.5437 42.64 31.6127 42.11 34.3406C41.568 33.8107 40.822 33.4828 40 33.4828C39.605 33.4828 39.23 33.5626 38.884 33.6995C38.764 33.2622 38.546 32.8693 38.252 32.5374C40.506 29.4245 44.079 27.5741 48 27.5741C54.617 27.5741 60 32.8752 60 39.3915ZM43 38.712C43.338 39.2133 43.751 39.6614 44.225 40.0395C43.808 40.1863 43.398 40.3527 43 40.5477V38.712ZM48 39.3915C45.794 39.3915 44 37.6248 44 35.4524H52C52 37.6248 50.206 39.3915 48 39.3915ZM44.556 33.4828C45.25 32.3109 46.526 31.5132 48 31.5132C49.474 31.5132 50.75 32.3109 51.444 33.4828H44.556ZM48 41.3611C48.675 41.3611 49.336 41.4409 49.977 41.5807C49.865 42.5626 49.027 43.3307 48 43.3307C46.979 43.3307 46.144 42.5704 46.024 41.5955C46.67 41.4566 47.326 41.3611 48 41.3611ZM39.518 28.4151C38.36 29.2856 37.334 30.3413 36.48 31.5615C36.323 31.5359 36.164 31.5132 36 31.5132C35.605 31.5132 35.23 31.593 34.884 31.7299C34.539 30.4743 33.383 29.5437 32 29.5437C31.648 29.5437 31.314 29.6146 31 29.7249V27.5741C33.468 27.5741 35.785 26.9369 37.8 25.828L39.518 28.4151ZM31 25.6045C30.937 25.6045 30.876 25.5986 30.814 25.5976C30.397 24.4572 29.299 23.6349 28 23.6349C27.183 23.6349 26.443 23.9599 25.902 24.4828C24.508 23.8398 23.281 22.9603 22.264 21.9007C23.093 19.5303 24.871 17.6454 27.103 16.6173C27.504 18.3762 29.096 19.6958 31 19.6958C32.904 19.6958 34.496 18.3762 34.897 16.6183C37.12 17.6425 38.894 19.5156 39.727 21.8731C37.537 24.1638 34.439 25.6045 31 25.6045ZM27 9.84788H35C35 12.0203 33.206 13.787 31 13.787C28.794 13.787 27 12.0203 27 9.84788ZM27.556 7.87831C28.25 6.70641 29.526 5.90873 31 5.90873C32.474 5.90873 33.75 6.70641 34.444 7.87831H27.556ZM31 15.7566C31.675 15.7566 32.336 15.8364 32.977 15.9762C32.865 16.9581 32.027 17.7262 31 17.7262C29.973 17.7262 29.135 16.9581 29.023 15.9762C29.664 15.8364 30.325 15.7566 31 15.7566ZM31 1.96958C37.617 1.96958 43 7.27069 43 13.787C43 16.1013 42.311 18.255 41.139 20.0798C39.848 17.4357 37.536 15.4159 34.77 14.439C36.129 13.3547 37 11.7003 37 9.84788C37 6.58922 34.309 3.93915 31 3.93915C27.691 3.93915 25 6.58922 25 9.84788C25 11.7003 25.871 13.3547 27.23 14.438C24.456 15.4178 22.138 17.4455 20.849 20.1005C19.668 18.257 19 16.0875 19 13.787C19 7.27069 24.383 1.96958 31 1.96958ZM24.196 25.833C24.47 25.9817 24.748 26.1245 25.034 26.2574C25.021 26.3677 25 26.476 25 26.5893V30.8662C24.263 29.9425 23.418 29.1192 22.481 28.4171L24.196 25.833ZM14 27.5741C18.795 27.5741 23.089 30.3561 25 34.6734V35.8286L21.832 37.3885C20.482 38.0532 19.534 39.2399 19.17 40.6324C18.719 40.4019 18.252 40.2069 17.776 40.0395C19.131 38.9543 20 37.3028 20 35.4524C20 32.1937 17.309 29.5437 14 29.5437C10.691 29.5437 8 32.1937 8 35.4524C8 37.3048 8.871 38.9592 10.23 40.0425C7.464 41.0194 5.151 43.0392 3.861 45.6833C2.689 43.8595 2 41.7058 2 39.3915C2 32.8752 7.383 27.5741 14 27.5741ZM10 35.4524H18C18 37.6248 16.206 39.3915 14 39.3915C11.794 39.3915 10 37.6248 10 35.4524ZM10.556 33.4828C11.25 32.3109 12.526 31.5132 14 31.5132C15.474 31.5132 16.75 32.3109 17.444 33.4828H10.556ZM14 41.3611C14.673 41.3611 15.334 41.4369 15.978 41.5748C15.868 42.5596 15.029 43.3307 14 43.3307C12.973 43.3307 12.135 42.5626 12.023 41.5807C12.664 41.4409 13.325 41.3611 14 41.3611ZM14 51.209C10.561 51.209 7.463 49.7682 5.273 47.4776C6.106 45.12 7.88 43.247 10.103 42.2228C10.504 43.9807 12.096 45.3003 14 45.3003C15.907 45.3003 17.501 43.9777 17.899 42.2159C18.314 42.407 18.716 42.6295 19.103 42.8826C19.111 42.92 19.114 42.9575 19.122 42.9949L20.462 48.9341C20.489 49.0513 20.525 49.1656 20.557 49.2818C18.607 50.5403 16.357 51.209 14 51.209ZM41 59.0873H27V54.7729C31.337 52.6872 36.662 52.6872 41 54.7729V59.0873ZM41 52.6094C36.285 50.6467 30.706 50.8042 26.113 53.0161L24.672 51.9515C23.526 51.1056 22.725 49.8815 22.415 48.5067L21.075 42.5665C21.025 42.3489 21 42.1253 21 41.9008C21 40.7289 21.661 39.6742 22.726 39.1503L25 38.0306V40.1439C25 41.1267 24.445 42.0111 23.553 42.4503L24.448 44.2121C26.022 43.4351 27 41.8762 27 40.1439V26.5893C27 26.0457 27.449 25.6045 28 25.6045C28.551 25.6045 29 26.0457 29 26.5893V42.3459H31V32.498C31 31.9544 31.449 31.5132 32 31.5132C32.551 31.5132 33 31.9544 33 32.498V42.3459H35V34.4676C35 33.924 35.449 33.4828 36 33.4828C36.551 33.4828 37 33.924 37 34.4676V42.3459H39V36.4372C39 35.8936 39.449 35.4524 40 35.4524C40.551 35.4524 41 35.8936 41 36.4372V52.6094ZM48 51.209C46.271 51.209 44.561 50.819 43 50.1139V42.8363C43.357 42.6088 43.723 42.402 44.104 42.2267C44.507 43.9826 46.097 45.3003 48 45.3003C49.904 45.3003 51.496 43.9807 51.897 42.2228C54.12 43.247 55.894 45.12 56.727 47.4776C54.537 49.7682 51.439 51.209 48 51.209Z" fill="#61B46C"/>
</svg>
