<svg width="35" height="35" viewBox="0 0 35 35" fill="none" xmlns="http://www.w3.org/2000/svg">
<g clip-path="url(#clip0)">
<path d="M6.38192 18.9583C4.42767 18.9583 2.83646 20.5946 2.83646 22.6041C2.83646 24.6137 4.42767 26.25 6.38192 26.25C8.33617 26.25 9.92739 24.6138 9.92739 22.6042C9.92739 20.5946 8.33617 18.9583 6.38192 18.9583ZM6.38192 24.7917C5.20905 24.7917 4.25463 23.8103 4.25463 22.6042C4.25463 21.3981 5.20905 20.4167 6.38192 20.4167C7.55479 20.4167 8.50922 21.3981 8.50922 22.6042C8.50922 23.8102 7.55479 24.7917 6.38192 24.7917Z" fill="#61B46C"/>
<path d="M27.6548 18.9583C25.7006 18.9583 24.1093 20.5946 24.1093 22.6041C24.1093 24.6137 25.7006 26.25 27.6548 26.25C29.6091 26.25 31.2003 24.6138 31.2003 22.6042C31.2003 20.5946 29.6091 18.9583 27.6548 18.9583ZM27.6548 24.7917C26.4819 24.7917 25.5275 23.8103 25.5275 22.6042C25.5275 21.3981 26.4819 20.4167 27.6548 20.4167C28.8277 20.4167 29.7821 21.3981 29.7821 22.6042C29.7821 23.8102 28.8277 24.7917 27.6548 24.7917Z" fill="#61B46C"/>
<path d="M29.7821 14.5833H28.5823C28.1441 14.5833 27.7144 14.4287 27.3712 14.1458L21.7835 9.54912C21.1567 9.03438 20.3696 8.75 19.5682 8.75H9.31755C8.12912 8.75 7.02718 9.35669 6.36772 10.3731L5.16081 12.2369C4.79917 12.7925 4.19502 13.125 3.54547 13.125C1.59122 13.125 0 14.7612 0 16.7708V19.6875C0 21.6971 1.59122 23.3333 3.54547 23.3333C3.93689 23.3333 4.25459 23.0066 4.25459 22.6041C4.25459 22.2016 3.93689 21.875 3.54547 21.875C2.3726 21.875 1.41817 20.8936 1.41817 19.6875V16.7708C1.41817 15.5647 2.3726 14.5833 3.54547 14.5833C4.67154 14.5833 5.71531 14.0088 6.34073 13.0447L7.54764 11.1824C7.94331 10.5729 8.60563 10.2082 9.31755 10.2082H19.5682C20.0504 10.2082 20.5213 10.3789 20.8985 10.6881L26.4862 15.2832C27.0776 15.7718 27.8235 16.0416 28.5837 16.0416H29.7821C31.8626 16.0416 32.6185 18.2217 32.6185 19.6874C32.6185 21.1238 31.5492 21.8749 30.4912 21.8749C30.0998 21.8749 29.7821 22.2016 29.7821 22.6041C29.7821 23.0066 30.0998 23.3332 30.4912 23.3332C32.5122 23.3333 34.0367 21.7656 34.0367 19.6875C34.0367 17.2127 32.5462 14.5833 29.7821 14.5833Z" fill="#61B46C"/>
<path d="M24.8184 21.875H9.21831C8.82688 21.875 8.50919 22.2017 8.50919 22.6042C8.50919 23.0067 8.82688 23.3334 9.21831 23.3334H24.8185C25.2099 23.3334 25.5276 23.0067 25.5276 22.6042C25.5276 22.2017 25.2098 21.875 24.8184 21.875Z" fill="#61B46C"/>
<path d="M23.4002 14.5833H17.0184V12.3958C17.0184 11.9933 16.7007 11.6666 16.3092 11.6666C15.9178 11.6666 15.6001 11.9933 15.6001 12.3958V15.3125C15.6001 15.715 15.9178 16.0417 16.3092 16.0417H23.4002C23.7917 16.0417 24.1094 15.715 24.1094 15.3125C24.1094 14.91 23.7917 14.5833 23.4002 14.5833Z" fill="#61B46C"/>
<path d="M13.4729 14.5833H8.94738L9.8536 12.7225C10.028 12.3623 9.88624 11.9248 9.53591 11.744C9.18417 11.5646 8.76017 11.709 8.58427 12.0707L7.1661 14.9873C7.05548 15.2119 7.06824 15.4817 7.19728 15.6961C7.32631 15.9105 7.55466 16.0417 7.80003 16.0417H13.4728C13.8642 16.0417 14.1819 15.715 14.1819 15.3125C14.1819 14.91 13.8643 14.5833 13.4729 14.5833Z" fill="#61B46C"/>
<path d="M19.1456 17.5H17.7275C17.336 17.5 17.0183 17.8267 17.0183 18.2292C17.0183 18.6317 17.336 18.9584 17.7275 18.9584H19.1456C19.5371 18.9584 19.8548 18.6317 19.8548 18.2292C19.8548 17.8267 19.5371 17.5 19.1456 17.5Z" fill="#61B46C"/>
</g>
<defs>
<clipPath id="clip0">
<rect width="34.0367" height="35" fill="white"/>
</clipPath>
</defs>
</svg>
