<svg width="16" height="16" viewBox="0 0 16 16" fill="none" xmlns="http://www.w3.org/2000/svg">
<path d="M8 0C5.05925 0 2.66666 2.39259 2.66666 5.33334C2.66666 6.21616 2.88738 7.09147 3.30697 7.86784L7.70834 15.8281C7.76694 15.9342 7.87859 16 8 16C8.12141 16 8.23306 15.9342 8.29166 15.8281L12.6947 7.86522C13.1126 7.09147 13.3333 6.21613 13.3333 5.33331C13.3333 2.39259 10.9407 0 8 0ZM12.1097 7.54525L8 14.9779L3.89194 7.54819C3.52638 6.87175 3.33334 6.10581 3.33334 5.33334C3.33334 2.76009 5.42678 0.666687 8 0.666687C10.5732 0.666687 12.6667 2.76013 12.6667 5.33334C12.6667 6.10578 12.4736 6.87175 12.1097 7.54525Z" fill="#63D673"/>
<path d="M8.00002 2.66663C6.52965 2.66663 5.33337 3.86291 5.33337 5.33329C5.33337 6.80369 6.52965 7.99997 8.00002 7.99997C9.47039 7.99997 10.6667 6.80369 10.6667 5.33332C10.6667 3.86294 9.47039 2.66663 8.00002 2.66663ZM8.00002 7.33332C6.89715 7.33332 6.00003 6.43619 6.00003 5.33332C6.00003 4.23044 6.89715 3.33332 8.00002 3.33332C9.10289 3.33332 10 4.23044 10 5.33332C10 6.43616 9.10289 7.33332 8.00002 7.33332Z" fill="#63D673"/>
</svg>
