<svg width="25" height="10" viewBox="0 0 25 10" fill="none" xmlns="http://www.w3.org/2000/svg">
<path fill-rule="evenodd" clip-rule="evenodd" d="M0 0.963586H0.0115486C0.843748 2.14072 2.54536 3.71467 4.73209 4.97382C5.39403 5.35497 6.10063 5.70741 6.84126 6.01131L6.02091 7.44965C5.82335 7.79605 5.94399 8.23705 6.29039 8.4346C6.63684 8.63216 7.07779 8.51148 7.27534 8.16513L8.22184 6.50561C9.29128 6.83259 10.4128 7.04518 11.5589 7.09188C11.5551 7.12176 11.5532 7.15221 11.5532 7.1831V8.86793C11.5532 9.26671 11.8765 9.59 12.2752 9.59C12.674 9.59 12.9973 9.26671 12.9973 8.86793V7.1831C12.9973 7.14914 12.995 7.11572 12.9904 7.083C14.1743 7.03164 15.2936 6.82961 16.3387 6.52333L17.275 8.16507C17.4725 8.51147 17.9135 8.63215 18.26 8.43459C18.6064 8.23703 18.727 7.79604 18.5295 7.44964L17.7264 6.04162C21.0713 4.69704 23.4907 2.37622 24.5933 0.954303L24.5744 0.939611L24.5983 0.937338L24.5729 0.670954C24.5577 0.511881 24.4916 0.361964 24.3843 0.243559C24.0886 -0.082726 23.5772 -0.0799042 23.28 0.244347C21.3501 2.3498 17.913 5.60945 12.3951 5.60945H12.3947L12.3943 5.60946C7.3724 5.76883 3.46503 2.64742 1.50665 0.348211C1.19076 -0.0226505 0.624926 -0.0780421 0.265091 0.253385C0.0961284 0.409009 0 0.628238 0 0.857949V0.963586Z" fill="#696969"/>
</svg>
