<svg width="15" height="15" viewBox="0 0 15 15" fill="none" xmlns="http://www.w3.org/2000/svg">
<path d="M12.4209 10.494C11.3381 9.39454 9.90261 8.78906 8.37891 8.78906H6.62109C5.09742 8.78906 3.66193 9.39454 2.57912 10.494C1.50161 11.5881 0.908203 13.0322 0.908203 14.5605C0.908203 14.8032 1.10496 15 1.34766 15H13.6523C13.895 15 14.0918 14.8032 14.0918 14.5605C14.0918 13.0322 13.4984 11.5881 12.4209 10.494ZM1.80645 14.1211C2.02661 11.6283 4.10188 9.66797 6.62109 9.66797H8.37891C10.8981 9.66797 12.9734 11.6283 13.1936 14.1211H1.80645Z" fill="#696969"/>
<path d="M7.5 0C5.31917 0 3.54492 1.77425 3.54492 3.95508C3.54492 6.13591 5.31917 7.91016 7.5 7.91016C9.68083 7.91016 11.4551 6.13591 11.4551 3.95508C11.4551 1.77425 9.68083 0 7.5 0ZM7.5 7.03125C5.8038 7.03125 4.42383 5.65128 4.42383 3.95508C4.42383 2.25888 5.8038 0.878906 7.5 0.878906C9.1962 0.878906 10.5762 2.25888 10.5762 3.95508C10.5762 5.65128 9.1962 7.03125 7.5 7.03125Z" fill="#696969"/>
</svg>
