<svg width="217" height="66" viewBox="0 0 217 66" fill="none" xmlns="http://www.w3.org/2000/svg">
<path d="M208.616 65.415H8.02367C3.61065 65.415 0 61.7354 0 57.2382V8.17687C0 3.67959 3.61065 -7.62939e-06 8.02367 -7.62939e-06H208.616C213.029 -7.62939e-06 216.639 3.67959 216.639 8.17687V57.2382C216.639 61.7354 213.029 65.415 208.616 65.415Z" fill="black"/>
<path d="M208.616 0.000511169H8.02367C3.61065 0.000511169 0 3.68009 0 8.17736V57.2384C0 61.7357 3.61065 65.4153 8.02367 65.4153H208.616C213.029 65.4153 216.639 61.7357 216.639 57.2384V8.17736C216.639 3.68009 213.029 0.000511169 208.616 0.000511169ZM208.616 1.30881C212.332 1.30881 215.355 4.38984 215.355 8.17736V57.2384C215.355 61.026 212.332 64.107 208.616 64.107H8.02367C4.30711 64.107 1.28379 61.026 1.28379 57.2384V8.17736C1.28379 4.38984 4.30711 1.30881 8.02367 1.30881H208.616Z" fill="#A6A6A6"/>
<path d="M171.604 49.0614H174.598V28.6178H171.604V49.0614ZM198.574 35.9818L195.142 44.8455H195.039L191.477 35.9818H188.251L193.593 48.3697L190.549 55.2611H193.67L201.904 35.9818H198.574ZM181.593 46.7392C180.611 46.7392 179.244 46.2404 179.244 45.0025C179.244 43.426 180.946 42.8209 182.418 42.8209C183.734 42.8209 184.355 43.1103 185.154 43.5045C184.921 45.3982 183.321 46.7392 181.593 46.7392ZM181.954 35.5353C179.786 35.5353 177.54 36.5084 176.612 38.6654L179.27 39.7955C179.838 38.6654 180.895 38.2958 182.006 38.2958C183.554 38.2958 185.128 39.2427 185.154 40.9271V41.1365C184.612 40.8208 183.451 40.3482 182.031 40.3482C179.167 40.3482 176.249 41.9525 176.249 44.9501C176.249 47.6861 178.599 49.449 181.231 49.449C183.244 49.449 184.355 48.5283 185.051 47.449H185.154V49.0271H188.044V41.1888C188.044 37.5599 185.387 35.5353 181.954 35.5353ZM163.448 38.4708H159.189V31.4633H163.448C165.687 31.4633 166.958 33.3521 166.958 34.9662C166.958 36.5509 165.687 38.4708 163.448 38.4708ZM163.371 28.6178H156.197V49.0614H159.189V41.3163H163.371C166.69 41.3163 169.952 38.8666 169.952 34.9662C169.952 31.0659 166.69 28.6178 163.371 28.6178ZM124.246 46.7425C122.178 46.7425 120.446 44.9779 120.446 42.5543C120.446 40.1045 122.178 38.3122 124.246 38.3122C126.289 38.3122 127.891 40.1045 127.891 42.5543C127.891 44.9779 126.289 46.7425 124.246 46.7425ZM127.685 37.1265H127.581C126.909 36.3105 125.617 35.573 123.988 35.573C120.575 35.573 117.447 38.6278 117.447 42.5543C117.447 46.453 120.575 49.4834 123.988 49.4834C125.617 49.4834 126.909 48.7458 127.581 47.902H127.685V48.9044C127.685 51.5652 126.289 52.9879 124.039 52.9879C122.204 52.9879 121.066 51.6437 120.6 50.5104L117.99 51.6175C118.739 53.4622 120.73 55.7272 124.039 55.7272C127.555 55.7272 130.529 53.6192 130.529 48.4825V35.9932H127.685V37.1265ZM132.597 49.0614H135.597V28.6161H132.597V49.0614ZM140.016 42.3172C139.939 39.6303 142.059 38.2599 143.583 38.2599C144.774 38.2599 145.782 38.8649 146.117 39.735L140.016 42.3172ZM149.324 39.9982C148.756 38.4447 147.022 35.573 143.481 35.573C139.965 35.573 137.044 38.3907 137.044 42.5282C137.044 46.4269 139.939 49.4834 143.816 49.4834C146.945 49.4834 148.756 47.534 149.505 46.4007L147.178 44.8193C146.403 45.9788 145.342 46.7425 143.816 46.7425C142.292 46.7425 141.205 46.0311 140.507 44.6361L149.633 40.7881L149.324 39.9982ZM76.6163 37.7071V40.6573H83.5439C83.3369 42.3172 82.7945 43.529 81.968 44.3712C80.9587 45.3999 79.3812 46.5332 76.6163 46.5332C72.3493 46.5332 69.0146 43.0286 69.0146 38.6818C69.0146 34.3333 72.3493 30.8304 76.6163 30.8304C78.9174 30.8304 80.5976 31.7527 81.8381 32.9384L83.8809 30.8566C82.1478 29.1705 79.8482 27.8786 76.6163 27.8786C70.7734 27.8786 65.8613 32.7274 65.8613 38.6818C65.8613 44.6361 70.7734 49.4834 76.6163 49.4834C79.7696 49.4834 82.1478 48.4285 84.0093 46.453C85.9237 44.5037 86.5175 41.7644 86.5175 39.5502C86.5175 38.8649 86.4661 38.2337 86.3618 37.7071H76.6163ZM94.3951 46.7425C92.3266 46.7425 90.5421 45.0041 90.5421 42.5282C90.5421 40.0244 92.3266 38.3122 94.3951 38.3122C96.462 38.3122 98.2465 40.0244 98.2465 42.5282C98.2465 45.0041 96.462 46.7425 94.3951 46.7425ZM94.3951 35.573C90.6192 35.573 87.5429 38.497 87.5429 42.5282C87.5429 46.5332 90.6192 49.4834 94.3951 49.4834C98.1694 49.4834 101.246 46.5332 101.246 42.5282C101.246 38.497 98.1694 35.573 94.3951 35.573ZM109.34 46.7425C107.272 46.7425 105.487 45.0041 105.487 42.5282C105.487 40.0244 107.272 38.3122 109.34 38.3122C111.409 38.3122 113.191 40.0244 113.191 42.5282C113.191 45.0041 111.409 46.7425 109.34 46.7425ZM109.34 35.573C105.566 35.573 102.489 38.497 102.489 42.5282C102.489 46.5332 105.566 49.4834 109.34 49.4834C113.114 49.4834 116.191 46.5332 116.191 42.5282C116.191 38.497 113.114 35.573 109.34 35.573Z" fill="white"/>
<path d="M16.7454 12.3281C16.28 12.8317 16.004 13.6134 16.004 14.6257V50.7933C16.004 51.8072 16.28 52.5873 16.7454 53.091L16.8642 53.2087L36.7468 32.9483V32.7095V32.4691L16.8642 12.2087L16.7454 12.3281Z" fill="url(#paint0_linear)"/>
<path d="M36.7468 32.4691V32.7095V32.9483L43.3728 39.7056L43.5236 39.619L51.3756 35.0726C53.6174 33.7725 53.6174 31.6465 51.3756 30.3497L43.5236 25.8017L43.3744 25.715L36.7468 32.4691Z" fill="url(#paint1_linear)"/>
<path d="M16.7452 53.0909C17.485 53.8874 18.7062 53.9871 20.0815 53.1923L43.5234 39.6172L36.7466 32.7094L16.7452 53.0909Z" fill="url(#paint2_linear)"/>
<path d="M16.7452 12.328L36.7466 32.7094L43.5234 25.8017L20.0815 12.2282C19.4364 11.8537 18.825 11.6771 18.2826 11.6771C17.6664 11.6771 17.1384 11.9044 16.7452 12.328Z" fill="url(#paint3_linear)"/>
<g opacity="0.199997">
<g opacity="0.199997">
<path opacity="0.199997" d="M43.3741 39.4649L20.0813 52.9518C18.7783 53.7073 17.6133 53.6566 16.8655 52.9697L16.7467 53.0924L16.8655 53.2101V53.2085C17.6133 53.8954 18.7783 53.9461 20.0813 53.1905L43.5233 39.617L43.3741 39.4649Z" fill="black"/>
</g>
</g>
<g opacity="0.119995">
<g opacity="0.119995">
<path opacity="0.119995" d="M16.7459 52.8543C16.2789 52.3515 16.0029 51.5711 16.0029 50.5605V50.7989C16.0029 51.8095 16.2789 52.5899 16.7459 53.0927L16.8663 52.9719L16.7459 52.8543Z" fill="black"/>
</g>
</g>
<g opacity="0.119995">
<g opacity="0.119995">
<path opacity="0.119995" d="M51.3752 34.8316L43.374 39.4647L43.5233 39.6168L51.3752 35.0704C52.497 34.4212 53.057 33.5659 53.057 32.7106C52.9623 33.4841 52.3926 34.2429 51.3752 34.8316Z" fill="black"/>
</g>
</g>
<g opacity="0.25">
<g opacity="0.25">
<path opacity="0.25" d="M20.0808 12.4673L51.3748 30.587C52.3922 31.1758 52.9634 31.9346 53.0565 32.7097C53.0581 31.8544 52.4965 30.9975 51.3748 30.3483L20.0808 12.2285C17.8374 10.93 16.0032 12.0077 16.0032 14.626V14.8647C16.0032 12.2481 17.8374 11.1688 20.0808 12.4673Z" fill="white"/>
</g>
</g>
<path d="M67.5728 20.0549H69.2802C70.3923 20.0549 71.2733 19.7311 71.9232 19.0819C72.5731 18.4326 72.8973 17.5234 72.8973 16.3541C72.8973 15.1946 72.5731 14.2887 71.9232 13.6345C71.2733 12.982 70.3923 12.655 69.2802 12.655H67.5728V20.0549ZM66.3372 21.2601V11.4481H69.2802C70.7598 11.4481 71.9441 11.9027 72.8315 12.8119C73.7189 13.7212 74.1618 14.9019 74.1618 16.3541C74.1618 17.8079 73.7189 18.9886 72.8315 19.8963C71.9441 20.8071 70.7598 21.2601 69.2802 21.2601H66.3372Z" fill="white"/>
<path d="M67.5728 20.0549H69.2802C70.3923 20.0549 71.2733 19.7311 71.9232 19.0819C72.5731 18.4326 72.8973 17.5234 72.8973 16.3541C72.8973 15.1946 72.5731 14.2887 71.9232 13.6345C71.2733 12.982 70.3923 12.655 69.2802 12.655H67.5728V20.0549ZM66.3372 21.2601V11.4481H69.2802C70.7598 11.4481 71.9441 11.9027 72.8315 12.8119C73.7189 13.7212 74.1618 14.9019 74.1618 16.3541C74.1618 17.8079 73.7189 18.9886 72.8315 19.8963C71.9441 20.8071 70.7598 21.2601 69.2802 21.2601H66.3372Z" stroke="white" stroke-width="0.266667" stroke-miterlimit="10"/>
<path d="M75.899 11.4486H77.1363V21.2605H75.899V11.4486Z" fill="white" stroke="white" stroke-width="0.266667" stroke-miterlimit="10"/>
<path d="M82.0561 21.4794C81.3565 21.4794 80.6745 21.2471 80.0069 20.7811C79.3377 20.315 78.8996 19.6625 78.6942 18.8203L79.8239 18.3558C79.9587 18.8939 80.2332 19.3485 80.6504 19.7181C81.0692 20.0877 81.5362 20.2741 82.0561 20.2741C82.5937 20.2741 83.0543 20.1302 83.4346 19.8424C83.8165 19.5546 84.0059 19.1637 84.0059 18.6698C84.0059 18.122 83.8165 17.7001 83.4346 17.4024C83.0543 17.1064 82.4509 16.83 81.6261 16.5733C80.7739 16.3002 80.1288 15.9453 79.6891 15.512C79.2511 15.0769 79.0296 14.5226 79.0296 13.8455C79.0296 13.1423 79.304 12.5307 79.8512 12.0107C80.3984 11.4906 81.1109 11.229 81.9887 11.229C82.8055 11.229 83.4683 11.4366 83.9786 11.852C84.4905 12.269 84.8227 12.722 84.9735 13.2159L83.8454 13.6951C83.7636 13.386 83.5646 13.0965 83.2468 12.8316C82.9291 12.5683 82.5183 12.4358 82.016 12.4358C81.541 12.4358 81.135 12.5699 80.7996 12.8398C80.4626 13.1096 80.2941 13.4449 80.2941 13.8455C80.2941 14.2118 80.4498 14.5209 80.7579 14.7711C81.0692 15.023 81.5234 15.2487 82.1235 15.4498C82.5985 15.6052 82.9949 15.7556 83.3142 15.9028C83.632 16.0483 83.9561 16.243 84.2819 16.485C84.6093 16.727 84.8548 17.0279 85.0217 17.3893C85.187 17.7508 85.2704 18.1678 85.2704 18.6437C85.2704 19.1179 85.1741 19.5431 84.9816 19.9176C84.789 20.2921 84.5322 20.5897 84.2145 20.8089C83.8952 21.028 83.555 21.1948 83.1859 21.3077C82.8184 21.4221 82.4413 21.4794 82.0561 21.4794Z" fill="white"/>
<path d="M82.0561 21.4794C81.3565 21.4794 80.6745 21.2471 80.0069 20.7811C79.3377 20.315 78.8996 19.6625 78.6942 18.8203L79.8239 18.3558C79.9587 18.8939 80.2332 19.3485 80.6504 19.7181C81.0692 20.0877 81.5362 20.2741 82.0561 20.2741C82.5937 20.2741 83.0543 20.1302 83.4346 19.8424C83.8165 19.5546 84.0059 19.1637 84.0059 18.6698C84.0059 18.122 83.8165 17.7001 83.4346 17.4024C83.0543 17.1064 82.4509 16.8301 81.6261 16.5733C80.7739 16.3002 80.1288 15.9453 79.6891 15.512C79.2511 15.0769 79.0296 14.5226 79.0296 13.8455C79.0296 13.1423 79.304 12.5307 79.8512 12.0107C80.3984 11.4906 81.1109 11.229 81.9887 11.229C82.8055 11.229 83.4683 11.4366 83.9786 11.852C84.4905 12.269 84.8227 12.722 84.9735 13.2159L83.8454 13.6951C83.7636 13.386 83.5646 13.0965 83.2468 12.8316C82.9291 12.5683 82.5183 12.4358 82.016 12.4358C81.541 12.4358 81.135 12.5699 80.7996 12.8398C80.4626 13.1096 80.2941 13.4449 80.2941 13.8455C80.2941 14.2118 80.4498 14.5209 80.7579 14.7711C81.0692 15.023 81.5234 15.2487 82.1235 15.4498C82.5985 15.6052 82.9949 15.7556 83.3142 15.9028C83.632 16.0483 83.9561 16.243 84.2819 16.485C84.6093 16.727 84.8548 17.0279 85.0217 17.3893C85.187 17.7508 85.2704 18.1678 85.2704 18.6437C85.2704 19.1179 85.1741 19.5431 84.9816 19.9176C84.789 20.2921 84.5322 20.5897 84.2145 20.8089C83.8952 21.028 83.555 21.1948 83.1859 21.3077C82.8184 21.4221 82.4413 21.4794 82.0561 21.4794Z" stroke="white" stroke-width="0.266667" stroke-miterlimit="10"/>
<path d="M88.2825 16.0798H90.3542C90.8742 16.0798 91.2914 15.9032 91.6043 15.5467C91.9189 15.1902 92.0745 14.7977 92.0745 14.3676C92.0745 13.9375 91.9189 13.5451 91.6043 13.1886C91.2914 12.8321 90.8742 12.6538 90.3542 12.6538H88.2825V16.0798ZM88.2825 21.2605H87.0469V11.4486H90.327C91.1422 11.4486 91.8499 11.7249 92.4452 12.2777C93.0422 12.8304 93.3391 13.5271 93.3391 14.3676C93.3391 15.2082 93.0422 15.9048 92.4452 16.4559C91.8499 17.0103 91.1422 17.2867 90.327 17.2867H88.2825V21.2605Z" fill="white"/>
<path d="M88.2825 16.0798H90.3542C90.8742 16.0798 91.2914 15.9032 91.6043 15.5467C91.9189 15.1902 92.0745 14.7977 92.0745 14.3676C92.0745 13.9375 91.9189 13.5451 91.6043 13.1886C91.2914 12.8321 90.8742 12.6538 90.3542 12.6538H88.2825V16.0798ZM88.2825 21.2605H87.0469V11.4486H90.327C91.1422 11.4486 91.8499 11.7249 92.4452 12.2777C93.0422 12.8304 93.3391 13.5271 93.3391 14.3676C93.3391 15.2082 93.0422 15.9048 92.4452 16.4559C91.8499 17.0103 91.1422 17.2867 90.327 17.2867H88.2825V21.2605Z" stroke="white" stroke-width="0.266667" stroke-miterlimit="10"/>
<path d="M96.6257 19.1709C97.3382 19.9069 98.2096 20.2732 99.2415 20.2732C100.272 20.2732 101.145 19.9069 101.857 19.1709C102.57 18.435 102.928 17.4963 102.928 16.3548C102.928 15.2133 102.57 14.273 101.857 13.5387C101.145 12.8027 100.272 12.4348 99.2415 12.4348C98.2096 12.4348 97.3382 12.8027 96.6257 13.5387C95.9148 14.273 95.557 15.2133 95.557 16.3548C95.557 17.4963 95.9148 18.435 96.6257 19.1709ZM102.772 19.9919C101.825 20.9846 100.649 21.4801 99.2415 21.4801C97.8341 21.4801 96.6578 20.9846 95.7127 19.9919C94.7659 19.0009 94.2941 17.789 94.2941 16.3548C94.2941 14.9206 94.7659 13.7071 95.7127 12.7161C96.6578 11.725 97.8341 11.2279 99.2415 11.2279C100.641 11.2279 101.814 11.7267 102.765 12.7226C103.715 13.7186 104.19 14.9288 104.19 16.3548C104.19 17.789 103.717 19.0009 102.772 19.9919Z" fill="white"/>
<path d="M96.6257 19.1709C97.3382 19.9069 98.2096 20.2732 99.2415 20.2732C100.272 20.2732 101.145 19.9069 101.857 19.1709C102.57 18.435 102.928 17.4963 102.928 16.3548C102.928 15.2133 102.57 14.273 101.857 13.5387C101.145 12.8027 100.272 12.4348 99.2415 12.4348C98.2096 12.4348 97.3382 12.8027 96.6257 13.5387C95.9148 14.273 95.557 15.2133 95.557 16.3548C95.557 17.4963 95.9148 18.435 96.6257 19.1709ZM102.772 19.9919C101.825 20.9846 100.649 21.4801 99.2415 21.4801C97.8341 21.4801 96.6578 20.9846 95.7127 19.9919C94.7659 19.0009 94.2941 17.789 94.2941 16.3548C94.2941 14.9206 94.7659 13.7071 95.7127 12.7161C96.6578 11.725 97.8341 11.2279 99.2415 11.2279C100.641 11.2279 101.814 11.7267 102.765 12.7226C103.715 13.7186 104.19 14.9288 104.19 16.3548C104.19 17.789 103.717 19.0009 102.772 19.9919Z" stroke="white" stroke-width="0.266667" stroke-miterlimit="10"/>
<path d="M105.927 21.2605V11.4486H107.433L112.111 19.0806H112.166L112.111 17.1902V11.4486H113.35V21.2605H112.058L107.162 13.2572H107.109L107.162 15.1493V21.2605H105.927Z" fill="white"/>
<path d="M105.927 21.2605V11.4486H107.433L112.111 19.0806H112.166L112.111 17.1902V11.4486H113.35V21.2605H112.058L107.162 13.2572H107.109L107.162 15.1493V21.2605H105.927Z" stroke="white" stroke-width="0.266667" stroke-miterlimit="10"/>
<path d="M116.712 10.6809H115.635L116.336 8.92619H117.681L116.712 10.6809ZM115.555 11.4479H116.792V21.2601H115.555V11.4479Z" fill="white"/>
<path d="M116.712 10.6809H115.635L116.336 8.92619H117.681L116.712 10.6809ZM115.555 11.4479H116.792V21.2601H115.555V11.4479Z" stroke="white" stroke-width="0.266667" stroke-miterlimit="10"/>
<path d="M121.377 21.2605L117.989 11.4486H119.36L121.996 19.411H122.049L124.793 11.4486H126.164L122.669 21.2605H121.377Z" fill="white"/>
<path d="M121.377 21.2605L117.989 11.4486H119.36L121.996 19.411H122.049L124.793 11.4486H126.164L122.669 21.2605H121.377Z" stroke="white" stroke-width="0.266667" stroke-miterlimit="10"/>
<path d="M133.185 12.6539H128.801V15.7645H132.755V16.9436H128.801V20.0542H133.185V21.2612H127.564V11.4486H133.185V12.6539Z" fill="white"/>
<path d="M133.185 12.6539H128.801V15.7645H132.755V16.9436H128.801V20.0542H133.185V21.2612H127.564V11.4486H133.185V12.6539Z" stroke="white" stroke-width="0.266667" stroke-miterlimit="10"/>
<path d="M135.122 21.2605V11.4486H136.359V20.0553H140.527V21.2605H135.122Z" fill="white"/>
<path d="M135.122 21.2605V11.4486H136.359V20.0553H140.527V21.2605H135.122Z" stroke="white" stroke-width="0.266667" stroke-miterlimit="10"/>
<path d="M145.315 21.2605V11.4486H146.822L151.501 19.0806H151.554L151.501 17.1902V11.4486H152.738V21.2605H151.446L146.552 13.2572H146.497L146.552 15.1493V21.2605H145.315Z" fill="white"/>
<path d="M145.315 21.2605V11.4486H146.822L151.501 19.0806H151.554L151.501 17.1902V11.4486H152.738V21.2605H151.446L146.552 13.2572H146.497L146.552 15.1493V21.2605H145.315Z" stroke="white" stroke-width="0.266667" stroke-miterlimit="10"/>
<path d="M156.668 19.1709C157.381 19.9069 158.252 20.2732 159.284 20.2732C160.314 20.2732 161.187 19.9069 161.9 19.1709C162.612 18.435 162.97 17.4963 162.97 16.3548C162.97 15.2133 162.612 14.273 161.9 13.5387C161.187 12.8027 160.314 12.4348 159.284 12.4348C158.252 12.4348 157.381 12.8027 156.668 13.5387C155.958 14.273 155.6 15.2133 155.6 16.3548C155.6 17.4963 155.958 18.435 156.668 19.1709ZM162.815 19.9919C161.868 20.9846 160.692 21.4801 159.284 21.4801C157.877 21.4801 156.701 20.9846 155.755 19.9919C154.809 19.0009 154.337 17.789 154.337 16.3548C154.337 14.9206 154.809 13.7071 155.755 12.7161C156.701 11.725 157.877 11.2279 159.284 11.2279C160.683 11.2279 161.857 11.7267 162.808 12.7226C163.758 13.7186 164.233 14.9288 164.233 16.3548C164.233 17.789 163.76 19.0009 162.815 19.9919Z" fill="white"/>
<path d="M156.668 19.1709C157.381 19.9069 158.252 20.2732 159.284 20.2732C160.314 20.2732 161.187 19.9069 161.9 19.1709C162.612 18.435 162.97 17.4963 162.97 16.3548C162.97 15.2133 162.612 14.273 161.9 13.5387C161.187 12.8027 160.314 12.4348 159.284 12.4348C158.252 12.4348 157.381 12.8027 156.668 13.5387C155.958 14.273 155.6 15.2133 155.6 16.3548C155.6 17.4963 155.958 18.435 156.668 19.1709ZM162.815 19.9919C161.868 20.9846 160.692 21.4801 159.284 21.4801C157.877 21.4801 156.701 20.9846 155.755 19.9919C154.809 19.0009 154.337 17.789 154.337 16.3548C154.337 14.9206 154.809 13.7071 155.755 12.7161C156.701 11.725 157.877 11.2279 159.284 11.2279C160.683 11.2279 161.857 11.7267 162.808 12.7226C163.758 13.7186 164.233 14.9288 164.233 16.3548C164.233 17.789 163.76 19.0009 162.815 19.9919Z" stroke="white" stroke-width="0.266667" stroke-miterlimit="10"/>
<defs>
<linearGradient id="paint0_linear" x1="34.9828" y1="14.2442" x2="7.54247" y2="41.1707" gradientUnits="userSpaceOnUse">
<stop stop-color="#00A0FF"/>
<stop offset="0.00657445" stop-color="#00A1FF"/>
<stop offset="0.2601" stop-color="#00BEFF"/>
<stop offset="0.5122" stop-color="#00D2FF"/>
<stop offset="0.7604" stop-color="#00DFFF"/>
<stop offset="1" stop-color="#00E3FF"/>
</linearGradient>
<linearGradient id="paint1_linear" x1="54.2952" y1="32.7103" x2="15.4656" y2="32.7103" gradientUnits="userSpaceOnUse">
<stop stop-color="#FFE000"/>
<stop offset="0.4087" stop-color="#FFBD00"/>
<stop offset="0.7754" stop-color="#FFA500"/>
<stop offset="1" stop-color="#FF9C00"/>
</linearGradient>
<linearGradient id="paint2_linear" x1="39.8405" y1="36.4627" x2="2.62906" y2="72.9772" gradientUnits="userSpaceOnUse">
<stop stop-color="#FF3A44"/>
<stop offset="1" stop-color="#C31162"/>
</linearGradient>
<linearGradient id="paint3_linear" x1="11.7101" y1="0.288818" x2="28.3265" y2="16.5941" gradientUnits="userSpaceOnUse">
<stop stop-color="#32A071"/>
<stop offset="0.0685" stop-color="#2DA771"/>
<stop offset="0.4762" stop-color="#15CF74"/>
<stop offset="0.8009" stop-color="#06E775"/>
<stop offset="1" stop-color="#00F076"/>
</linearGradient>
</defs>
</svg>
