<svg width="19" height="19" viewBox="0 0 19 19" fill="none" xmlns="http://www.w3.org/2000/svg">
<path d="M16.3665 7.85396H16.3195V6.70173C16.3195 3.00047 13.319 0 9.61773 0C5.91643 0 2.916 3.00047 2.916 6.70173V7.85396H2.63384C1.59918 7.85396 0.799684 8.77101 0.799684 9.82922V12.7686C0.773623 13.7942 1.58396 14.6467 2.60958 14.6728C2.61768 14.673 2.62574 14.6732 2.63384 14.6733H4.37393C4.6204 14.6617 4.81083 14.4524 4.79922 14.206C4.79881 14.1971 4.79814 14.1882 4.79719 14.1794V8.41828C4.79719 8.13612 4.63259 7.85391 4.37393 7.85391H3.8566V6.70169C3.8566 3.51992 6.43596 0.94055 9.61773 0.94055C12.7995 0.94055 15.3789 3.51992 15.3789 6.70169V7.85391H14.8615C14.6029 7.85391 14.4383 8.13607 14.4383 8.41828V14.1794C14.412 14.4248 14.5896 14.6449 14.835 14.6712C14.8438 14.6721 14.8527 14.6728 14.8615 14.6732H15.4024L15.3553 14.7437C14.6497 15.6815 13.5425 16.2307 12.3689 16.2252C12.112 14.9654 10.8825 14.1524 9.62273 14.4094C8.54544 14.6291 7.76872 15.5725 7.76003 16.672C7.77291 17.9615 8.82197 19 10.1115 18.9999C10.7499 18.9896 11.3584 18.7276 11.8046 18.2709C12.1056 17.9626 12.3029 17.568 12.3689 17.1422C13.8386 17.1478 15.2245 16.4592 16.1078 15.2846L16.5546 14.6261C17.5657 14.5556 18.2006 13.9207 18.2006 13.0036V10.0643C18.2007 9.05322 17.4482 7.85396 16.3665 7.85396ZM3.8566 13.7327H2.63384C2.12749 13.7203 1.727 13.2999 1.73933 12.7935C1.73956 12.7852 1.73987 12.7769 1.74028 12.7685V9.82917C1.74028 9.28835 2.11651 8.79451 2.63384 8.79451H3.8566V13.7327ZM11.1227 17.6126C10.8621 17.8952 10.4959 18.057 10.1116 18.0594C9.34651 18.0473 8.72566 17.4368 8.70068 16.672C8.70036 15.9058 9.32126 15.2844 10.0875 15.2841C10.8537 15.2838 11.4751 15.9046 11.4754 16.6709C11.4754 16.6712 11.4754 16.6716 11.4754 16.672C11.495 17.0211 11.367 17.3624 11.1227 17.6126ZM17.2601 13.0037C17.2601 13.6386 16.6487 13.7327 16.3665 13.7327H15.3789V8.79455H16.3665C16.8838 8.79455 17.2601 9.52352 17.2601 10.0643V13.0037Z" fill="#696969"/>
</svg>
