<svg width="93" height="83" viewBox="0 0 93 83" fill="none" xmlns="http://www.w3.org/2000/svg">
<path d="M22 37.9395L26.4609 9.08564H28.7633L30.1303 2H56.3921L87.9062 7.33249V12.0806L89.633 13.0302L91 41.665L88.4818 53.7179H84.0209L85.3879 48.1662L63.5871 50.3577L61.6444 60H53.658L23.7268 52.1108L22 37.9395Z" fill="#63D673"/>
<path d="M22 37.9395L26.4609 9.08564H28.7633M22 37.9395L23.7268 52.1108L53.658 60M22 37.9395L51.1397 43.0529M53.658 60H61.6444L63.5871 50.3577L85.3879 48.1662L84.0209 53.7179H88.4818L91 41.665M53.658 60L51.1397 43.0529M91 41.665L89.633 13.0302L87.9062 12.0806M91 41.665L51.1397 43.0529M87.9062 12.0806V7.33249L56.3921 2M87.9062 12.0806L55.4855 9.08564M56.3921 2H30.1303L28.7633 9.08564M56.3921 2L55.4855 9.08564M28.7633 9.08564H55.4855M51.1397 43.0529L55.4855 9.08564" stroke="#F2F2F2" stroke-linejoin="round"/>
<path d="M10 0V52" stroke="#63D673" stroke-width="0.5" stroke-linejoin="round"/>
<path d="M56 71H93" stroke="#63D673" stroke-width="0.5" stroke-linejoin="round"/>
<path d="M16 60L49 70" stroke="#63D673" stroke-width="0.5" stroke-linejoin="round"/>
<path d="M73.7852 82V76.2891H74.4492V81.3984H76.9688V82H73.7852Z" fill="#63D673"/>
<path d="M28.2305 69.8008C27.6029 69.8008 27.1068 70.0104 26.7422 70.4297C26.3802 70.8464 26.1992 71.418 26.1992 72.1445C26.1992 72.8919 26.3737 73.4701 26.7227 73.8789C27.0742 74.2852 27.5742 74.4883 28.2227 74.4883C28.6211 74.4883 29.0755 74.4167 29.5859 74.2734V74.8555C29.1901 75.0039 28.7018 75.0781 28.1211 75.0781C27.2799 75.0781 26.6302 74.8229 26.1719 74.3125C25.7161 73.8021 25.4883 73.0768 25.4883 72.1367C25.4883 71.5482 25.5977 71.0326 25.8164 70.5898C26.0378 70.1471 26.3555 69.806 26.7695 69.5664C27.1862 69.3268 27.6758 69.207 28.2383 69.207C28.8372 69.207 29.3607 69.3164 29.8086 69.5352L29.5273 70.1055C29.0951 69.9023 28.6628 69.8008 28.2305 69.8008Z" fill="#63D673"/>
<path d="M4.375 29L3.66406 27.1836H1.375L0.671875 29H0L2.25781 23.2656H2.81641L5.0625 29H4.375ZM3.45703 26.5859L2.79297 24.8164C2.70703 24.5924 2.61849 24.3177 2.52734 23.9922C2.47005 24.2422 2.38802 24.5169 2.28125 24.8164L1.60938 26.5859H3.45703Z" fill="#63D673"/>
</svg>
