<svg width="32" height="22" viewBox="0 0 32 22" fill="none" xmlns="http://www.w3.org/2000/svg">
<path d="M25.2844 9.62488C24.9276 9.62488 24.5816 9.67122 24.2423 9.73657L22.196 2.50338L25.4895 1.33915C25.8289 1.21966 26.0125 0.830226 25.8992 0.469671C25.7858 0.109826 25.4211 -0.0842447 25.0793 0.0352526L21.1893 1.41024C20.8569 1.52774 20.6727 1.9037 20.7734 2.25955L21.69 5.49971H12.0705L10.7739 2.74966H12.318C12.6764 2.74966 12.9664 2.44215 12.9664 2.06213C12.9664 1.68211 12.6764 1.3746 12.318 1.3746H8.42811C8.06975 1.3746 7.77977 1.68211 7.77977 2.06213C7.77977 2.44215 8.06975 2.74966 8.42811 2.74966H9.32401L10.9249 6.14483L8.41231 10.2894C7.63159 9.87766 6.76438 9.62468 5.83487 9.62468C2.61731 9.62468 0 12.4003 0 15.8122C0 19.2242 2.61737 21.9998 5.83487 21.9998C8.83041 21.9998 11.2769 19.585 11.6042 16.4998H13.7341C14.0027 17.2983 14.7156 17.8748 15.5597 17.8748C16.6322 17.8748 17.5046 16.9496 17.5046 15.8122C17.5046 15.4003 17.3873 15.0182 17.1904 14.6959L22.3033 7.66735L22.9977 10.1219C20.914 11.0673 19.4495 13.261 19.4495 15.8124C19.4495 19.2245 22.0669 22 25.2844 22C28.5019 22 31.1193 19.2244 31.1193 15.8124C31.1193 12.4004 28.502 9.62488 25.2844 9.62488ZM5.83481 20.625C3.33269 20.625 1.29656 18.4658 1.29656 15.8124C1.29656 13.1591 3.33269 10.9999 5.83481 10.9999C6.50619 10.9999 7.1386 11.1651 7.71249 11.4438L5.28968 15.4405C5.16113 15.6519 5.15232 15.9212 5.26561 16.1421C5.37957 16.3623 5.59735 16.4999 5.83481 16.4999H10.3075C9.98955 18.826 8.11491 20.625 5.83481 20.625ZM7.02257 15.1249L8.79747 12.1969C9.59885 12.9364 10.1482 13.959 10.3075 15.1249H7.02257ZM13.7341 15.1249H11.6042C11.4294 13.4766 10.6528 12.0348 9.50015 11.0376L11.5991 7.57512L14.6333 14.0102C14.2172 14.2519 13.8953 14.6453 13.7341 15.1249ZM15.5596 16.5C15.2019 16.5 14.9113 16.1918 14.9113 15.8124C14.9113 15.4331 15.2019 15.1249 15.5596 15.1249C15.9174 15.1249 16.2079 15.4331 16.2079 15.8124C16.2079 16.1918 15.9173 16.5 15.5596 16.5ZM16.1604 13.861C16.1024 13.8408 16.0458 13.8176 15.9855 13.8032L12.7187 6.87483H21.2425L16.1604 13.861ZM25.2844 20.625C22.7823 20.625 20.7461 18.4658 20.7461 15.8124C20.7461 13.884 21.8282 12.2285 23.3764 11.4613L24.6633 16.0098C24.7475 16.3079 25.0052 16.4999 25.2844 16.4999C25.3458 16.4999 25.4085 16.4905 25.4706 16.471C25.8137 16.3616 26.0081 15.9782 25.9055 15.615L24.6199 11.0711C24.8386 11.0366 25.0569 10.9999 25.2844 10.9999C27.7865 10.9999 29.8226 13.1591 29.8226 15.8124C29.8226 18.4658 27.7865 20.625 25.2844 20.625Z" fill="#61B46C"/>
</svg>
