<svg width="27" height="26" viewBox="0 0 27 26" fill="none" xmlns="http://www.w3.org/2000/svg">
<path d="M23.7461 16.9702V16.7058H23.6779L23.5988 16.8874L23.5203 16.7058H23.4515V16.9702H23.5001V16.7708L23.5739 16.9429H23.6242L23.698 16.7704V16.9702H23.7461ZM23.3128 16.9702V16.7509H23.4004V16.7062H23.1771V16.7509H23.2647V16.9702H23.3128Z" fill="#F79410"/>
<path d="M15.9996 18.1058H10.1023V7.40851H15.9996V18.1058Z" fill="#FF5F00"/>
<path d="M10.4794 12.755C10.4794 10.585 11.4861 8.65202 13.0536 7.40634C11.9073 6.49544 10.4606 5.95175 8.8883 5.95175C5.16605 5.95175 2.14874 8.99761 2.14874 12.755C2.14874 16.5123 5.16605 19.5582 8.8883 19.5582C10.4606 19.5582 11.9073 19.0145 13.0536 18.1036C11.4861 16.8579 10.4794 14.925 10.4794 12.755Z" fill="#EB001B"/>
<path d="M23.956 12.7531C23.956 16.5105 20.9387 19.5564 17.2164 19.5564C15.6441 19.5564 14.1974 19.0127 13.0507 18.1018C14.6187 16.8561 15.6253 14.9231 15.6253 12.7531C15.6253 10.5832 14.6187 8.65019 13.0507 7.40451C14.1974 6.49361 15.6441 5.94992 17.2164 5.94992C20.9387 5.94992 23.956 8.99578 23.956 12.7531Z" fill="#F79E1B"/>
</svg>
