<svg width="14" height="14" viewBox="0 0 14 14" fill="none" xmlns="http://www.w3.org/2000/svg">
<path d="M8.28263 7.01229L13.734 1.56079C14.0887 1.20619 14.0887 0.632861 13.734 0.278264C13.3794 -0.0763335 12.806 -0.0763335 12.4514 0.278264L6.99994 5.72976L1.5486 0.278264C1.19384 -0.0763335 0.62067 -0.0763335 0.266073 0.278264C-0.0886909 0.632861 -0.0886909 1.20619 0.266073 1.56079L5.71741 7.01229L0.266073 12.4638C-0.0886909 12.8184 -0.0886909 13.3917 0.266073 13.7463C0.44279 13.9232 0.675147 14.012 0.907337 14.012C1.13953 14.012 1.37172 13.9232 1.5486 13.7463L6.99994 8.29481L12.4514 13.7463C12.6283 13.9232 12.8605 14.012 13.0927 14.012C13.3249 14.012 13.5571 13.9232 13.734 13.7463C14.0887 13.3917 14.0887 12.8184 13.734 12.4638L8.28263 7.01229Z" fill="#393939"/>
</svg>
