<svg width="15" height="15" viewBox="0 0 15 15" fill="none" xmlns="http://www.w3.org/2000/svg">
<g clip-path="url(#clip0)">
<path d="M13.125 14.0323H12.1572V2.17742C12.1572 1.9102 11.9406 1.69355 11.6734 1.69355H8.04434V0.483871C8.04434 0.216653 7.82772 0 7.56047 0H4.20361C3.9364 0 3.71974 0.216653 3.71974 0.483871V1.69355H3.3266C3.05938 1.69355 2.84273 1.9102 2.84273 2.17742V14.0323H1.87498C1.60777 14.0323 1.39111 14.2489 1.39111 14.5161C1.39111 14.7833 1.60777 15 1.87498 15H13.125C13.3922 15 13.6089 14.7833 13.6089 14.5161C13.6089 14.2489 13.3922 14.0323 13.125 14.0323ZM4.68748 0.967742H7.0766V1.69355H4.68748V0.967742ZM6.53224 14.0323V11.9758H8.46773V14.0323H6.53224ZM9.43547 14.0323V11.9758H9.64716C9.91441 11.9758 10.131 11.7592 10.131 11.4919C10.131 11.2247 9.91441 11.0081 9.64716 11.0081C7.96408 11.0081 6.91172 11.0081 5.35281 11.0081C5.08559 11.0081 4.86894 11.2247 4.86894 11.4919C4.86894 11.7592 5.08559 11.9758 5.35281 11.9758H5.5645V14.0323H3.81047V2.66129H11.1895V14.0323H9.43547ZM6.80442 4.08266C6.80442 4.34988 6.58777 4.56653 6.32055 4.56653H5.77619C5.50898 4.56653 5.29232 4.34988 5.29232 4.08266C5.29232 3.81544 5.50898 3.59879 5.77619 3.59879H6.32055C6.58777 3.59879 6.80442 3.81544 6.80442 4.08266ZM9.6774 4.08266C9.6774 4.34988 9.46078 4.56653 9.19353 4.56653H8.64918C8.38193 4.56653 8.16531 4.34988 8.16531 4.08266C8.16531 3.81544 8.38193 3.59879 8.64918 3.59879H9.19353C9.46078 3.59879 9.6774 3.81544 9.6774 4.08266ZM6.80442 5.89718C6.80442 6.16439 6.58777 6.38105 6.32055 6.38105H5.77619C5.50898 6.38105 5.29232 6.16439 5.29232 5.89718C5.29232 5.62996 5.50898 5.41331 5.77619 5.41331H6.32055C6.58777 5.41331 6.80442 5.62996 6.80442 5.89718ZM9.6774 5.89718C9.6774 6.16439 9.46078 6.38105 9.19353 6.38105H8.64918C8.38193 6.38105 8.16531 6.16439 8.16531 5.89718C8.16531 5.62996 8.38193 5.41331 8.64918 5.41331H9.19353C9.46078 5.41331 9.6774 5.62996 9.6774 5.89718ZM6.80442 7.71169C6.80442 7.97891 6.58777 8.19556 6.32055 8.19556H5.77619C5.50898 8.19556 5.29232 7.97891 5.29232 7.71169C5.29232 7.44448 5.50898 7.22782 5.77619 7.22782H6.32055C6.58777 7.22782 6.80442 7.44448 6.80442 7.71169ZM9.6774 7.71169C9.6774 7.97891 9.46078 8.19556 9.19353 8.19556H8.64918C8.38193 8.19556 8.16531 7.97891 8.16531 7.71169C8.16531 7.44448 8.38193 7.22782 8.64918 7.22782H9.19353C9.46078 7.22782 9.6774 7.44448 9.6774 7.71169ZM6.80442 9.52621C6.80442 9.79343 6.58777 10.0101 6.32055 10.0101H5.77619C5.50898 10.0101 5.29232 9.79343 5.29232 9.52621C5.29232 9.25899 5.50898 9.04234 5.77619 9.04234H6.32055C6.58777 9.04234 6.80442 9.25899 6.80442 9.52621ZM9.6774 9.52621C9.6774 9.79343 9.46078 10.0101 9.19353 10.0101H8.64918C8.38193 10.0101 8.16531 9.79343 8.16531 9.52621C8.16531 9.25899 8.38193 9.04234 8.64918 9.04234H9.19353C9.46078 9.04234 9.6774 9.25899 9.6774 9.52621Z" fill="#696969"/>
</g>
<defs>
<clipPath id="clip0">
<rect width="15" height="15" fill="white"/>
</clipPath>
</defs>
</svg>
