<svg width="13" height="13" viewBox="0 0 13 13" fill="none" xmlns="http://www.w3.org/2000/svg">
<path d="M11.2475 5.11248H7.15752V1.02252C7.15752 0.458095 6.70045 0 6.135 0C5.56955 0 5.11248 0.458095 5.11248 1.02252V5.11248H1.02252C0.457065 5.11248 0 5.57058 0 6.135C0 6.69942 0.457065 7.15752 1.02252 7.15752H5.11248V11.2475C5.11248 11.8119 5.56955 12.27 6.135 12.27C6.70045 12.27 7.15752 11.8119 7.15752 11.2475V7.15752H11.2475C11.8129 7.15752 12.27 6.69942 12.27 6.135C12.27 5.57058 11.8129 5.11248 11.2475 5.11248Z" fill="#63D673"/>
</svg>
