<svg width="138" height="137" viewBox="0 0 138 137" fill="none" xmlns="http://www.w3.org/2000/svg">
<g filter="url(#filter0_d)">
<ellipse cx="68.9745" cy="68.5" rx="46.9745" ry="46.5" fill="white"/>
</g>
<path d="M46.9146 91H93.0847C93.5965 91.0019 94.0876 90.8149 94.4477 90.4811C94.8079 90.1472 95.0068 89.6944 94.9998 89.2245V85.6567C94.6805 79.7057 91.1523 78.7066 91.0099 78.6695L78.6566 75.3235V70.3768C79.9195 69.3059 80.7002 67.8397 80.8448 66.2667H83.4659C85.0596 66.2667 86.3516 65.0802 86.3516 63.6167V58.3167C86.3465 57.1977 85.5766 56.2022 84.4278 55.8292V50.3667C84.4278 43.3168 78.2256 38 69.9997 38C61.7737 38 55.5715 43.3168 55.5715 50.3667V55.8292C54.4227 56.2022 53.6528 57.1977 53.6477 58.3167V63.6167C53.6528 64.7357 54.4227 65.7311 55.5715 66.1041V67.15C55.5715 69.1014 57.2941 70.6833 59.419 70.6833H61.3428V75.3235L48.9971 78.6678C48.847 78.7066 45.3208 79.7057 45.0004 85.7V89.2095C44.9893 89.6817 45.1862 90.1381 45.5466 90.4752C45.9069 90.8123 46.4002 91.0015 46.9146 91ZM57.4952 52.2217C58.7162 46.8336 64.0128 43.0546 69.9997 43.3C75.9804 43.0721 81.2662 46.8434 82.5041 52.2217V55.6667H81.3152C80.3533 51.9434 78.495 50.8004 78.2824 50.6811C75.6055 49.206 67.2275 49.4498 64.0889 49.6344C63.1778 49.6658 62.3115 50.0052 61.6563 50.5875C60.2461 52.0335 59.2498 53.779 58.7572 55.6667H57.4952V52.2217ZM63.2665 72.2557C64.8401 74.1283 65.5808 75.9833 68.4818 75.9833C72.842 75.9833 73.625 76.3508 75.8931 73.3218C76.148 72.9818 76.425 72.6205 76.7338 72.2512V75.8438C75.1871 79.6023 64.7805 79.5705 63.2675 75.8438L63.2665 72.2557ZM76.9444 69.4396C73.9434 71.9138 73.8558 74.2167 71.5165 74.2167C67.3622 74.2167 67.3901 74.5877 65.6914 72.321C65.3249 71.8317 64.8921 71.2707 64.3554 70.6833H66.4195C66.7604 71.2281 67.3917 71.5648 68.0759 71.5667H71.9234C72.9859 71.5667 73.8472 70.7757 73.8472 69.8V68.0333C73.8472 67.0576 72.9859 66.2667 71.9234 66.2667H68.0759C67.0134 66.2667 66.1521 67.0576 66.1521 68.0333V68.9167H62.497C60.958 67.3805 60.9965 66.0229 61.0638 64.3498C61.1854 63.0583 61.0923 61.7573 60.7878 60.4914C60.4155 58.708 60.1818 57.4881 60.6435 56.0191C61.0564 54.4692 61.8719 53.0341 63.0203 51.8365C63.3441 51.5615 63.7662 51.4044 64.2072 51.3949C67.3353 51.2102 74.4262 50.9921 77.2984 52.1987C78.4411 53.0131 79.8416 55.8371 79.6117 58.0843C79.3905 60.2158 78.9028 61.2643 78.9028 62.9427C78.9009 65.6881 79.4972 67.3267 76.9435 69.4352L76.9444 69.4396ZM68.0759 69.8V68.0333H71.9234V69.8H68.0759ZM84.4278 63.6167C84.4278 64.1045 83.9972 64.5 83.4659 64.5H80.8689C80.7217 60.7131 81.1738 61.6733 81.5249 58.2557C81.547 57.9821 81.5528 57.7075 81.5422 57.4333H83.4659C83.9972 57.4333 84.4278 57.8288 84.4278 58.3167V63.6167ZM81.8538 46.8192C79.7916 44.1833 76.1826 41.5333 69.9997 41.5333C63.8167 41.5333 60.2077 44.1833 58.1455 46.8192C61.7275 37.3861 78.2718 37.3993 81.8538 46.8192ZM55.5715 58.3167C55.5715 57.8288 56.0021 57.4333 56.5334 57.4333H58.4696C58.4833 58.5736 58.6261 59.7095 58.8957 60.8227C59.1837 62.0295 59.2629 63.2705 59.1304 64.5H56.5334C56.0021 64.5 55.5715 64.1045 55.5715 63.6167V58.3167ZM57.4952 67.15V66.2667H59.1545C59.2348 67.2041 59.552 68.1114 60.0808 68.9167H59.419C58.3565 68.9167 57.4952 68.1257 57.4952 67.15ZM49.5357 80.3638L61.7746 77.0477C62.5364 78.28 64.6237 80.4 69.9997 80.4C75.3756 80.4 77.4629 78.28 78.2247 77.0433L90.4511 80.3558C90.5473 80.3859 92.8346 81.1508 93.0799 85.6956V89.2333H46.9242V85.7433C47.1704 81.1508 49.452 80.3903 49.5357 80.3638Z" fill="#5A9F63"/>
<defs>
<filter id="filter0_d" x="0" y="0" width="137.949" height="137" filterUnits="userSpaceOnUse" color-interpolation-filters="sRGB">
<feFlood flood-opacity="0" result="BackgroundImageFix"/>
<feColorMatrix in="SourceAlpha" type="matrix" values="0 0 0 0 0 0 0 0 0 0 0 0 0 0 0 0 0 0 127 0"/>
<feOffset/>
<feGaussianBlur stdDeviation="11"/>
<feColorMatrix type="matrix" values="0 0 0 0 0 0 0 0 0 0 0 0 0 0 0 0 0 0 0.2 0"/>
<feBlend mode="normal" in2="BackgroundImageFix" result="effect1_dropShadow"/>
<feBlend mode="normal" in="SourceGraphic" in2="effect1_dropShadow" result="shape"/>
</filter>
</defs>
</svg>
