<svg width="26" height="17" viewBox="0 0 26 17" fill="none" xmlns="http://www.w3.org/2000/svg">
<path fill-rule="evenodd" clip-rule="evenodd" d="M13.6555 2.52863C13.6555 2.59469 13.6471 2.65877 13.6312 2.71986C14.8233 2.78532 15.9881 3.00642 17.1021 3.34153C17.113 3.31631 17.1255 3.29144 17.1394 3.26701L18.1489 1.49696C18.3565 1.13294 18.8197 1.00626 19.1837 1.21381C19.5477 1.42141 19.6743 1.88465 19.4668 2.24857L18.5527 3.85125C21.5935 5.07439 24.1334 7.0774 25.62 8.88861C25.8495 9.16833 25.8495 9.57119 25.62 9.85096C23.3775 12.583 18.4356 16.04 12.896 16.04C7.54658 16.04 2.5719 12.776 0.172124 9.85091C-0.0573747 9.57119 -0.0573747 9.16833 0.172124 8.88861C1.6485 7.08908 4.18924 5.07889 7.2395 3.8515L6.3253 2.2486C6.11775 1.88468 6.24448 1.42139 6.6084 1.21384C6.97227 1.00629 7.43562 1.13302 7.64317 1.49694L8.6527 3.26698C8.66666 3.29145 8.6791 3.31637 8.69006 3.34163C9.80392 3.00645 10.9693 2.78512 12.1626 2.71976C12.1468 2.6587 12.1383 2.59465 12.1383 2.52863V0.75859C12.1383 0.339646 12.478 0 12.8969 0C13.3159 0 13.6555 0.339646 13.6555 0.75859V2.52863ZM18.049 9.36976C18.049 12.2111 15.7374 14.5228 12.896 14.5228C10.0545 14.5228 7.74295 12.211 7.74295 9.36976C7.74295 6.52839 10.0546 4.21671 12.896 4.21671C15.7377 4.21676 18.049 6.52869 18.049 9.36976ZM1.78332 9.36996C2.63714 8.48256 4.69585 6.56743 7.58582 5.33826C5.77218 7.72134 5.77148 11.0162 7.58496 13.4001C5.38763 12.4689 3.34642 10.9975 1.78332 9.36996ZM18.2063 13.4013C20.0199 11.0181 20.0206 7.72332 18.2071 5.33937C20.4044 6.27067 22.4456 7.74208 24.0088 9.36951C23.155 10.257 21.0962 12.172 18.2063 13.4013ZM12.8952 11.9491C11.473 11.9491 10.316 10.7921 10.316 9.36988C10.316 7.94768 11.473 6.79068 12.8952 6.79068C14.3174 6.79068 15.4744 7.94768 15.4744 9.36988C15.4744 10.7921 14.3174 11.9491 12.8952 11.9491ZM12.8952 10.4319C13.4808 10.4319 13.9572 9.95551 13.9572 9.36988C13.9572 8.78425 13.4808 8.30786 12.8952 8.30786C12.3096 8.30786 11.8332 8.78425 11.8332 9.36988C11.8332 9.95551 12.3096 10.4319 12.8952 10.4319Z" fill="#A0A0A0"/>
</svg>
