<svg width="27" height="27" viewBox="0 0 27 27" fill="none" xmlns="http://www.w3.org/2000/svg">
<path fill-rule="evenodd" clip-rule="evenodd" d="M10.157 9.88083L6.70337 17.7711H4.45788L2.76156 11.4823C2.66393 11.0965 2.5663 10.9562 2.26121 10.7926C1.73645 10.5237 0.894391 10.2666 0.149963 10.1146L0.198778 9.88083H3.82329C4.28703 9.88083 4.70196 10.1731 4.79958 10.6874L5.70266 15.2462L7.92374 9.88083H10.157ZM18.9812 15.1994C18.9885 13.9515 17.9073 13.41 17.0431 12.9772C16.4664 12.6884 15.9864 12.448 15.9913 12.0783C16.0035 11.7978 16.2842 11.4939 16.8944 11.412C17.1994 11.377 18.0415 11.3419 18.9934 11.7627L19.3717 10.0911C18.8592 9.9158 18.2002 9.74046 17.3825 9.74046C15.2835 9.74046 13.7946 10.8159 13.7824 12.3472C13.7702 13.481 14.8441 14.1123 15.6496 14.498C16.4794 14.8838 16.7601 15.1292 16.7601 15.4799C16.7479 16.0059 16.1011 16.2397 15.4909 16.2514C14.4357 16.2629 13.8164 15.9809 13.332 15.7604L13.3065 15.7488L12.9159 17.4788C13.4163 17.7009 14.3316 17.8879 15.2835 17.8996C17.5167 17.8996 18.969 16.8359 18.9812 15.1994ZM24.5447 17.7711H26.5095L24.7887 9.88083H22.9704C22.5555 9.88083 22.2138 10.1029 22.0673 10.4536L18.8699 17.7594H21.1032L21.5426 16.5788H24.2762L24.5447 17.7711ZM22.1649 14.9772L23.2876 12.0198L23.9344 14.9772H22.1649ZM11.4377 17.7711L13.195 9.88083H11.0716L9.31425 17.7711H11.4377Z" fill="#1A1F71"/>
</svg>
