<svg width="18" height="18" viewBox="0 0 18 18" fill="none" xmlns="http://www.w3.org/2000/svg">
<path d="M9 0C8.70877 0 8.47266 0.236109 8.47266 0.527344C8.47266 0.818578 8.70877 1.05469 9 1.05469C13.3811 1.05469 16.9453 4.61893 16.9453 9C16.9453 13.3811 13.3811 16.9453 9 16.9453C4.61893 16.9453 1.05469 13.3811 1.05469 9C1.05469 6.87807 1.9466 4.82934 3.48107 3.33858V4.25391C3.48107 4.54514 3.71718 4.78125 4.00841 4.78125C4.29964 4.78125 4.53516 4.54514 4.53516 4.25391V2.14453C4.53516 1.8533 4.29964 1.61719 4.00841 1.61719H1.88086C1.58962 1.61719 1.35352 1.8533 1.35352 2.14453C1.35352 2.43577 1.58962 2.66836 1.88086 2.66836H2.65472C0.9495 4.3707 0 6.64731 0 9C0 13.9479 4.05032 18 9 18C13.9479 18 18 13.9497 18 9C18 4.05211 13.9497 0 9 0Z" fill="white"/>
<path d="M9 3.19922C5.80166 3.19922 3.19922 5.8025 3.19922 9C3.19922 12.1986 5.80271 14.8008 9 14.8008C12.1983 14.8008 14.8008 12.1975 14.8008 9C14.8008 5.80145 12.1973 3.19922 9 3.19922ZM12.7065 11.9607L12.356 11.6102C12.1501 11.4043 11.8162 11.4043 11.6102 11.6102C11.4043 11.8162 11.4043 12.15 11.6102 12.356L11.9608 12.7065C11.2778 13.2531 10.4414 13.6151 9.52734 13.7166V13.2188C9.52734 12.9275 9.29123 12.6914 9 12.6914C8.70877 12.6914 8.47266 12.9275 8.47266 13.2188V13.7166C7.55859 13.6151 6.72216 13.2531 6.03928 12.7065L6.38979 12.356C6.59573 12.15 6.59573 11.8162 6.38979 11.6102C6.18388 11.4043 5.84996 11.4043 5.64402 11.6102L5.29351 11.9607C4.74694 11.2778 4.38486 10.4414 4.28337 9.52734H4.78125C5.07248 9.52734 5.30859 9.29123 5.30859 9C5.30859 8.70877 5.07248 8.47266 4.78125 8.47266H4.28337C4.3849 7.55859 4.74694 6.72216 5.29351 6.03928L5.64402 6.38979C5.84993 6.59573 6.18388 6.59573 6.38979 6.38979C6.59573 6.18384 6.59573 5.84996 6.38979 5.64402L6.03928 5.29351C6.72216 4.74694 7.55859 4.3849 8.47266 4.28337V4.78125C8.47266 5.07248 8.70877 5.30859 9 5.30859C9.29123 5.30859 9.52734 5.07248 9.52734 4.78125V4.28337C10.4414 4.3849 11.2778 4.74694 11.9607 5.29351L11.6102 5.64402C11.4043 5.84996 11.4043 6.18384 11.6102 6.38979C11.8161 6.59573 12.1501 6.59573 12.356 6.38979L12.7065 6.03928C13.2531 6.72216 13.6151 7.55859 13.7166 8.47266H13.2188C12.9275 8.47266 12.6914 8.70877 12.6914 9C12.6914 9.29123 12.9275 9.52383 13.2188 9.52383H13.7166C13.6151 10.4379 13.2531 11.2778 12.7065 11.9607Z" fill="white"/>
<path d="M10.4276 9.68179L9.52734 8.78158V6.89063C9.52734 6.59939 9.29123 6.36328 9 6.36328C8.70877 6.36328 8.47266 6.59939 8.47266 6.89063V9C8.47266 9.13985 8.52824 9.27398 8.62713 9.37287L9.68182 10.4276C9.88773 10.6335 10.2217 10.6335 10.4276 10.4276C10.6335 10.2216 10.6335 9.88773 10.4276 9.68179Z" fill="white"/>
</svg>
