<svg width="15" height="15" viewBox="0 0 15 15" fill="none" xmlns="http://www.w3.org/2000/svg">
<path d="M12.9126 1.03007C12.1566 0.275376 10.9323 0.275376 10.1763 1.03007L9.49131 1.71879L2.1999 9.00633L2.18441 9.02194C2.18066 9.0257 2.18066 9.02969 2.17666 9.02969C2.16891 9.04131 2.15729 9.05282 2.14966 9.06444C2.14966 9.06831 2.14567 9.06831 2.14567 9.07219C2.13792 9.08381 2.13417 9.09155 2.1263 9.10318C2.12255 9.10705 2.12255 9.1108 2.11867 9.1148C2.1148 9.12642 2.11092 9.13417 2.10693 9.14579C2.10693 9.14954 2.10318 9.14954 2.10318 9.15354L0.485431 14.0183C0.437975 14.1568 0.474051 14.3102 0.578285 14.4129C0.651528 14.4852 0.750314 14.5256 0.853095 14.5253C0.895103 14.5246 0.936748 14.518 0.976941 14.5059L5.83792 12.8843C5.84168 12.8843 5.84168 12.8843 5.84567 12.8805C5.8579 12.8769 5.86964 12.8717 5.88041 12.8649C5.88344 12.8646 5.88611 12.8632 5.88828 12.8612C5.89979 12.8534 5.91528 12.8455 5.9269 12.8378C5.9384 12.8302 5.95015 12.8186 5.96177 12.8108C5.96564 12.8068 5.9694 12.8068 5.9694 12.8031C5.97339 12.7992 5.98114 12.7954 5.98501 12.7876L13.9614 4.81119C14.7161 4.05516 14.7161 2.83086 13.9614 2.07495L12.9126 1.03007ZM5.71408 11.9748L3.02046 9.28126L9.76225 2.53947L12.4559 5.23296L5.71408 11.9748ZM2.64105 9.99722L4.99425 12.3503L1.4607 13.5268L2.64105 9.99722ZM13.4158 4.26931L13.0055 4.68347L10.3117 1.98973L10.726 1.5757C11.1792 1.12293 11.9136 1.12293 12.3669 1.5757L13.4195 2.62833C13.8693 3.08352 13.8676 3.8163 13.4158 4.26931Z" fill="#5A9F63"/>
</svg>
