<svg width="94" height="23" viewBox="0 0 94 23" fill="none" xmlns="http://www.w3.org/2000/svg">
<path d="M44.8571 7.09917C44.8543 6.99443 44.8923 6.89265 44.9632 6.81503C44.9979 6.77695 45.0406 6.74685 45.0882 6.72683C45.1358 6.7068 45.1873 6.69734 45.239 6.69909H46.9152C46.9682 6.69853 47.0209 6.7085 47.0701 6.7284C47.1192 6.74831 47.1639 6.77776 47.2014 6.81503C47.239 6.85229 47.2686 6.89662 47.2887 6.94541C47.3087 6.99421 47.3187 7.04648 47.3182 7.09917V16.8267C47.3188 16.8794 47.3088 16.9317 47.2888 16.9805C47.2687 17.0293 47.2391 17.0737 47.2015 17.111C47.164 17.1482 47.1193 17.1777 47.0701 17.1976C47.021 17.2175 46.9683 17.2275 46.9152 17.2269H45.239C45.1873 17.2287 45.1358 17.2192 45.0882 17.1992C45.0405 17.1792 44.9979 17.1491 44.9632 17.111C44.8921 17.0334 44.8541 16.9315 44.8571 16.8267V7.09917Z" fill="#005ABC"/>
<path d="M52.1765 17.2268H50.373V1.43549H52.1765V8.17316C53.0251 7.33089 54.2982 6.65707 55.5496 6.65707C58.5405 6.65707 60.5564 8.93108 60.5564 11.9631C60.5564 14.9952 58.3707 17.2689 55.5077 17.2689C54.256 17.2689 53.0256 16.5951 52.177 15.7529L52.1765 17.2268ZM55.5067 8.55218C53.6186 8.55218 52.2821 10.1101 52.2821 11.9631C52.2821 13.8161 53.5762 15.374 55.4646 15.374C57.3531 15.374 58.6472 13.8791 58.6472 11.9631C58.6471 10.1101 57.3317 8.55218 55.5067 8.55218Z" fill="#63D673"/>
<path d="M68.0878 8.6785C67.7311 8.5356 67.3474 8.471 66.9631 8.48912C65.3933 8.48912 63.9722 9.77346 63.9506 11.3735L63.9082 17.2269H62.1047V6.69929H63.9082V8.27855C64.7991 7.33099 66.0299 6.65717 67.3874 6.65717C67.8579 6.63999 68.3251 6.74146 68.7453 6.9521L68.0878 8.6785Z" fill="#63D673"/>
<path d="M70.0823 6.69931H71.8856V17.227H70.0823V6.69931Z" fill="#63D673"/>
<path d="M75.2375 17.2269H73.4341V6.69928H75.2375V8.27854C76.1284 7.33099 77.5498 6.65717 78.9076 6.65717C80.7535 6.65717 82.1112 8.08903 82.1112 10.0049V17.2269H80.3078V10.8683C80.3078 9.37337 79.629 8.48911 78.2924 8.48911C76.7226 8.48911 75.3016 9.77345 75.28 11.3735L75.2375 17.2269Z" fill="#63D673"/>
<path d="M85.6964 19.3745C86.2693 20.1324 87.2876 20.5956 88.306 20.5956C88.7487 20.5924 89.186 20.4992 89.591 20.3218C89.996 20.1443 90.36 19.8864 90.6607 19.5639C91.2091 18.9985 91.5136 18.243 91.5094 17.4582V15.753C90.6607 16.5952 89.3666 17.269 88.1149 17.269C85.1872 17.269 83.1294 14.974 83.1294 11.9422C83.1294 8.91037 85.2084 6.65717 88.0725 6.65717C89.3241 6.65717 90.6607 7.33098 91.5094 8.17326V6.69928H93.3128L93.2916 17.0374C93.2916 18.7009 92.8674 19.9642 91.7853 21.038C91.3331 21.4992 90.7921 21.8654 90.1944 22.115C89.5968 22.3646 88.9546 22.4923 88.3062 22.4908C87.5594 22.4925 86.8208 22.3355 86.1402 22.0305C85.4596 21.7254 84.8526 21.2793 84.3601 20.7221L85.6964 19.3745ZM88.1573 15.3741C90.0455 15.3741 91.4038 13.8792 91.4038 11.9632C91.4038 10.1102 90.0248 8.55228 88.1366 8.55228C86.2484 8.55228 85.0392 10.026 85.0392 11.9422C85.0392 13.8583 86.3332 15.3741 88.1576 15.3741H88.1573Z" fill="#63D673"/>
<path d="M28.0188 22.9056H6.64536C6.27888 22.9056 5.92742 22.7612 5.66828 22.504C5.40915 22.2468 5.26356 21.898 5.26356 21.5343C5.26356 21.1706 5.40915 20.8218 5.66828 20.5646C5.92742 20.3074 6.27888 20.1629 6.64536 20.1629H20.6627C19.7906 19.4222 19.0357 18.5555 18.4235 17.5918H11.2771C11.0826 17.5919 10.89 17.554 10.7102 17.4802C10.5305 17.4064 10.3672 17.2982 10.2296 17.1617C10.0921 17.0252 9.98292 16.8632 9.90844 16.6849C9.83397 16.5066 9.79562 16.3155 9.79559 16.1224C9.79559 15.8016 10.0007 15.4929 10.3733 15.2531C10.7049 15.0404 11.0889 14.9219 11.4836 14.9106L16.4416 14.872L19.0271 14.8515H19.0436L19.2799 14.8495C19.3445 14.8496 19.4064 14.8751 19.4521 14.9204C19.4977 14.9657 19.5234 15.0272 19.5235 15.0913V17.3619C19.5235 17.3741 19.5225 17.3864 19.5204 17.3985C19.515 17.4328 19.5019 17.4654 19.4821 17.494C19.4822 17.4942 19.4822 17.4944 19.4822 17.4945C19.4822 17.4947 19.4822 17.4949 19.4821 17.4951C19.4821 17.4951 19.4812 17.4963 19.4799 17.497L29.7317 19.2952V19.2901L36.2607 15.8749V5.98179L26.2657 4.17902L20.2173 7.37332L19.8126 7.58693C19.807 7.58263 19.8001 7.58027 19.7931 7.58021C19.7819 7.581 19.7713 7.58546 19.763 7.59289L19.7543 7.59543C19.5976 7.64173 19.5143 7.66634 19.5133 7.66646L19.512 7.66748L19.5105 7.66862L19.5062 8.24832C19.3489 8.31766 19.1786 8.35332 19.0065 8.35297H8.412C8.22076 8.35377 8.03153 8.31416 7.85691 8.23677C7.56665 8.11027 7.32907 7.88852 7.18406 7.60874C7.03905 7.32896 6.99543 7.0082 7.06052 6.70028C7.12562 6.39236 7.29546 6.11604 7.54155 5.9177C7.78764 5.71936 8.09499 5.61107 8.412 5.61101H18.3146C18.9456 4.57995 19.7372 3.65458 20.6599 2.86931H18.0832C17.8099 2.86929 17.5428 2.78884 17.3155 2.63816C17.0883 2.48747 16.9112 2.2733 16.8067 2.02273C16.7021 1.77217 16.6747 1.49645 16.728 1.23046C16.7814 0.964456 16.9129 0.720116 17.1062 0.528328C17.2341 0.400513 17.3864 0.299159 17.5541 0.230137C17.7218 0.161114 17.9016 0.125793 18.0832 0.126219H28.0287C28.063 0.126219 28.0969 0.126219 28.131 0.126219C28.1651 0.126219 28.2001 0.126219 28.2345 0.126219H28.6403C28.7289 0.126367 28.8173 0.134862 28.9043 0.151589C30.3601 0.245991 31.7841 0.617427 33.0986 1.24566C35.4462 2.36123 37.3419 4.23574 38.4745 6.5615C39.6072 8.88726 39.9095 11.5261 39.3319 14.0448C38.7542 16.5636 37.3309 18.8126 35.2956 20.4227C33.2602 22.0329 30.7338 22.9085 28.131 22.9058C28.1099 22.9058 28.09 22.9058 28.0694 22.9058C28.0543 22.9054 28.0378 22.9056 28.0188 22.9056ZM6.76614 17.6685H4.29448C3.92819 17.6681 3.57701 17.5235 3.31799 17.2664C3.05897 17.0094 2.91325 16.6609 2.91281 16.2974C2.91312 15.9338 3.05878 15.5852 3.31783 15.3281C3.57688 15.071 3.92813 14.9264 4.29448 14.9261H6.76614C7.03942 14.926 7.30659 15.0063 7.53384 15.1569C7.76109 15.3076 7.93821 15.5217 8.04277 15.7723C8.14733 16.0229 8.17464 16.2986 8.12124 16.5646C8.06783 16.8305 7.93612 17.0748 7.74277 17.2665C7.71797 17.2911 7.69739 17.31 7.67797 17.3257C7.42645 17.5467 7.10208 17.6686 6.76614 17.6685ZM19.2911 12.5225H13.8335C13.6391 12.5226 13.4465 12.4847 13.2669 12.4109C13.0872 12.3371 12.924 12.2289 12.7865 12.0924C12.649 11.956 12.54 11.794 12.4657 11.6157C12.3913 11.4374 12.3531 11.2463 12.3533 11.0533C12.3533 10.7335 12.5584 10.4248 12.931 10.184C13.2623 9.97137 13.6459 9.85291 14.0403 9.84153L15.3417 9.82415L18.3188 9.78344H18.324L18.5604 9.78039C18.5821 9.78032 18.6036 9.78339 18.6243 9.78953L19.0386 9.78344H19.0438L19.2801 9.78039C19.3447 9.78046 19.4067 9.80595 19.4523 9.85128C19.498 9.89661 19.5237 9.95806 19.5237 10.0222V12.2927C19.5235 12.3538 19.4989 12.4123 19.4553 12.4553C19.4117 12.4984 19.3526 12.5225 19.2911 12.5223V12.5225ZM10.0424 12.5225H1.3816C1.01518 12.5225 0.663763 12.378 0.404662 12.1209C0.145561 11.8637 0 11.515 0 11.1513C0 10.7876 0.145561 10.4389 0.404662 10.1817C0.663763 9.9246 1.01518 9.78014 1.3816 9.78014H10.0424C10.4088 9.78014 10.7602 9.9246 11.0193 10.1817C11.2784 10.4389 11.424 10.7876 11.424 11.1513C11.424 11.515 11.2784 11.8637 11.0193 12.1209C10.7602 12.378 10.4088 12.5225 10.0424 12.5225ZM20.0838 7.69488C20.058 7.6897 20.034 7.67809 20.0139 7.66114L20.0114 7.65949L20.0075 7.65695L20.1114 7.67547C20.1093 7.6811 20.1056 7.68596 20.1006 7.6894C20.0956 7.69285 20.0898 7.69471 20.0837 7.69475L20.0838 7.69488ZM19.8777 7.65822C19.8649 7.65822 19.855 7.64439 19.8444 7.62778L19.9059 7.63881C19.8954 7.65175 19.8861 7.65809 19.8775 7.65809L19.8777 7.65822ZM20.007 7.65682L19.906 7.63881C19.9094 7.63423 19.9138 7.63051 19.919 7.62797C19.9241 7.62543 19.9297 7.62415 19.9354 7.62422C19.9618 7.62854 19.9866 7.63975 20.0071 7.6567L20.007 7.65682ZM19.8446 7.62778L19.7634 7.61332L19.813 7.58718C19.8237 7.59624 19.8327 7.60716 19.8394 7.6194L19.8425 7.62422L19.8447 7.62765L19.8446 7.62778ZM13.2542 2.74272H4.59305C4.31975 2.74272 4.05259 2.66228 3.82535 2.51159C3.59812 2.36089 3.42101 2.14671 3.31643 1.89612C3.21185 1.64552 3.1845 1.36978 3.23783 1.10376C3.29116 0.837739 3.42278 0.593387 3.61604 0.401607C3.74405 0.273883 3.89631 0.172623 4.06402 0.103688C4.23172 0.0347535 4.41154 -0.00048739 4.59305 5.09123e-06H13.2542C13.5275 6.66637e-06 13.7947 0.0804317 14.0219 0.231111C14.2491 0.381789 14.4262 0.595955 14.5308 0.846526C14.6354 1.0971 14.6628 1.37282 14.6095 1.63883C14.5562 1.90484 14.4246 2.1492 14.2314 2.34099C14.1033 2.46875 13.9511 2.57004 13.7833 2.63899C13.6156 2.70795 13.4358 2.74321 13.2542 2.74272Z" fill="url(#paint0_linear)"/>
<path d="M25.01 6.79013L32.1395 8.07129L34.3198 6.88412L27.384 5.6098L25.01 6.79013Z" fill="#63D673"/>
<path d="M31.9873 8.03839V14.9263L34.3646 13.8184L34.3203 6.8847L31.9873 8.03839Z" fill="#63D673"/>
<path d="M47.4429 1.80538C47.09 1.45762 46.6128 1.26245 46.1155 1.26245C45.6181 1.26245 45.141 1.45762 44.7881 1.80538C44.4226 2.16944 44.2066 2.57915 44.2411 3.12333C44.2987 4.06582 45.596 5.7529 46.1162 5.7529C46.6364 5.7529 47.8838 4.24975 47.9912 3.12333C48.0398 2.61975 47.8084 2.16944 47.4429 1.80538ZM46.0982 4.00747C45.9313 4.00747 45.7682 3.95836 45.6295 3.86637C45.4908 3.77438 45.3826 3.64363 45.3188 3.49065C45.2549 3.33767 45.2382 3.16934 45.2708 3.00694C45.3033 2.84454 45.3837 2.69536 45.5017 2.57828C45.6196 2.46119 45.7699 2.38146 45.9336 2.34915C46.0972 2.31685 46.2668 2.33343 46.421 2.3968C46.5751 2.46016 46.7069 2.56747 46.7996 2.70515C46.8923 2.84282 46.9417 3.00468 46.9417 3.17027C46.9419 3.28025 46.9202 3.38919 46.8778 3.49083C46.8355 3.59247 46.7734 3.68482 46.695 3.76259C46.6166 3.84036 46.5236 3.90203 46.4212 3.94405C46.3187 3.98607 46.209 4.00762 46.0982 4.00747Z" fill="#005ABC"/>
<path d="M29.7312 9.40173L36.2599 5.9819M29.774 19.3409V9.3335L19.5439 7.67369" stroke="#63D673"/>
<defs>
<linearGradient id="paint0_linear" x1="19.809" y1="11.4529" x2="4.00142" y2="11.4529" gradientUnits="userSpaceOnUse">
<stop stop-color="#63D673"/>
<stop offset="1" stop-color="#005ABC"/>
</linearGradient>
</defs>
</svg>
