<svg width="138" height="137" viewBox="0 0 138 137" fill="none" xmlns="http://www.w3.org/2000/svg">
<g filter="url(#filter0_d)">
<ellipse cx="68.9745" cy="68.5" rx="46.9745" ry="46.5" fill="white"/>
</g>
<path d="M89.0642 50.1144C88.5016 48.9331 87.8202 47.7956 87.0368 46.7336C86.2602 45.6814 85.3772 44.6927 84.4115 43.7958C83.4447 42.8978 82.3863 42.0841 81.2655 41.3764C80.1335 40.6611 78.9278 40.0475 77.6803 39.552C75.0867 38.5228 72.3369 38 69.5091 38C66.6054 38 63.7888 38.5502 61.1365 39.633C59.8629 40.1536 58.6334 40.7989 57.4833 41.5492C56.3445 42.293 55.2735 43.1461 54.2999 44.0867C53.3263 45.0273 52.4434 46.062 51.6735 47.1623C50.8969 48.2736 50.2302 49.4603 49.6902 50.6919C48.5694 53.2545 48 55.9758 48 58.7812C48.0045 60.342 48.3158 62.1052 48.9248 64.0225C49.4705 65.7419 50.2471 67.5892 51.2999 69.6706C52.6323 72.2934 54.3734 75.1842 56.4756 78.2609C58.1466 80.7066 60.0598 83.2922 62.1632 85.9467C64.1224 88.4178 65.8534 90.4536 67.0398 91.8125H60.2262C59.601 91.8125 59.0942 92.3022 59.0942 92.9063C59.0942 93.5103 59.601 94 60.2262 94H78.792C79.4172 94 79.924 93.5103 79.924 92.9063C79.924 92.3022 79.4172 91.8125 78.792 91.8125H71.9766C73.2808 90.3183 75.2476 88.003 77.4245 85.2238C79.6829 82.3384 81.7025 79.5537 83.4267 76.9462C85.6003 73.6595 87.3356 70.608 88.5855 67.8758C88.8368 67.3245 88.5775 66.677 88.007 66.4342C87.8609 66.3719 87.7082 66.3402 87.5496 66.3402C87.1013 66.3402 86.6949 66.5961 86.5138 66.9931C83.7957 72.9508 79.0886 79.4772 75.62 83.9036C73.6467 86.4225 71.8582 88.54 70.7069 89.8722C70.297 90.3469 69.8941 90.8063 69.5091 91.2394C67.8133 89.3308 63.4356 84.27 59.3025 78.4053C56.6196 74.6002 54.4958 71.1056 52.989 68.018C51.1992 64.3648 50.2563 61.17 50.2642 58.7812C50.2642 53.8156 52.2667 49.1464 55.9007 45.6333C59.5368 42.1223 64.3695 40.1875 69.5091 40.1875H69.5125C79.8561 40.1875 88.3013 48.0034 88.7371 57.9817C88.762 58.5702 89.259 59.0295 89.867 59.0295C89.8828 59.0295 89.8998 59.0295 89.9156 59.0284C90.5395 59.0033 91.025 58.4925 90.999 57.8898C90.88 55.1806 90.2291 52.5644 89.0642 50.1144Z" fill="#5A9F63"/>
<path d="M76.2751 52.9659C75.7643 52.6175 75.058 52.7353 74.6973 53.2287L68.7185 61.4121L64.0072 56.405C63.5866 55.958 62.8707 55.925 62.4081 56.3314C61.9454 56.7377 61.9113 57.4295 62.3319 57.8764L67.9922 63.892C68.2074 64.1207 68.5469 64.249 68.8646 64.249C69.2073 64.2286 69.5567 64.0581 69.7547 63.7871L76.547 54.4903C76.9076 53.9968 76.7859 53.3143 76.2751 52.9659Z" fill="#5A9F63"/>
<path d="M89.2764 63.8939C89.9016 63.8939 90.4084 63.4051 90.4084 62.8022C90.4084 62.1992 89.9016 61.7105 89.2764 61.7105C88.6512 61.7105 88.1444 62.1992 88.1444 62.8022C88.1444 63.4051 88.6512 63.8939 89.2764 63.8939Z" fill="#5A9F63"/>
<path d="M69.5091 43.4681C60.7561 43.4681 53.6604 50.3236 53.6604 58.7803C53.6604 67.2369 60.7562 74.0924 69.5091 74.0924C78.2621 74.0924 85.3579 67.2369 85.3579 58.7803C85.3579 50.3236 78.2621 43.4681 69.5091 43.4681ZM69.5091 71.9049C62.0066 71.9049 55.9245 66.0288 55.9245 58.7803C55.9245 51.5317 62.0065 45.6556 69.5091 45.6556C77.0118 45.6556 83.0938 51.5317 83.0938 58.7803C83.0938 66.0288 77.0117 71.9049 69.5091 71.9049Z" fill="#5A9F63"/>
<defs>
<filter id="filter0_d" x="0" y="0" width="137.949" height="137" filterUnits="userSpaceOnUse" color-interpolation-filters="sRGB">
<feFlood flood-opacity="0" result="BackgroundImageFix"/>
<feColorMatrix in="SourceAlpha" type="matrix" values="0 0 0 0 0 0 0 0 0 0 0 0 0 0 0 0 0 0 127 0"/>
<feOffset/>
<feGaussianBlur stdDeviation="11"/>
<feColorMatrix type="matrix" values="0 0 0 0 0 0 0 0 0 0 0 0 0 0 0 0 0 0 0.2 0"/>
<feBlend mode="normal" in2="BackgroundImageFix" result="effect1_dropShadow"/>
<feBlend mode="normal" in="SourceGraphic" in2="effect1_dropShadow" result="shape"/>
</filter>
</defs>
</svg>
