<svg width="116" height="90" viewBox="0 0 116 90" fill="none" xmlns="http://www.w3.org/2000/svg">
<path d="M23.789 0C11.8265 0 1.9031 9.00387 0.271851 20.6195L7.40857 27.4927L37.3828 20.6195L40.7812 13.7464V0H23.789Z" fill="#DCDBDE"/>
<path d="M95.6094 89.3514C103.117 89.3514 109.203 83.1969 109.203 75.605C109.203 68.0131 103.117 61.8586 95.6094 61.8586C88.1018 61.8586 82.0156 68.0131 82.0156 75.605C82.0156 83.1969 88.1018 89.3514 95.6094 89.3514Z" fill="#504B5A"/>
<path d="M95.6094 82.4782C99.3632 82.4782 102.406 79.401 102.406 75.6051C102.406 71.8091 99.3632 68.7319 95.6094 68.7319C91.8556 68.7319 88.8125 71.8091 88.8125 75.6051C88.8125 79.401 91.8556 82.4782 95.6094 82.4782Z" fill="#EFE2DD"/>
<path d="M20.3906 89.3514C27.8982 89.3514 33.9844 83.1969 33.9844 75.605C33.9844 68.0131 27.8982 61.8586 20.3906 61.8586C12.883 61.8586 6.79688 68.0131 6.79688 75.605C6.79688 83.1969 12.883 89.3514 20.3906 89.3514Z" fill="#504B5A"/>
<path d="M20.3906 82.4782C24.1444 82.4782 27.1875 79.401 27.1875 75.6051C27.1875 71.8091 24.1444 68.7319 20.3906 68.7319C16.6368 68.7319 13.5938 71.8091 13.5938 75.6051C13.5938 79.401 16.6368 82.4782 20.3906 82.4782Z" fill="#FFF5F5"/>
<path d="M40.7812 34.3659V13.7463H23.7891C19.3711 13.7463 15.5648 16.6331 14.2055 20.6195H0.271875C0.0679688 21.7192 0 22.8877 0 24.0561V34.3659H20.3906L33.9844 40.5517L40.7812 34.3659Z" fill="#504B5A"/>
<path d="M98.532 55.1917L95.6094 54.7793V13.7464L91.7805 6.87317L87.5891 13.7464C84.3492 13.7464 81.5625 16.0603 80.9281 19.2678L75.2188 54.9855C75.2188 58.7657 71.9336 61.8587 68.1953 61.8587H61.3984H54.375C50.6367 61.8587 47.5781 58.7657 47.5781 54.9855V41.2391C47.5781 37.4588 44.5195 34.3659 40.7812 34.3659H20.3906C9.15313 34.3659 0 43.6218 0 54.9855V68.7318H33.9844L40.7812 75.605H61.3984H116C116 65.2265 108.387 56.6121 98.532 55.1917Z" fill="#5A9F63"/>
<path d="M98.532 55.1917L95.6094 54.7793V13.7464L91.7805 6.87317L87.5891 13.7464C84.3492 13.7464 81.5625 16.0603 80.9281 19.2678L75.2188 54.9855C75.2188 58.7657 71.9336 61.8587 68.1953 61.8587H61.3984V75.605H116C116 65.2265 108.387 56.6121 98.532 55.1917Z" fill="#5A9F63"/>
<path d="M61.3984 3.43658H78.6172V10.3098H61.3984V3.43658Z" fill="#504B5A"/>
<path d="M20.3906 48.1123C9.13047 48.1123 0 57.3453 0 68.7319V75.605H40.7812V68.7319C40.7812 57.3453 31.6508 48.1123 20.3906 48.1123Z" fill="#63D673"/>
<path d="M102.406 13.7464H82.0156C78.2547 13.7464 75.2188 10.6763 75.2188 6.87318C75.2188 3.07002 78.2547 0 82.0156 0H102.406V13.7464Z" fill="#63D673"/>
</svg>
