<svg width="60" height="64" viewBox="0 0 60 64" fill="none" xmlns="http://www.w3.org/2000/svg">
<path d="M37.1935 10.5339V15.8009C37.1935 19.8672 33.8872 23.1748 29.8229 23.1748C25.7587 23.1748 22.4524 19.8672 22.4524 15.8009V10.5339H20.3464V15.8009C20.3464 21.0279 24.5983 25.2816 29.8229 25.2816C35.0487 25.2816 39.2995 21.0279 39.2995 15.8009V10.5339H37.1935Z" fill="#61B46C"/>
<path d="M59.4213 54.037L53.7544 31.3385C53.1521 29.0084 51.0557 27.4231 48.7307 27.3915L36.1395 26.414V22.1213H34.0336V27.3883C34.0336 27.9381 34.4568 28.3954 35.0054 28.4386L48.6516 29.4951C48.6537 29.4951 48.6558 29.4951 48.6579 29.4951C50.0984 29.4951 51.3555 30.4695 51.7146 31.8569L57.3794 54.549C57.4836 54.9673 57.5373 55.3981 57.5373 55.83C57.5362 58.7342 55.1745 61.097 52.2716 61.097V63.2036C56.3349 63.2036 59.6421 59.8959 59.6432 55.8299C59.6435 55.2253 59.5687 54.6216 59.4213 54.037Z" fill="#61B46C"/>
<path d="M23.5053 22.1213V26.4138L10.9984 27.3882C10.9942 27.3882 10.991 27.3882 10.9879 27.3882C8.58829 27.3882 6.49186 29.0115 5.88847 31.3468L0.22465 54.0358C-0.254481 55.9466 0.0383278 57.9291 1.05014 59.6188C2.06097 61.3084 3.66988 62.5029 5.57888 62.9812C6.16536 63.1287 6.76875 63.2034 7.37411 63.2034V61.0965C6.94236 61.0965 6.51172 61.0428 6.09268 60.9374C4.72809 60.5951 3.57931 59.7428 2.85697 58.5357C2.13464 57.3285 1.92512 55.9128 2.26728 54.5465L7.92999 31.8649C8.29116 30.467 9.55148 29.4915 11.0783 29.4915L24.6402 28.4382C25.1877 28.3961 25.6111 27.9379 25.6111 27.3879V22.1213H23.5053Z" fill="#61B46C"/>
<path d="M34.0347 0H25.6111C22.7082 0 20.3464 2.36275 20.3464 5.26705V11.5875C20.3464 12.1689 20.8182 12.6408 21.3993 12.6408H38.2464C38.8276 12.6408 39.2993 12.1689 39.2993 11.5875V5.26705C39.2995 2.36275 36.9377 0 34.0347 0ZM37.1935 10.5339H22.4524V5.26705C22.4524 3.52474 23.8696 2.10684 25.6112 2.10684H34.0348C35.7764 2.10684 37.1936 3.52474 37.1936 5.26705L37.1935 10.5339Z" fill="#61B46C"/>
<path d="M34.0346 6.32041H25.611C22.7081 6.32041 20.3463 8.68363 20.3463 11.5885C20.3463 12.1701 20.818 12.6421 21.3992 12.6421H38.2463C38.8274 12.6421 39.2992 12.1701 39.2992 11.5885C39.2994 8.68363 36.9377 6.32041 34.0346 6.32041ZM22.6333 10.5348C23.0672 9.30839 24.2381 8.42756 25.611 8.42756H34.0346C35.4076 8.42756 36.5786 9.30839 37.0134 10.5348H22.6333Z" fill="#61B46C"/>
<path d="M29.8229 15.8009V11.5877H27.717V16.8543C27.717 17.4357 28.1887 17.9076 28.7699 17.9076H30.8758V15.8009H29.8229Z" fill="#61B46C"/>
<path d="M20.3464 56.8831H11.9228V54.7763C11.9228 53.034 10.5055 51.6161 8.76395 51.6161C7.0224 51.6161 5.60512 53.034 5.60512 54.7763V62.15C5.60512 62.7325 6.07685 63.2034 6.65802 63.2034H16.1345C19.0374 63.2034 21.3993 60.8406 21.3993 57.9364C21.3993 57.354 20.9276 56.8831 20.3464 56.8831ZM16.1346 61.0967H7.71105V54.7763C7.71105 54.1949 8.18376 53.723 8.76395 53.723C9.34414 53.723 9.81686 54.1949 9.81686 54.7763V57.9365C9.81686 58.519 10.2886 58.9898 10.8698 58.9898H19.1132C18.6785 60.216 17.5076 61.0967 16.1346 61.0967Z" fill="#61B46C"/>
<path d="M10.8688 45.2957H3.49823V47.3989H10.8688V45.2957Z" fill="#61B46C"/>
<path d="M56.1456 45.2957H48.775V47.3989H56.1456V45.2957Z" fill="#61B46C"/>
<path d="M48.776 31.6018H10.87C10.2888 31.6018 9.81705 32.0737 9.81705 32.6551L9.81686 57.9365C9.81686 58.519 10.2886 58.9898 10.8698 58.9898L48.776 58.9897C49.3572 58.9897 49.8289 58.5189 49.8289 57.9363V32.6551C49.8289 32.0737 49.3583 31.6018 48.776 31.6018ZM47.7231 56.883L11.9228 56.8831L11.9229 33.7086H47.723L47.7231 56.883Z" fill="#61B46C"/>
<path d="M45.6161 52.6695H43.5102V54.7729H45.6161V52.6695Z" fill="#61B46C"/>
<path d="M41.4043 52.6695H39.2983V54.7729H41.4043V52.6695Z" fill="#61B46C"/>
<path d="M34.3422 26.6437L29.8229 31.1658L25.3026 26.6437L23.8137 28.1331L29.0785 33.3999C29.2754 33.5979 29.5439 33.7085 29.8229 33.7085C30.1019 33.7085 30.3704 33.5979 30.5674 33.3999L35.831 28.1331L34.3422 26.6437Z" fill="#61B46C"/>
<path d="M50.8819 51.6161C49.1403 51.6161 47.723 53.034 47.723 54.7764L47.7231 56.883L39.2994 56.8832C38.7172 56.8832 38.2465 57.354 38.2465 57.9366C38.2465 60.8407 40.6083 63.2036 43.5113 63.2036H52.9878C53.569 63.2036 54.0407 62.7328 54.0407 62.1502V54.7765C54.0407 53.034 52.6234 51.6161 50.8819 51.6161ZM51.9348 61.0968H43.5112C42.1382 61.0968 40.9672 60.2161 40.5324 58.9899L48.776 58.9897C49.3583 58.9897 49.8289 58.5189 49.8289 57.9363L49.8287 54.7764C49.8287 54.1949 50.3004 53.723 50.8816 53.723C51.4628 53.723 51.9345 54.1949 51.9345 54.7764L51.9348 61.0968Z" fill="#61B46C"/>
<path d="M48.7748 38.9753H10.8688V41.0782H48.7748V38.9753Z" fill="#61B46C"/>
</svg>
